<svg xmlns="http://www.w3.org/2000/svg" width="24" height="24" viewBox="0 0 24 24">
    <g fill="none" fill-rule="evenodd">
        <g>
            <g>
                <g>
                    <g>
                        <g>
                            <path d="M0 0H24V24H0z" transform="translate(-44 -336) translate(16 218) translate(0 90) translate(20 20) translate(8 8)"/>
                            <path fill="#8B919C" d="M10.059 18.999c.527.145 1.072.23 1.627.253l.279.006L11.959 21c-.706-.003-1.4-.086-2.075-.248l-.288-.074.463-1.68zM6.57 16.833c.523.585 1.137 1.082 1.817 1.471l.229.126-.811 1.542c-.877-.46-1.672-1.063-2.353-1.78l-.182-.198 1.3-1.16zm5.42-10.422c3.09 0 5.595 2.502 5.595 5.589 0 3.087-2.505 5.589-5.594 5.589-3.09 0-5.595-2.502-5.595-5.589 0-3.087 2.505-5.589 5.595-5.589zm-7.18 6.7c.12.779.364 1.527.723 2.22l.124.228-1.52.856c-.484-.86-.825-1.795-1.006-2.772l-.045-.268 1.723-.264zm7.406-4.024h-1.332v4.096l3.25 1.53.988-1.046-2.906-1.148V9.087zm-8.438-.792l1.589.717c-.321.71-.526 1.468-.605 2.252l-.022.263L3 11.415c.064-.998.292-1.966.671-2.874l.107-.246zm3.325-3.857l.947 1.463c-.659.426-1.245.955-1.735 1.567l-.16.206-1.399-1.039c.59-.793 1.309-1.486 2.123-2.047l.224-.15zM21 12c0 4.91-3.935 8.9-8.826 8.998l-.183.002v-1.742c4.012 0 7.265-3.25 7.265-7.258 0-3.949-3.156-7.16-7.086-7.256l-.18-.002c-.795 0-1.572.127-2.309.374l-.244.087-.613-1.631c.92-.345 1.895-.538 2.894-.568L11.99 3C16.966 3 21 7.03 21 12z" transform="translate(-44 -336) translate(16 218) translate(0 90) translate(20 20) translate(8 8)"/>
                        </g>
                    </g>
                </g>
            </g>
        </g>
    </g>
</svg>
