<svg xmlns="http://www.w3.org/2000/svg" width="24" height="24" viewBox="0 0 24 24">
    <g fill="none" fill-rule="evenodd">
        <g>
            <g>
                <g>
                    <g>
                        <g>
                            <path d="M0 0H24V24H0z" transform="translate(-44 -336) translate(16 218) translate(0 90) translate(20 20) translate(8 8)"/>
                            <path fill="#8B919C" d="M7 4.125V5c0 .552.448 1 1 1h8c.552 0 1-.448 1-1v-.875h2.875c.621 0 1.125.504 1.125 1.125v14.625c0 .621-.504 1.125-1.125 1.125H4.125C3.504 21 3 20.496 3 19.875V5.25c0-.621.504-1.125 1.125-1.125H7zm9.797 6.068c-.27-.257-.708-.257-.979 0l-5.203 4.945-2.433-2.313-.065-.055c-.272-.2-.665-.182-.914.055-.27.257-.27.674 0 .93L10.615 17l6.182-5.877.058-.062c.211-.258.192-.631-.058-.868zM15 3c.552 0 1 .448 1 1s-.448 1-1 1H9c-.552 0-1-.448-1-1s.448-1 1-1h6z" transform="translate(-44 -336) translate(16 218) translate(0 90) translate(20 20) translate(8 8)"/>
                        </g>
                    </g>
                </g>
            </g>
        </g>
    </g>
</svg>
