<svg xmlns="http://www.w3.org/2000/svg" width="24" height="24" viewBox="0 0 24 24">
    <g fill="none" fill-rule="evenodd">
        <g>
            <g>
                <g>
                    <g>
                        <path d="M0 0H24V24H0z" transform="translate(-44 -246) translate(16 218) translate(20 20) translate(8 8)"/>
                        <path fill="#8B919C" d="M16.5 12c2.485 0 4.5 2.015 4.5 4.5S18.985 21 16.5 21 12 18.985 12 16.5s2.015-4.5 4.5-4.5zm1.535 2.706l-.061.054-2.117 2.116-.831-.83-.06-.054c-.253-.196-.617-.178-.85.053-.23.232-.249.597-.053.849l.054.06 1.286 1.286.06.054c.231.18.557.18.788 0l.06-.054 2.572-2.571.054-.06c.196-.253.178-.618-.054-.85-.232-.231-.596-.249-.848-.053zM7.47 9.75c.599.616 1.361.984 2.192.984.83 0 1.593-.368 2.192-.984h.52c1.085 0 1.918.514 2.505 1.362-2.317.696-4.005 2.845-4.005 5.388 0 .385.039.762.113 1.126l-6.362-.001c-1.019 0-1.543-1-1.62-2.269L3 15.164c0-2.99 1.597-5.414 3.95-5.414h.52zM9.75 3c1.864 0 3.375 1.511 3.375 3.375S11.614 9.75 9.75 9.75 6.375 8.239 6.375 6.375 7.886 3 9.75 3z" transform="translate(-44 -246) translate(16 218) translate(20 20) translate(8 8)"/>
                    </g>
                </g>
            </g>
        </g>
    </g>
</svg>
