<svg xmlns="http://www.w3.org/2000/svg" width="24" height="24" viewBox="0 0 24 24">
    <g fill="none" fill-rule="evenodd">
        <g>
            <g>
                <g>
                    <g>
                        <g>
                            <path d="M0 0H24V24H0z" transform="translate(-44 -426) translate(16 218) translate(0 180) translate(20 20) translate(8 8)"/>
                            <path fill="#8B919C" d="M19.077 10.235c.51 0 .923.395.923.883 0 3.823-2.935 6.99-6.769 7.557v1.56h.923c.51 0 .923.395.923.883 0 .487-.413.882-.923.882H9.846c-.51 0-.923-.395-.923-.882 0-.488.413-.883.923-.883h.923v-1.56C6.935 18.109 4 14.94 4 11.118c0-.488.413-.883.923-.883s.923.395.923.883C5.846 14.366 8.601 17 12 17s6.154-2.634 6.154-5.882c0-.488.413-.883.923-.883zM12 2c2.549 0 4.615 1.975 4.615 4.412v4.117c0 2.437-2.066 4.412-4.615 4.412-2.549 0-4.615-1.975-4.615-4.412V6.412C7.385 3.975 9.45 2 12 2z" transform="translate(-44 -426) translate(16 218) translate(0 180) translate(20 20) translate(8 8)"/>
                        </g>
                    </g>
                </g>
            </g>
        </g>
    </g>
</svg>
