<svg xmlns="http://www.w3.org/2000/svg" width="24" height="24" viewBox="0 0 24 24">
    <g fill="none" fill-rule="evenodd">
        <g>
            <g>
                <g>
                    <g>
                        <path d="M0 0H24V24H0z" transform="translate(-44 -246) translate(16 218) translate(20 20) translate(8 8)"/>
                        <path fill="#8B919C" d="M18.75 3C19.993 3 21 4.007 21 5.25v10.125c0 1.243-1.007 2.25-2.25 2.25h-3.938V21l-3.374-3.375H5.25c-1.243 0-2.25-1.007-2.25-2.25V5.25C3 4.007 4.007 3 5.25 3h13.5zm-9.563 7.875H8.063l.002.11c.08 1.557 1.846 2.703 3.935 2.703 2.062 0 3.809-1.116 3.93-2.642l.008-.171h-1.126l-.003.08c-.07.841-1.267 1.607-2.809 1.607-1.518 0-2.7-.742-2.805-1.568l-.008-.119zm-.562-4.5c-.621 0-1.125.504-1.125 1.125s.504 1.125 1.125 1.125S9.75 8.121 9.75 7.5s-.504-1.125-1.125-1.125zm6.75 0c-.621 0-1.125.504-1.125 1.125s.504 1.125 1.125 1.125S16.5 8.121 16.5 7.5s-.504-1.125-1.125-1.125z" transform="translate(-44 -246) translate(16 218) translate(20 20) translate(8 8)"/>
                    </g>
                </g>
            </g>
        </g>
    </g>
</svg>
