<svg xmlns="http://www.w3.org/2000/svg" width="24" height="24" viewBox="0 0 24 24">
    <g fill="none" fill-rule="evenodd">
        <g>
            <g>
                <g>
                    <g>
                        <g>
                            <path d="M0 0H24V24H0z" transform="translate(-44 -516) translate(16 218) translate(0 270) translate(20 20) translate(8 8)"/>
                            <path fill="#8B919C" d="M13.758 3l1.108 2.834c.448.192.871.428 1.264.702l3.112-.497L21 8.96l-2.004 2.34c.024.23.037.463.037.699 0 .236-.013.47-.037.7L21 15.038l-1.758 2.922-3.112-.497c-.392.274-.815.51-1.263.702L13.758 21h-3.516l-1.109-2.834c-.448-.192-.87-.428-1.263-.702l-3.112.497L3 15.04 5.004 12.7c-.024-.23-.037-.464-.037-.7 0-.236.013-.47.037-.7L3 8.96 4.758 6.04l3.112.497c.393-.274.816-.51 1.264-.702L10.242 3h3.516zm-1.094 11.614h-1.328c-.373 0-.677.275-.677.615v.86c0 .34.304.616.677.616h1.328c.373 0 .677-.276.677-.615v-.861c0-.34-.304-.615-.677-.615zm.121-7.319h-1.57c-.374 0-.678 1.343-.678 1.645v.384l.7 3.777c.05.269.334.467.67.467h.187c.335 0 .62-.198.67-.467l.699-3.777V8.94c0-.302-.304-1.645-.678-1.645z" transform="translate(-44 -516) translate(16 218) translate(0 270) translate(20 20) translate(8 8)"/>
                        </g>
                    </g>
                </g>
            </g>
        </g>
    </g>
</svg>
