<svg xmlns="http://www.w3.org/2000/svg" width="16" height="16" viewBox="0 0 16 16">
    <path fill="#FFF" d="M5.242 1.334h4.091c.118-.007.24.025.344.106l.05.045 4.122 4.102c.098.098.146.218.151.336v6.18c0 1.379-1.094 2.503-2.464 2.561l-.112.003H5.242c-1.385 0-2.514-1.089-2.573-2.453l-.002-.111V3.898c0-1.378 1.093-2.503 2.464-2.561l.111-.003zM8.848 2.36H5.242C4.42 2.36 3.747 3 3.7 3.808l-.003.09v8.205c0 .819.643 1.489 1.454 1.535l.091.003h6.182c.823 0 1.496-.64 1.543-1.448l.002-.09v-5.64h-1.545c-1.385 0-2.515-1.09-2.573-2.454l-.003-.11v-1.54zm1.546 7.692c.284 0 .515.23.515.512 0 .263-.2.48-.455.51l-.06.003H6.273c-.285 0-.516-.23-.516-.513 0-.263.2-.48.455-.509l.06-.003h4.122zm0-2.564c.284 0 .515.23.515.513 0 .262-.2.48-.455.509l-.06.003H6.273c-.285 0-.516-.23-.516-.512 0-.263.2-.48.455-.51l.06-.003h4.122zM7.303 4.924c.284 0 .515.23.515.513 0 .263-.199.48-.455.509l-.06.003h-1.03c-.285 0-.516-.23-.516-.512 0-.263.2-.48.455-.51l.06-.003h1.03zm2.575-1.838v.812c0 .79.597 1.44 1.366 1.528l.089.008.09.003h.817L9.878 3.086z"/>
</svg>
