<svg xmlns="http://www.w3.org/2000/svg" width="24" height="24" viewBox="0 0 24 24">
    <g fill="none" fill-rule="evenodd">
        <g>
            <g>
                <g>
                    <g>
                        <g>
                            <path d="M0 0H24V24H0z" transform="translate(-44 -516) translate(16 218) translate(0 270) translate(20 20) translate(8 8)"/>
                            <path fill="#8B919C" d="M16.5 3c.621 0 1.5.504 1.5 1.125v1.913h1.875c.621 0 1.125.503 1.125 1.125v12.712c0 .621-.504 1.125-1.125 1.125H4.125C3.504 21 3 20.496 3 19.875V7.163c0-.622.504-1.125 1.125-1.125H6.03V4.125C6.03 3.504 6.879 3 7.5 3S9 3.504 9 4.125v1.913h6V4.125C15 3.504 15.879 3 16.5 3zm-3.836 13.5h-1.328c-.373 0-.677.296-.677.662v.926c0 .366.304.662.677.662h1.328c.373 0 .677-.296.677-.662v-.926c0-.366-.304-.662-.677-.662zm.121-7.875h-1.57c-.374 0-.678 1.444-.678 1.77v.413l.7 4.064c.05.29.334.503.67.503h.187c.335 0 .62-.214.67-.503l.699-4.064v-.413c0-.326-.304-1.77-.678-1.77z" transform="translate(-44 -516) translate(16 218) translate(0 270) translate(20 20) translate(8 8)"/>
                        </g>
                    </g>
                </g>
            </g>
        </g>
    </g>
</svg>
