<svg xmlns="http://www.w3.org/2000/svg" width="24" height="24" viewBox="0 0 24 24">
    <path fill="#FFF" fill-rule="evenodd" d="M21 13v6.875c0 .621-.504 1.125-1.125 1.125H4.125C3.504 21 3 20.496 3 19.875V13h18zm-1.125-5.981c.621 0 1.125.503 1.125 1.125V12H3V8.144c0-.622.504-1.125 1.125-1.125h15.75zM8.719 3h6.551c.932 0 1.688.756 1.688 1.688v2.33H7.03v-2.33C7.031 3.756 7.787 3 8.72 3zm.344 1.5h5.874c.311 0 .563.252.563.563v1.956h-7V5.062c0-.31.252-.562.563-.562zm1.812 8.5h2.25v.875c0 .621-.504 1.125-1.125 1.125s-1.125-.504-1.125-1.125V13z"/>
</svg>
