<svg xmlns="http://www.w3.org/2000/svg" width="24" height="24" viewBox="0 0 24 24">
    <g fill="none" fill-rule="evenodd">
        <g>
            <g>
                <g>
                    <g>
                        <g>
                            <path d="M0 0H24V24H0z" transform="translate(-44 -426) translate(16 218) translate(0 180) translate(20 20) translate(8 8)"/>
                            <path fill="#8B919C" d="M6.624 6.082l.081.071 1.935 1.86c.444.457.455 1.172.042 1.643l-.073.076-.468.45c-.295.282-.428.693-.354 1.094.268 1.457.846 2.612 1.734 3.464.9.865 2.119 1.417 3.656 1.659.344.054.692-.041.96-.258l.078-.068.563-.541c.446-.43 1.14-.453 1.613-.072l.082.072 1.935 1.86c.443.457.454 1.172.041 1.643l-.072.076-.92.883c-1.144 1.098-2.874 1.321-4.26.55-2.05-1.14-3.886-2.488-5.508-4.045-1.613-1.55-3.015-3.306-4.206-5.268-.783-1.292-.597-2.94.437-4.026l.106-.107.984-.945c.447-.429 1.14-.453 1.614-.071zm13.412 4.793c.532 0 .964.378.964.844 0 .438-.382.799-.871.84l-.093.004h-2.572c-.532 0-.964-.378-.964-.844 0-.439.382-.8.871-.84l.093-.004h2.572zM18.775 5.49c.312.306.337.795.07 1.129l-.057.065-1.966 2.01c-.326.334-.86.34-1.193.014-.312-.305-.337-.794-.07-1.128l.056-.065 1.967-2.011c.326-.333.86-.34 1.193-.014zM12.281 3c.439 0 .8.382.84.871l.004.093v2.572c0 .532-.378.964-.844.964-.438 0-.799-.382-.84-.871l-.004-.093V3.964c0-.532.378-.964.844-.964z" transform="translate(-44 -426) translate(16 218) translate(0 180) translate(20 20) translate(8 8)"/>
                        </g>
                    </g>
                </g>
            </g>
        </g>
    </g>
</svg>
