<svg xmlns="http://www.w3.org/2000/svg" width="24" height="24" viewBox="0 0 24 24">
    <path fill="#FFF" fill-rule="evenodd" d="M5 21c-1.105 0-2-.895-2-2V5c0-1.105.895-2 2-2h11c1.105 0 2 .895 2 2v13.5c0 .276.224.5.5.5.245 0 .45-.177.492-.41L19 18.5V7c1.105 0 2 .895 2 2v10c0 1.105-.895 2-2 2H5zm4.5-5h-3c-.245 0-.45.177-.492.41L6 16.5v1c0 .245.177.45.41.492L6.5 18h3c.245 0 .45-.177.492-.41L10 17.5v-1c0-.276-.224-.5-.5-.5zm5 0h-3c-.245 0-.45.177-.492.41L11 16.5v1c0 .245.177.45.41.492l.09.008h3c.245 0 .45-.177.492-.41L15 17.5v-1c0-.276-.224-.5-.5-.5zm-5-4h-3c-.245 0-.45.177-.492.41L6 12.5v1c0 .245.177.45.41.492L6.5 14h3c.245 0 .45-.177.492-.41L10 13.5v-1c0-.276-.224-.5-.5-.5zm5 0h-3c-.245 0-.45.177-.492.41L11 12.5v1c0 .245.177.45.41.492l.09.008h3c.245 0 .45-.177.492-.41L15 13.5v-1c0-.276-.224-.5-.5-.5zm0-5h-8c-.245 0-.45.177-.492.41L6 7.5v2c0 .245.177.45.41.492L6.5 10h8c.245 0 .45-.177.492-.41L15 9.5v-2c0-.276-.224-.5-.5-.5z"/>
</svg>
