<svg xmlns="http://www.w3.org/2000/svg" width="24" height="24" viewBox="0 0 24 24">
    <g fill="none" fill-rule="evenodd">
        <g>
            <g>
                <g>
                    <g>
                        <g>
                            <path d="M0 0H24V24H0z" transform="translate(-44 -516) translate(16 218) translate(0 270) translate(20 20) translate(8 8)"/>
                            <path fill="#8B919C" d="M9.617 3c.426 0 .816.24 1.006.622l1.066 2.131c.19.381.58.622 1.006.622h6.055c1.243 0 2.25 1.007 2.25 2.25V18.75c0 1.243-1.007 2.25-2.25 2.25H5.25C4.007 21 3 19.993 3 18.75V5.25C3 4.007 4.007 3 5.25 3h4.367zM8.011 8.236l-.43.41c-.756.717-.934 1.853-.435 2.767.728 1.333 1.623 2.503 2.684 3.512 1.072 1.018 2.315 1.871 3.727 2.56.953.464 2.094.287 2.863-.443l.347-.33c.45-.427.468-1.14.04-1.59l-.99-.943c-.338-.32-.868-.32-1.205 0l-.258.245c-.231.22-.545.331-.864.306-1.058-.084-1.876-.4-2.454-.95-.563-.535-.899-1.29-1.008-2.266-.039-.35.088-.698.344-.94l.222-.211c.316-.3.329-.8.028-1.117l-.028-.028-1.033-.982c-.435-.412-1.116-.412-1.55 0z" transform="translate(-44 -516) translate(16 218) translate(0 270) translate(20 20) translate(8 8)"/>
                        </g>
                    </g>
                </g>
            </g>
        </g>
    </g>
</svg>
