<svg xmlns="http://www.w3.org/2000/svg" width="24" height="24" viewBox="0 0 24 24">
    <g fill="none" fill-rule="evenodd">
        <g>
            <g>
                <g>
                    <g>
                        <path d="M0 0H24V24H0z" transform="translate(-44 -246) translate(16 218) translate(20 20) translate(8 8)"/>
                        <path fill="#8B919C" d="M21 11v8.875c0 .621-.504 1.125-1.125 1.125H4.125C3.504 21 3 20.496 3 19.875V11h18zm-6-6.875C15 3.504 15.504 3 16.125 3h.75C17.496 3 18 3.504 18 4.125V6h1.875C20.496 6 21 6.504 21 7.125V10H3V7.125C3 6.504 3.504 6 4.125 6H6V4.125C6 3.504 6.504 3 7.125 3h.75C8.496 3 9 3.504 9 4.125V6h6V4.125z" transform="translate(-44 -246) translate(16 218) translate(20 20) translate(8 8)"/>
                    </g>
                </g>
            </g>
        </g>
    </g>
</svg>
