<svg xmlns="http://www.w3.org/2000/svg" width="24" height="24" viewBox="0 0 24 24">
    <g fill="none" fill-rule="evenodd">
        <path fill="#313C49" d="M7 0h10c3.866 0 7 3.134 7 7v10c0 3.866-3.134 7-7 7H7c-3.866 0-7-3.134-7-7V7c0-3.866 3.134-7 7-7z"/>
        <path fill="#FFF" d="M12.32 5.687c.209.085.375.249.46.455l1.231 2.967c.121.292.4.491.719.515l3.239.237c.465.035.813.434.779.892-.017.223-.124.43-.297.574l-2.478 2.071c-.245.204-.35.527-.275.833l.772 3.114c.11.446-.167.897-.62 1.006-.22.053-.451.017-.644-.1l-2.762-1.687c-.272-.166-.616-.166-.888 0L8.794 18.25c-.397.242-.917.121-1.162-.27-.119-.19-.156-.419-.102-.635l.772-3.114c.076-.306-.03-.629-.275-.833l-2.478-2.07c-.356-.298-.4-.823-.1-1.174.147-.17.357-.276.582-.293l3.24-.237c.318-.024.597-.223.718-.515l1.23-2.967c.177-.425.67-.629 1.1-.455z"/>
    </g>
</svg>
