<svg xmlns="http://www.w3.org/2000/svg" width="24" height="24" viewBox="0 0 24 24">
    <path fill="#FFF" fill-rule="evenodd" d="M12.426 3.583c.28.113.5.331.615.607l1.64 3.955c.162.39.533.655.958.686l4.32.318c.62.045 1.084.578 1.038 1.189-.023.297-.165.572-.395.765l-3.305 2.761c-.326.272-.467.702-.366 1.111l1.029 4.151c.147.596-.222 1.196-.826 1.342-.293.07-.602.022-.859-.134l-3.683-2.248c-.363-.222-.821-.222-1.184 0l-3.683 2.248c-.528.322-1.222.161-1.549-.36-.158-.253-.207-.559-.136-.848l1.03-4.15c.1-.41-.041-.84-.367-1.112l-3.305-2.761c-.474-.396-.533-1.097-.132-1.565.195-.227.475-.367.776-.39l4.319-.317c.425-.03.796-.297.957-.686l1.64-3.955c.236-.567.893-.84 1.468-.607z"/>
</svg>
