<svg xmlns="http://www.w3.org/2000/svg" xmlns:xlink="http://www.w3.org/1999/xlink" width="24" height="24" viewBox="0 0 24 24">
    <defs>
        <path id="8wvhpjc8qa" d="M8 0c4.418 0 8 3.582 8 8s-3.582 8-8 8-8-3.582-8-8 3.582-8 8-8zM4.606 3.757c-.234-.234-.614-.234-.849 0-.234.235-.234.615 0 .849L7.151 8l-3.394 3.394c-.234.234-.234.614 0 .849.235.234.615.234.849 0L8 8.849l3.394 3.394c.234.234.614.234.849 0 .234-.235.234-.615 0-.849L8.849 8l3.394-3.393c.234-.234.234-.614 0-.849-.235-.234-.615-.234-.849 0L8.001 7.151z"/>
    </defs>
    <g fill="none" fill-rule="evenodd" transform="translate(4 4)">
        <path fill="#FFF" fill-opacity="0" d="M0 0H16V16H0z"/>
        <use fill="#8B919C" fill-rule="nonzero" xlink:href="#8wvhpjc8qa"/>
    </g>
</svg>
