<svg xmlns="http://www.w3.org/2000/svg" width="24" height="24" viewBox="0 0 24 24">
    <g fill="none" fill-rule="evenodd">
        <g>
            <g>
                <g>
                    <g>
                        <g>
                            <path d="M0 0H24V24H0z" transform="translate(-44 -696) translate(16 218) translate(0 450) translate(20 20) translate(8 8)"/>
                            <path fill="#8B919C" d="M5 21c-1.105 0-2-.895-2-2V9c0-1.105.895-2 2-2v11.5c0 .276.224.5.5.5.245 0 .45-.177.492-.41L6 18.5V5c0-1.105.895-2 2-2h11c1.105 0 2 .895 2 2v14c0 1.105-.895 2-2 2H5zm7.5-5h-3c-.245 0-.45.177-.492.41L9 16.5v1c0 .245.177.45.41.492L9.5 18h3c.245 0 .45-.177.492-.41L13 17.5v-1c0-.276-.224-.5-.5-.5zm5 0h-3c-.245 0-.45.177-.492.41L14 16.5v1c0 .245.177.45.41.492l.09.008h3c.245 0 .45-.177.492-.41L18 17.5v-1c0-.276-.224-.5-.5-.5zm-5-4h-3c-.245 0-.45.177-.492.41L9 12.5v1c0 .245.177.45.41.492L9.5 14h3c.245 0 .45-.177.492-.41L13 13.5v-1c0-.276-.224-.5-.5-.5zm5 0h-3c-.245 0-.45.177-.492.41L14 12.5v1c0 .245.177.45.41.492l.09.008h3c.245 0 .45-.177.492-.41L18 13.5v-1c0-.276-.224-.5-.5-.5zm0-5h-8c-.245 0-.45.177-.492.41L9 7.5v2c0 .245.177.45.41.492L9.5 10h8c.245 0 .45-.177.492-.41L18 9.5v-2c0-.276-.224-.5-.5-.5z" transform="translate(-44 -696) translate(16 218) translate(0 450) translate(20 20) translate(8 8)"/>
                        </g>
                    </g>
                </g>
            </g>
        </g>
    </g>
</svg>
