<svg xmlns="http://www.w3.org/2000/svg" width="20" height="20" viewBox="0 0 20 20">
    <g fill="none" fill-rule="evenodd">
        <g>
            <g>
                <g>
                    <path fill="#FFF" fill-opacity="0" d="M0 0H20V20H0z" transform="translate(-1638 -232) translate(1451 232) translate(187)"/>
                    <g>
                        <path fill="#727679" d="M5.915 10.358c-2.455 0-4.444-1.989-4.444-4.444 0-2.453 1.989-4.444 4.444-4.444 2.454 0 4.443 1.99 4.443 4.445s-1.99 4.443-4.443 4.443m0-10.357C2.648 0 0 2.648 0 5.914c0 3.267 2.648 5.915 5.915 5.915 3.266 0 5.914-2.649 5.914-5.915S9.18.002 5.915.002" transform="translate(-1638 -232) translate(1451 232) translate(187) translate(4 4)"/>
                        <path stroke="#727679" stroke-width="1.8" d="M3 5.6L5.326 7.5 9 4.5" transform="translate(-1638 -232) translate(1451 232) translate(187) translate(4 4)"/>
                    </g>
                </g>
            </g>
        </g>
    </g>
</svg>
