<svg xmlns="http://www.w3.org/2000/svg" width="391" height="35" viewBox="0 0 391 35">
    <g fill="none">
        <path fill="#8B919C" d="M114.37 23.144c1.524 0 2.484-.588 3.36-1.476l-.624-.612c-.804.768-1.56 1.212-2.712 1.212-1.848 0-3.252-1.524-3.252-3.468v-.024c0-1.932 1.392-3.444 3.252-3.444 1.14 0 1.932.48 2.64 1.152l.648-.696c-.84-.792-1.752-1.332-3.276-1.332-2.472 0-4.248 1.968-4.248 4.344v.024c0 2.412 1.788 4.32 4.212 4.32zm7.692 0c1.872 0 3.252-1.488 3.252-3.24v-.024c0-1.752-1.368-3.216-3.228-3.216-1.872 0-3.24 1.488-3.24 3.24v.024c0 1.752 1.356 3.216 3.216 3.216zm.024-.828c-1.308 0-2.292-1.08-2.292-2.412v-.024c0-1.308.924-2.4 2.268-2.4 1.308 0 2.304 1.092 2.304 2.424v.024c0 1.308-.936 2.388-2.28 2.388zm5.82 2.604v-3.108c.48.696 1.224 1.32 2.376 1.32 1.5 0 2.964-1.2 2.964-3.228v-.024c0-2.04-1.476-3.216-2.964-3.216-1.14 0-1.872.636-2.376 1.38v-1.248h-.924v8.124h.924zm2.208-2.616c-1.152 0-2.244-.96-2.244-2.4v-.024c0-1.416 1.092-2.388 2.244-2.388 1.176 0 2.184.936 2.184 2.4v.024c0 1.5-.984 2.388-2.184 2.388zm5.796 2.652c.936 0 1.536-.468 2.064-1.752l2.604-6.408h-.984l-1.992 5.172-2.256-5.172h-1.02l2.82 6.18c-.372.876-.72 1.164-1.272 1.164-.396 0-.672-.072-.972-.228l-.312.732c.42.204.804.312 1.32.312zM142.966 23v-2.472c0-1.872 1.104-2.844 2.46-2.844h.072v-.996c-1.176-.048-2.076.696-2.532 1.728v-1.62h-.924V23h.924zm5.016-7.56v-1.02h-1.056v1.02h1.056zM147.91 23v-6.204h-.924V23h.924zm4.896 1.944c.984 0 1.812-.276 2.364-.828.504-.504.792-1.236.792-2.196v-5.124h-.924v1.116c-.504-.672-1.26-1.248-2.424-1.248-1.476 0-2.916 1.116-2.916 2.928v.024c0 1.788 1.428 2.904 2.916 2.904 1.14 0 1.896-.588 2.436-1.308v.732c0 1.452-.888 2.208-2.256 2.208-.888 0-1.68-.276-2.388-.792l-.42.72c.828.576 1.788.864 2.82.864zm-.012-3.24c-1.152 0-2.148-.864-2.148-2.112v-.024c0-1.272.972-2.088 2.148-2.088 1.176 0 2.28.828 2.28 2.1v.024c0 1.248-1.104 2.1-2.28 2.1zM158.95 23v-3.552c0-1.164.792-1.944 1.86-1.944 1.092 0 1.716.72 1.716 1.872V23h.924v-3.852c0-1.476-.876-2.484-2.376-2.484-1.068 0-1.716.54-2.124 1.212V14.24h-.924V23h.924zm8.544.108c.444 0 .792-.096 1.116-.264v-.792c-.324.156-.588.216-.9.216-.624 0-1.044-.276-1.044-1.032v-3.624h1.968v-.816h-1.968v-1.872h-.924v1.872h-.864v.816h.864v3.744c0 1.26.756 1.752 1.752 1.752zm5.88 1.584l.396-.612c-1.824-1.164-2.784-2.604-2.784-4.524s.96-3.36 2.784-4.524l-.396-.612c-2.136 1.2-3.324 2.928-3.324 5.136s1.188 3.936 3.324 5.136zm4.896-1.548c1.164 0 1.908-.504 2.532-1.2l-.588-.552c-.492.528-1.104.924-1.896.924-1.296 0-2.28-1.068-2.28-2.412v-.024c0-1.332.96-2.4 2.22-2.4.84 0 1.392.42 1.884.936l.612-.648c-.576-.612-1.308-1.104-2.484-1.104-1.812 0-3.18 1.488-3.18 3.24v.024c0 1.74 1.368 3.216 3.18 3.216zm4.092 1.548c2.136-1.2 3.324-2.928 3.324-5.136s-1.188-3.936-3.324-5.136l-.396.612c1.824 1.164 2.784 2.604 2.784 4.524s-.96 3.36-2.784 4.524l.396.612zm12.768-1.548c1.524 0 2.484-.588 3.36-1.476l-.624-.612c-.804.768-1.56 1.212-2.712 1.212-1.848 0-3.252-1.524-3.252-3.468v-.024c0-1.932 1.392-3.444 3.252-3.444 1.14 0 1.932.48 2.64 1.152l.648-.696c-.84-.792-1.752-1.332-3.276-1.332-2.472 0-4.248 1.968-4.248 4.344v.024c0 2.412 1.788 4.32 4.212 4.32zm6.792-.024c.744 0 1.38-.24 1.848-.696.48-.48.768-1.224.768-2.208V14.6h-.96v5.628c0 1.332-.696 2.016-1.644 2.016-.876 0-1.404-.42-1.92-1.2l-.684.588c.528.864 1.332 1.488 2.592 1.488zm14.136-.12v-.876h-4.728V14.6h-.948V23h5.676zm4.428.144c1.872 0 3.252-1.488 3.252-3.24v-.024c0-1.752-1.368-3.216-3.228-3.216-1.872 0-3.24 1.488-3.24 3.24v.024c0 1.752 1.356 3.216 3.216 3.216zm.024-.828c-1.308 0-2.292-1.08-2.292-2.412v-.024c0-1.308.924-2.4 2.268-2.4 1.308 0 2.304 1.092 2.304 2.424v.024c0 1.308-.936 2.388-2.28 2.388zm7.644 2.628c.984 0 1.812-.276 2.364-.828.504-.504.792-1.236.792-2.196v-5.124h-.924v1.116c-.504-.672-1.26-1.248-2.424-1.248-1.476 0-2.916 1.116-2.916 2.928v.024c0 1.788 1.428 2.904 2.916 2.904 1.14 0 1.896-.588 2.436-1.308v.732c0 1.452-.888 2.208-2.256 2.208-.888 0-1.68-.276-2.388-.792l-.42.72c.828.576 1.788.864 2.82.864zm-.012-3.24c-1.152 0-2.148-.864-2.148-2.112v-.024c0-1.272.972-2.088 2.148-2.088 1.176 0 2.28.828 2.28 2.1v.024c0 1.248-1.104 2.1-2.28 2.1zm6.312-6.264v-1.02h-1.056v1.02h1.056zm-.072 7.56v-6.204h-.924V23h.924zm4.2.12c1.236 0 2.208-.684 2.208-1.86v-.024c0-1.116-1.032-1.488-1.992-1.776-.828-.252-1.596-.48-1.596-1.068v-.024c0-.516.468-.9 1.2-.9.6 0 1.26.228 1.836.6l.42-.696c-.636-.42-1.476-.684-2.232-.684-1.224 0-2.112.708-2.112 1.776v.024c0 1.14 1.08 1.476 2.052 1.752.816.228 1.548.468 1.548 1.092v.024c0 .6-.54.984-1.284.984-.732 0-1.476-.288-2.148-.792l-.468.66c.696.564 1.68.912 2.568.912zm6-.012c.444 0 .792-.096 1.116-.264v-.792c-.324.156-.588.216-.9.216-.624 0-1.044-.276-1.044-1.032v-3.624h1.968v-.816h-1.968v-1.872h-.924v1.872h-.864v.816h.864v3.744c0 1.26.756 1.752 1.752 1.752zm3.852-7.668v-1.02h-1.056v1.02h1.056zm-.072 7.56v-6.204h-.924V23h.924zm4.944.144c1.164 0 1.908-.504 2.532-1.2l-.588-.552c-.492.528-1.104.924-1.896.924-1.296 0-2.28-1.068-2.28-2.412v-.024c0-1.332.96-2.4 2.22-2.4.84 0 1.392.42 1.884.936l.612-.648c-.576-.612-1.308-1.104-2.484-1.104-1.812 0-3.18 1.488-3.18 3.24v.024c0 1.74 1.368 3.216 3.18 3.216zm6.108-.024c1.236 0 2.208-.684 2.208-1.86v-.024c0-1.116-1.032-1.488-1.992-1.776-.828-.252-1.596-.48-1.596-1.068v-.024c0-.516.468-.9 1.2-.9.6 0 1.26.228 1.836.6l.42-.696c-.636-.42-1.476-.684-2.232-.684-1.224 0-2.112.708-2.112 1.776v.024c0 1.14 1.08 1.476 2.052 1.752.816.228 1.548.468 1.548 1.092v.024c0 .6-.54.984-1.284.984-.732 0-1.476-.288-2.148-.792l-.468.66c.696.564 1.68.912 2.568.912zm7.932-.12l.996-2.22h4.572l.984 2.22h1.02l-3.828-8.46h-.888L266.374 23h.972zm5.196-3.084h-3.828l1.92-4.272 1.908 4.272zM277.426 23v-8.76h-.924V23h.924zm3.156 0v-8.76h-.924V23h.924zm6.852 0v-3.264h2.4L292.27 23h1.164l-2.58-3.432c1.32-.24 2.28-1.056 2.28-2.448v-.024c0-.66-.24-1.248-.648-1.656-.528-.528-1.356-.84-2.388-.84h-3.612V23h.948zm2.58-4.116h-2.58v-3.408h2.592c1.356 0 2.148.624 2.148 1.656v.024c0 1.08-.9 1.728-2.16 1.728zm6.072-3.444v-1.02h-1.056v1.02h1.056zm-.072 7.56v-6.204h-.924V23h.924zm4.896 1.944c.984 0 1.812-.276 2.364-.828.504-.504.792-1.236.792-2.196v-5.124h-.924v1.116c-.504-.672-1.26-1.248-2.424-1.248-1.476 0-2.916 1.116-2.916 2.928v.024c0 1.788 1.428 2.904 2.916 2.904 1.14 0 1.896-.588 2.436-1.308v.732c0 1.452-.888 2.208-2.256 2.208-.888 0-1.68-.276-2.388-.792l-.42.72c.828.576 1.788.864 2.82.864zm-.012-3.24c-1.152 0-2.148-.864-2.148-2.112v-.024c0-1.272.972-2.088 2.148-2.088 1.176 0 2.28.828 2.28 2.1v.024c0 1.248-1.104 2.1-2.28 2.1zM307.054 23v-3.552c0-1.164.792-1.944 1.86-1.944 1.092 0 1.716.72 1.716 1.872V23h.924v-3.852c0-1.476-.876-2.484-2.376-2.484-1.068 0-1.716.54-2.124 1.212V14.24h-.924V23h.924zm8.544.108c.444 0 .792-.096 1.116-.264v-.792c-.324.156-.588.216-.9.216-.624 0-1.044-.276-1.044-1.032v-3.624h1.968v-.816h-1.968v-1.872h-.924v1.872h-.864v.816h.864v3.744c0 1.26.756 1.752 1.752 1.752zm4.824.012c1.236 0 2.208-.684 2.208-1.86v-.024c0-1.116-1.032-1.488-1.992-1.776-.828-.252-1.596-.48-1.596-1.068v-.024c0-.516.468-.9 1.2-.9.6 0 1.26.228 1.836.6l.42-.696c-.636-.42-1.476-.684-2.232-.684-1.224 0-2.112.708-2.112 1.776v.024c0 1.14 1.08 1.476 2.052 1.752.816.228 1.548.468 1.548 1.092v.024c0 .6-.54.984-1.284.984-.732 0-1.476-.288-2.148-.792l-.468.66c.696.564 1.68.912 2.568.912zm8.628-.12v-3.264h2.4L333.886 23h1.164l-2.58-3.432c1.32-.24 2.28-1.056 2.28-2.448v-.024c0-.66-.24-1.248-.648-1.656-.528-.528-1.356-.84-2.388-.84h-3.612V23h.948zm2.58-4.116h-2.58v-3.408h2.592c1.356 0 2.148.624 2.148 1.656v.024c0 1.08-.9 1.728-2.16 1.728zm7.704 4.26c1.176 0 1.932-.468 2.556-1.164l-.576-.516c-.504.528-1.104.876-1.956.876-1.104 0-2.052-.756-2.184-2.1h4.92c.012-.108.012-.18.012-.3 0-1.812-1.056-3.276-2.892-3.276-1.716 0-2.976 1.44-2.976 3.228v.024c0 1.92 1.392 3.228 3.096 3.228zm1.836-3.588h-3.996c.12-1.212.936-2.112 2.016-2.112 1.236 0 1.884.984 1.98 2.112zm4.608 3.564c1.236 0 2.208-.684 2.208-1.86v-.024c0-1.116-1.032-1.488-1.992-1.776-.828-.252-1.596-.48-1.596-1.068v-.024c0-.516.468-.9 1.2-.9.6 0 1.26.228 1.836.6l.42-.696c-.636-.42-1.476-.684-2.232-.684-1.224 0-2.112.708-2.112 1.776v.024c0 1.14 1.08 1.476 2.052 1.752.816.228 1.548.468 1.548 1.092v.024c0 .6-.54.984-1.284.984-.732 0-1.476-.288-2.148-.792l-.468.66c.696.564 1.68.912 2.568.912zm6.636.024c1.176 0 1.932-.468 2.556-1.164l-.576-.516c-.504.528-1.104.876-1.956.876-1.104 0-2.052-.756-2.184-2.1h4.92c.012-.108.012-.18.012-.3 0-1.812-1.056-3.276-2.892-3.276-1.716 0-2.976 1.44-2.976 3.228v.024c0 1.92 1.392 3.228 3.096 3.228zm1.836-3.588h-3.996c.12-1.212.936-2.112 2.016-2.112 1.236 0 1.884.984 1.98 2.112zM357.73 23v-2.472c0-1.872 1.104-2.844 2.46-2.844h.072v-.996c-1.176-.048-2.076.696-2.532 1.728v-1.62h-.924V23h.924zm6.828.048l2.7-6.252h-.996l-2.1 5.148-2.088-5.148h-1.02l2.688 6.252h.816zm6.864.096c1.176 0 1.932-.468 2.556-1.164l-.576-.516c-.504.528-1.104.876-1.956.876-1.104 0-2.052-.756-2.184-2.1h4.92c.012-.108.012-.18.012-.3 0-1.812-1.056-3.276-2.892-3.276-1.716 0-2.976 1.44-2.976 3.228v.024c0 1.92 1.392 3.228 3.096 3.228zm1.836-3.588h-3.996c.12-1.212.936-2.112 2.016-2.112 1.236 0 1.884.984 1.98 2.112zm5.16 3.576c1.14 0 1.872-.636 2.376-1.38V23h.924v-8.76h-.924v3.744c-.48-.696-1.224-1.32-2.376-1.32-1.488 0-2.964 1.2-2.964 3.228v.024c0 2.04 1.476 3.216 2.964 3.216zm.168-.828c-1.164 0-2.184-.936-2.184-2.4v-.024c0-1.5.984-2.388 2.184-2.388 1.152 0 2.244.96 2.244 2.388v.024c0 1.428-1.092 2.4-2.244 2.4zm6.192.696v-1.26h-1.104V23h1.104z" transform="translate(.684)"/>
        <g>
            <g fill="#000">
                <path d="M2.895 8.858c-.25 0-.658.034-.87.403V.24h-.791C.457.242.027.617.024 1.32v9.12H5.02c.707-.002 1.199-.362 1.199-1.04v-.542H2.895z" transform="translate(.684) translate(.158) translate(43.01 14.516)"/>
                <g>
                    <path d="M33.33.495h-5.158c-.556 0-.946.33-.949.86v.87h2.18v6.286h.764c.607-.006.946-.301.946-.858V2.226h1.263c.557 0 .947-.33.955-.858V.495M23.841.258c-1.233 0-2.545.798-2.545 2.28 0 1.255.927 1.822 1.833 2.212l.782.352c.788.328 1.078.632 1.078 1.118 0 .597-.46 1.049-1.075 1.049h-.11c-.369 0-.785-.032-1.051-.425l-.025-.032c-.09-.127-.446-.643-1.14-.675l-.532.11.033.296c.174 1.301 1.3 2.21 2.747 2.21 1.605 0 2.774-1.065 2.774-2.533 0-1.588-1.185-2.236-2.072-2.586l-.801-.341c-.737-.285-.82-.565-.82-.753 0-.43.467-.717.906-.717.263 0 .457.04.62.169l.009.005c.053.051.352.231.78.231.15 0 .316-.021.496-.08l.509-.285-.167-.296C25.594.72 24.804.258 23.84.258M47.841.258c-1.233 0-2.545.798-2.545 2.28 0 1.255.927 1.822 1.833 2.212l.782.352c.788.328 1.078.632 1.078 1.118 0 .597-.46 1.049-1.075 1.049h-.11c-.369 0-.785-.032-1.051-.425l-.025-.032c-.09-.127-.446-.643-1.14-.675l-.532.11.033.296c.174 1.301 1.3 2.21 2.747 2.21 1.605 0 2.774-1.065 2.774-2.533 0-1.588-1.185-2.236-2.072-2.586l-.801-.341c-.737-.285-.82-.565-.82-.753 0-.43.467-.717.906-.717.263 0 .457.04.62.169l.009.005c.05.051.352.231.78.231.15 0 .316-.021.496-.08l.509-.285-.167-.296C49.594.72 48.804.258 47.84.258M4.366 7.062c-1.46 0-2.393-1.046-2.393-2.538 0-1.597 1.01-2.583 2.393-2.583 1.379 0 2.376 1.094 2.376 2.583 0 1.6-.917 2.538-2.376 2.538m.018-6.82C1.804.242.196 2.33.196 4.524c0 2.204 1.715 4.242 4.183 4.242 2.47 0 4.14-1.97 4.14-4.242C8.516 2.422 6.962.242 4.384.242M20.237.495h-.831c-.554 0-.94.4-.944.93V8.51h.831c.306 0 .54-.073.699-.215.159-.14.245-.352.245-.63V.496M35.892.495h-.83c-.554 0-.941.4-.944.93V8.51h.83c.307 0 .541-.073.7-.215.158-.14.244-.352.244-.63V.496M13.551 8.74c1.36-.003 2.427-.45 3.272-1.745.492-.761.572-1.887.572-2.53 0-.247-.01-.422-.019-.478h-2.164c-.298 0-.604.075-.836.22-.23.145-.387.358-.387.634v.581h1.766v.035c0 .172-.03.594-.322.973-.293.38-.85.715-1.89.715-.629 0-1.24-.215-1.696-.664-.455-.449-.753-1.129-.753-2.056 0-.68.22-1.323.63-1.793.405-.468 1.018-.772 1.768-.774.661 0 .99.145 1.234.293.247.145.403.287.734.287.333 0 .6-.134.79-.277.18-.134.293-.274.35-.33C15.883.806 14.851.27 13.502.266c-2.538.006-4.188 1.758-4.191 4.159.008 2.4 1.707 4.309 4.24 4.314zM41.274.255c-2.39 0-4.132 1.887-4.132 4.275 0 2.387 1.742 4.217 4.132 4.217 1.325 0 2.58-.594 3.406-1.631-.086-.084-.314-.576-1.086-.576-.723 0-.887.726-2.32.726-1.406 0-2.572-1.19-2.572-2.74 0-1.548 1.164-2.795 2.572-2.795 1.28 0 1.586.76 2.245.76.661 0 1.043-.526 1.134-.61C43.823.853 42.6.256 41.274.256" transform="translate(.684) translate(.158) translate(43.01 14.516) translate(6.183)"/>
                </g>
            </g>
            <path fill="#E02636" d="M27.938 26.637c-.591-4.462-2.787-8.102-5.032-8.118-2.245 0-5.527 3.642-7.438 8.126-1.912 4.484.252 8.118 5.059 8.118 4.839-.05 8.003-3.655 7.411-8.126" transform="translate(.684) translate(.158)"/>
            <path fill="#000" d="M5.016 14.758c-2.87 0-4.965 2.269-4.965 5.14 0 2.87 2.094 5.072 4.965 5.072 1.597 0 3.105-.715 4.102-1.962-.107-.102-.384-.688-1.309-.688-.87 0-1.07.874-2.793.874-1.688 0-3.091-1.433-3.091-3.293 0-1.863 1.4-3.36 3.091-3.36 1.54 0 1.909.916 2.702.916.793 0 1.255-.634 1.363-.734-.995-1.247-2.468-1.965-4.065-1.965M15.142 15.056h-4.034c-.683 0-1.16.41-1.16 1.06v.596h1.8s.067 6.078-.009 6.734v.003c-.024.5-.242 1.702-1.398 2.245-.949.446-.96.87-1.008 1.53.014.048.033.077.062.077h.006c.005 0 .008 0 .01-.003.035-.008.944-.23 1.076-.287l-.003-.003c.852-.266 2.158-.85 2.78-2.06 0 0 .583-.897.572-2.822V16.71h.086c.683 0 1.229-.409 1.229-1.062v-.592" transform="translate(.684) translate(.158)"/>
            <path fill="#EA8B00" d="M35.954 11.86c-4.21-1.656-8.462-1.481-9.548.479-1.06 1.989.51 6.588 3.508 10.433 2.992 3.844 7.22 3.715 9.551-.49 2.307-4.19.688-8.771-3.51-10.422" transform="translate(.684) translate(.158)"/>
            <path fill="#007AC3" d="M14.551 13.202c3.737 2.55 7.92 3.322 9.4 1.666 1.495-1.666.98-6.54-1.083-10.957-2.062-4.414-6.215-5.23-9.422-1.65-3.166 3.575-2.62 8.398 1.105 10.94" transform="translate(.684) translate(.158)"/>
        </g>
    </g>
</svg>
