<svg xmlns="http://www.w3.org/2000/svg" width="60" height="60" viewBox="0 0 60 60">
    <g fill="none" fill-rule="evenodd">
        <path d="M0 0H32V32H0z" opacity=".3" transform="translate(14 14)"/>
        <path fill="#8B919C" d="M27 26c.552 0 1 .448 1 1s-.448 1-1 1H5c-.552 0-1-.448-1-1s.448-1 1-1h22zM8 11c.552 0 1 .448 1 1v11c0 .552-.448 1-1 1H6c-.552 0-1-.448-1-1V12c0-.552.448-1 1-1h2zm6-7c.552 0 1 .448 1 1v18c0 .552-.448 1-1 1h-2c-.552 0-1-.448-1-1V5c0-.552.448-1 1-1h2zm6 4c.552 0 1 .448 1 1v14c0 .552-.448 1-1 1h-2c-.552 0-1-.448-1-1V9c0-.552.448-1 1-1h2zm6 6c.552 0 1 .448 1 1v8c0 .552-.448 1-1 1h-2c-.552 0-1-.448-1-1v-8c0-.552.448-1 1-1h2z" transform="translate(14 14)"/>
    </g>
</svg>
