<svg xmlns="http://www.w3.org/2000/svg" width="60" height="60" viewBox="0 0 60 60">
    <g fill="none" fill-rule="evenodd">
        <g>
            <g>
                <g>
                    <g>
                        <path d="M0 0H60V60H0z" transform="translate(-1134 -638) translate(124 628) translate(825) translate(185 10)"/>
                        <path fill="#45474E" fill-rule="nonzero" d="M20 12c1.054 0 1.918.816 1.995 1.85L22 14v2h10v-2c0-1.054.816-1.918 1.85-1.995L34 12h2c1.054 0 1.918.816 1.995 1.85L38 14v2c0 .034 0 .067-.002.1 2.211.447 3.894 2.355 3.997 4.674L42 21v11h2c.513 0 .936.386.993.883L45 33v3h1.006c1.054 0 1.908.816 1.984 1.85l.006.15c0 .13-.013.26-.038.386l-.046.189-2.177 7.287c-.362 1.209-1.439 2.054-2.685 2.132l-.188.006h-15.3c-1.317 0-2.472-.857-2.862-2.1l-.049-.172L24.22 44H17c-2.689 0-4.882-2.122-4.995-4.783L12 39V21c0-2.42 1.72-4.438 4.003-4.9L16 16v-2c0-1.054.816-1.918 1.85-1.995L18 12h2zm26.006 26h-6.388l-.447.894c-.315.63-.934 1.044-1.628 1.1l-.161.006H25.281l1.31 5.243c.102.408.447.704.857.75l.114.007h15.3c.401 0 .76-.24.917-.6l.04-.113L46.007 38zm-17.07 3c.552 0 1 .448 1 1s-.448 1-1 1-1-.448-1-1 .448-1 1-1zm3 0c.552 0 1 .448 1 1s-.448 1-1 1-1-.448-1-1 .448-1 1-1zm3 0c.552 0 1 .448 1 1s-.448 1-1 1-1-.448-1-1 .448-1 1-1zm3 0c.552 0 1 .448 1 1s-.448 1-1 1-1-.448-1-1 .448-1 1-1zM40 32v-6H14v13c0 1.598 1.249 2.904 2.824 2.995L17 42h6.719l-.379-1.515c-.267-1.072.384-2.157 1.456-2.425.067-.017.135-.03.203-.04L25 34c0-.513.386-.936.883-.993L26 33h1v-2h-1v-1h1v-1h2v1h1v1h-1v2h1c.513 0 .936.386.993.883L31 34v4h1v-4c0-.049.003-.096.01-.143H32V30c0-.513.386-.936.883-.993L33 29h5c.513 0 .936.386.993.883L39 30v2h1zm-11 3h-2v3h2v-3zm8 0h-3v3h3v-3zm-8.5 1c.245 0 .45.177.492.41l.007.09-.007.09c-.042.233-.247.41-.492.41-.276 0-.5-.224-.5-.5s.224-.5.5-.5zM43 34h-4v2.098c.147-.048.301-.08.459-.092l.159-.006h3.381L43 34zm-6-3h-3v2h3v-2zm0-13H17c-1.598 0-2.904 1.249-2.995 2.824L14 21v3h26v-3c0-1.598-1.249-2.904-2.824-2.995L37 18zm-17-4h-2v2h2v-2zm16 0h-2v2h2v-2z" transform="translate(-1134 -638) translate(124 628) translate(825) translate(185 10)"/>
                    </g>
                </g>
            </g>
        </g>
    </g>
</svg>
