<svg xmlns="http://www.w3.org/2000/svg" xmlns:xlink="http://www.w3.org/1999/xlink" width="24" height="24" viewBox="0 0 24 24">
    <defs>
        <path id="prefix__a" d="M13.5 4c.828 0 1.5.672 1.5 1.5V7h1.379c.398 0 .779.158 1.06.44l3.122 3.12c.281.282.439.663.439 1.061V15h.25c.414 0 .75.336.75.75v.5c0 .414-.336.75-.75.75H20c0 1.657-1.343 3-3 3s-3-1.343-3-3h-4c0 1.657-1.343 3-3 3s-3-1.343-3-3H2.75c-.414 0-.75-.336-.75-.75v-4.695h2L5.333 10 2 9.999V8.222h4.667L8 6.667l-6-.001V5.5C2 4.672 2.672 4 3.5 4h10zM17 15.5c-.827 0-1.5.673-1.5 1.5s.673 1.5 1.5 1.5 1.5-.673 1.5-1.5-.673-1.5-1.5-1.5zm-10 0c-.827 0-1.5.673-1.5 1.5s.673 1.5 1.5 1.5 1.5-.673 1.5-1.5-.673-1.5-1.5-1.5zm9.379-7H15V12h4.5v-.379L16.379 8.5z"/>
    </defs>
    <g fill="none" fill-rule="evenodd">
        <path d="M0 0H24V24H0z"/>
        <use fill="#0080C6" xlink:href="#prefix__a"/>
    </g>
</svg>
