<svg xmlns="http://www.w3.org/2000/svg" width="24" height="24" viewBox="0 0 24 24">
    <g fill="none" fill-rule="evenodd">
        <g fill="#575960">
            <path fill-rule="nonzero" d="M12 0c1.105 0 2 .895 2 2v12c0 1.105-.895 2-2 2H2c-1.105 0-2-.895-2-2V2C0 .895.895 0 2 0h10zm0 1.2H2c-.408 0-.744.305-.794.7L1.2 2v12c0 .408.305.744.7.794l.1.006h10c.408 0 .744-.305.794-.7l.006-.1V2c0-.408-.305-.744-.7-.794L12 1.2zM8.443 11.9c.23 0 .557.269.557.6 0 .312-.306.568-.517.597l-.04.003H4.579c-.23 0-.579-.269-.579-.6 0-.312.327-.568.539-.597l.04-.003h3.864zm-.917-2c.184 0 .474.269.474.6 0 .312-.273.568-.442.597l-.032.003h-3.03c-.185 0-.496-.269-.496-.6 0-.312.294-.568.463-.597l.032-.003h3.03z" transform="translate(5 4)"/>
            <path d="M9 6.5C9 7.88 7.88 9 6.5 9S4 7.88 4 6.5c0-1.318 1.02-2.398 2.313-2.493L6.5 4v2.5H9zM7.8 2.7c1.318 0 2.398 1.02 2.493 2.314l.007.186H7.8V2.7z" transform="translate(5 4)"/>
        </g>
    </g>
</svg>
