<svg xmlns="http://www.w3.org/2000/svg" width="60" height="60" viewBox="0 0 60 60">
    <g fill="none" fill-rule="evenodd">
        <path d="M0 0H60V60H0z"/>
        <path fill="#FFF" fill-rule="nonzero" d="M17 28c1.657 0 3 1.343 3 3v14c0 1.657-1.343 3-3 3h-2c-1.657 0-3-1.343-3-3V31c0-1.657 1.343-3 3-3zm14-16c1.657 0 3 1.343 3 3v30c0 1.657-1.343 3-3 3h-2c-1.657 0-3-1.343-3-3V15c0-1.657 1.343-3 3-3zm14 8c1.657 0 3 1.343 3 3v22c0 1.657-1.343 3-3 3h-2c-1.657 0-3-1.343-3-3V23c0-1.657 1.343-3 3-3zM17 30h-2c-.552 0-1 .448-1 1v14c0 .552.448 1 1 1h2c.552 0 1-.448 1-1V31c0-.552-.448-1-1-1zm14-16h-2c-.552 0-1 .448-1 1v30c0 .552.448 1 1 1h2c.552 0 1-.448 1-1V15c0-.552-.448-1-1-1zm14 8h-2c-.552 0-1 .448-1 1v22c0 .552.448 1 1 1h2c.552 0 1-.448 1-1V23c0-.552-.448-1-1-1z"/>
    </g>
</svg>
