<svg xmlns="http://www.w3.org/2000/svg" width="100" height="100" viewBox="0 0 100 100">
    <g fill="none" fill-rule="evenodd">
        <path d="M0 0H100V100H0z"/>
        <path fill="#FFF" fill-rule="nonzero" d="M61.5 24c1.869 0 3.395 1.464 3.495 3.308L65 27.5V33h11.5c.451 0 .876.203 1.16.548l.088.12 8.037 12.058.065.12.052.12c.075.19.106.385.1.576L86 65.5c0 1.869-1.464 3.395-3.308 3.495L82.5 69h-3.632c-.709 3.98-4.186 7-8.368 7s-7.66-3.02-8.368-7H38.868c-.709 3.98-4.186 7-8.368 7s-7.66-3.02-8.368-7H17.5c-1.869 0-3.395-1.464-3.495-3.308L14 65.5v-32c0-5.156 4.108-9.353 9.23-9.496L23.5 24h38zm-31 38l-.221.004C27.344 62.12 25 64.537 25 67.5c0 3.038 2.462 5.5 5.5 5.5s5.5-2.462 5.5-5.5c0-2.963-2.344-5.38-5.279-5.496L30.5 62zm40 0l-.221.004c-.406.016-.8.076-1.178.175-.21.056-.417.123-.617.202l-.22.093-.162.075C66.266 63.439 65 65.322 65 67.5c0 3.038 2.462 5.5 5.5 5.5s5.5-2.462 5.5-5.5c0-2.963-2.344-5.38-5.279-5.496L70.5 62zm-9-35h-38c-3.512 0-6.373 2.785-6.496 6.267L17 33.5v32c0 .245.177.45.41.492l.09.008h4.632c.081-.457.2-.9.35-1.329l.048-.13.122-.312.104-.238.09-.191.11-.221.118-.217.132-.228.125-.202.184-.277.213-.292.18-.23c.128-.157.261-.309.4-.455.147-.157.3-.309.46-.454l.256-.225.283-.228.241-.18.324-.222.192-.121.319-.186.356-.187.395-.182.457-.182.23-.08.398-.121.236-.062.326-.074.266-.05.305-.047.376-.042c.254-.023.512-.035.772-.035.175 0 .35.005.522.016l.432.037.332.044.333.057.212.044.362.088.378.11.376.129.42.168.317.144.232.117.342.188.23.138.167.107.222.15c.157.11.31.226.459.346.081.066.162.133.24.202.223.194.432.396.63.608l.201.222.2.238.169.214.228.316.148.222.102.162.2.343.183.354.188.412.108.265c.074.192.141.388.202.586.09.295.163.597.22.904l.013.068L62 66V27.5c0-.215-.135-.398-.326-.469l-.084-.023L61.5 27zm7.017 32.233l.223-.05.201-.04.294-.05.392-.049.12-.011.31-.022-.132.008c.19-.013.382-.019.575-.019.175 0 .35.005.522.016l.432.037.332.044.333.057.212.044.362.088.378.11.376.129.309.12.35.155.31.154.342.188.23.138.167.107.222.15c.157.11.31.226.459.346.081.066.162.133.24.202.218.19.423.386.617.593l.203.223.212.252.168.214.228.316.148.222.102.162.2.343.242.476.13.29.107.265c.074.192.141.388.202.586.09.295.163.597.22.904l.013.068L82.5 66c.215 0 .398-.135.469-.326l.023-.084.008-.09V48H65v13.019l.105-.087.325-.254.227-.164.283-.188.274-.168c.17-.1.345-.194.523-.282l.299-.14.298-.127.362-.135.271-.09c.18-.057.364-.107.55-.151zM75.696 36H65v9h16.696l-6-9z"/>
    </g>
</svg>
