<svg xmlns="http://www.w3.org/2000/svg" width="60" height="60" viewBox="0 0 60 60">
    <g fill="none" fill-rule="evenodd">
        <path d="M0 0H32V32H0z" opacity=".3" transform="translate(14 14)"/>
        <path fill="#8B919C" d="M9 6c0 1.105.895 2 2 2h10c1.105 0 2-.895 2-2h3c1.105 0 2 .895 2 2v18c0 1.105-.895 2-2 2H6c-1.105 0-2-.895-2-2V8c0-1.105.895-2 2-2zm7 5c-.552 0-1 .448-1 1l-.001 1.051c-.3.035-.586.087-.858.157-.542.14-1.008.338-1.4.597-.39.26-.694.567-.91.923-.217.357-.326.757-.326 1.201v.028l.006.201c.025.394.122.73.292 1.007.199.324.479.594.84.812.36.217.8.4 1.317.548.518.148 1.095.282 1.733.403.53.102.96.199 1.29.291.332.093.59.185.777.278.186.092.313.192.379.298.066.107.1.23.1.368v.028l-.008.105c-.035.237-.192.427-.471.568-.202.103-.455.173-.76.21V21h-1.78c-.277-.051-.543-.122-.8-.212-.607-.213-1.2-.5-1.777-.86L11 21.44l.288.192c.682.432 1.428.759 2.24.982.485.133.976.232 1.472.295V24c0 .552.448 1 1 1s1-.448 1-1l.001-1.025c.44-.03.853-.09 1.237-.181.566-.134 1.053-.329 1.462-.583.41-.255.728-.57.957-.944.229-.375.343-.803.343-1.284v-.028l-.007-.208c-.025-.338-.11-.634-.255-.889-.174-.305-.433-.571-.776-.798-.343-.227-.764-.421-1.263-.583-.5-.162-1.068-.308-1.706-.437-.542-.111-.99-.208-1.345-.292-.355-.083-.635-.171-.84-.264-.204-.092-.345-.196-.424-.312-.078-.116-.117-.252-.117-.41v-.027l.008-.1c.034-.198.166-.365.398-.504.093-.056.202-.101.327-.131l1.956-.002c.187.039.374.088.56.147.542.171 1.095.405 1.66.7l1.445-1.61-.33-.19c-.56-.307-1.162-.548-1.81-.726-.465-.128-.959-.217-1.48-.268L17 12c0-.552-.448-1-1-1zm4-7c.552 0 1 .448 1 1s-.448 1-1 1h-8c-.552 0-1-.448-1-1s.448-1 1-1h8z" transform="translate(14 14)"/>
    </g>
</svg>
