<svg xmlns="http://www.w3.org/2000/svg" xmlns:xlink="http://www.w3.org/1999/xlink" width="42" height="38" viewBox="0 0 42 38">
    <defs>
        <linearGradient id="prefix__a" x1="50%" x2="50%" y1="66.502%" y2="100%">
            <stop offset="0%" stop-opacity="0"/>
            <stop offset="42.234%" stop-opacity=".284"/>
            <stop offset="100%"/>
        </linearGradient>
        <filter id="prefix__b" width="117.3%" height="138.7%" x="-8.7%" y="-19.3%" filterUnits="objectBoundingBox">
            <feOffset in="SourceAlpha" result="shadowOffsetOuter1"/>
            <feGaussianBlur in="shadowOffsetOuter1" result="shadowBlurOuter1" stdDeviation=".5"/>
            <feColorMatrix in="shadowBlurOuter1" values="0 0 0 0 0 0 0 0 0 0 0 0 0 0 0 0 0 0 0.5 0"/>
        </filter>
        <path id="prefix__c" d="M14.048 20l.704-1.727h3.256L18.712 20h1.771l-3.3-7.755h-1.562L12.321 20h1.727zm3.355-3.223h-2.046l1.023-2.497 1.023 2.497zM23.167 20v-2.178c0-.711.16-1.236.478-1.573.32-.337.758-.506 1.315-.506h.088v-1.749c-.499-.022-.895.088-1.188.33-.293.242-.524.565-.693.968v-1.188h-1.672V20h1.672zm4.598 0v-2.178c0-.711.16-1.236.479-1.573.319-.337.757-.506 1.314-.506h.088v-1.749c-.499-.022-.895.088-1.188.33-.293.242-.524.565-.693.968v-1.188h-1.672V20h1.672z"/>
    </defs>
    <g fill="none" fill-rule="evenodd">
        <path fill="url(#prefix__a)" d="M21 38c14-8.017 21-14.75 21-20.2C42 9.626 32.598 4 21 4S0 9.626 0 17.8C0 23.25 7 29.983 21 38z" opacity=".6"/>
        <path fill="#FF9700" stroke="#FA7600" d="M21 .5c-4.28 0-8.155 1.735-10.96 4.54C7.235 7.845 5.5 11.72 5.5 16c0 5.745 5.23 12.846 15.499 21.35C31.269 28.848 36.5 21.747 36.5 16c0-4.28-1.735-8.155-4.54-10.96C29.155 2.235 25.28.5 21 .5z"/>
        <g fill-rule="nonzero">
            <use fill="#000" filter="url(#prefix__b)" xlink:href="#prefix__c"/>
            <use fill="#FFF" xlink:href="#prefix__c"/>
        </g>
    </g>
</svg>
