<svg xmlns="http://www.w3.org/2000/svg" xmlns:xlink="http://www.w3.org/1999/xlink" width="30" height="26" viewBox="0 0 30 26">
    <defs>
        <path id="prefix__d" d="M2.827.974c.246.447.244.931-.004 1.082l-.008.004-1.084.612-.092-.75-.47-.641-.376-.137 1.14-.707c.248-.15.649.09.894.537z"/>
        <path id="prefix__f" d="M2.827.974c.246.447.244.931-.004 1.082l-.008.004-1.084.612-.092-.75-.47-.641-.376-.137 1.14-.707c.248-.15.649.09.894.537z"/>
        <path id="prefix__h" d="M1.642 10.34l.058-.001.05.366c-.126.035-.259.054-.396.054-.609 0-1.122-.369-1.283-.874.102-.232.231-.469.38-.706.025.646.549 1.161 1.191 1.161z"/>
        <path id="prefix__j" d="M5.14 9.036c.08 0 .144.064.144.144v.18c0 .079-.065.143-.144.143h-.01c-.079 0-.143-.064-.143-.144v-.18c0-.079.064-.143.144-.143h.009zm.519-.312c.08 0 .144.065.144.144v.18c0 .08-.065.144-.144.144h-.01c-.079 0-.143-.065-.143-.144v-.18c0-.08.064-.144.144-.144h.009zm.519-.311c.08 0 .144.064.144.143v.18c0 .08-.065.144-.144.144h-.009c-.08 0-.144-.064-.144-.144v-.18c0-.079.065-.143.144-.143h.009zm.519-.312c.08 0 .144.064.144.144v.18c0 .079-.065.143-.144.143h-.009c-.08 0-.144-.064-.144-.143v-.18c0-.08.065-.144.144-.144h.009zm.519-.312c.08 0 .144.065.144.144v.18c0 .08-.065.144-.144.144h-.009c-.08 0-.144-.065-.144-.144v-.18c0-.08.065-.144.144-.144h.009zm.52-.311c.079 0 .143.064.143.144v.18c0 .079-.064.143-.144.143h-.009c-.08 0-.144-.064-.144-.144v-.18c0-.079.065-.143.144-.143h.01zm.518-.312c.08 0 .144.065.144.144v.18c0 .08-.064.144-.144.144h-.009c-.08 0-.144-.065-.144-.144v-.18c0-.08.065-.144.144-.144h.01zm.52-.311c.079 0 .143.064.143.144v.18c0 .079-.064.143-.144.143h-.009c-.08 0-.144-.064-.144-.144v-.18c0-.079.065-.143.144-.143h.01zm.518-.312c.08 0 .144.065.144.144v.18c0 .08-.064.144-.144.144h-.009c-.08 0-.144-.065-.144-.144v-.18c0-.08.065-.144.144-.144h.01zm.52-.311c.079 0 .143.064.143.143v.18c0 .08-.064.144-.144.144h-.009c-.08 0-.144-.064-.144-.144v-.18c0-.08.065-.143.144-.143h.01zm.518-.312c.08 0 .144.064.144.144v.18c0 .079-.064.143-.144.143h-.009c-.08 0-.143-.064-.143-.143v-.18c0-.08.064-.144.143-.144h.01zm.52-.312c.079 0 .143.065.143.144v.18c0 .08-.064.144-.144.144h-.009c-.079 0-.143-.065-.143-.144v-.18c0-.08.064-.144.143-.144h.01zm.518-.311c.08 0 .144.064.144.144v.18c0 .079-.064.143-.144.143h-.009c-.079 0-.143-.064-.143-.144v-.18c0-.079.064-.143.143-.143h.01zm.52-.312c.079 0 .143.065.143.144v.18c0 .08-.064.144-.144.144h-.009c-.079 0-.143-.065-.143-.144v-.18c0-.08.064-.144.143-.144h.01zm.519-.311c.079 0 .143.064.143.143v.18c0 .08-.064.144-.143.144h-.01c-.079 0-.143-.064-.143-.144v-.18c0-.079.064-.143.144-.143h.009zm1.557-.935c.08 0 .143.064.143.144v.18c0 .079-.064.143-.143.143h-.01c-.079 0-.143-.064-.143-.144v-.18c0-.079.064-.143.144-.143h.009zm.519-.312c.08 0 .143.065.143.144v.18c0 .08-.064.144-.143.144h-.01c-.079 0-.143-.065-.143-.144v-.18c0-.08.064-.144.144-.144h.009zm.519-.311c.08 0 .144.064.144.144v.18c0 .079-.065.143-.144.143h-.01c-.079 0-.143-.064-.143-.144v-.18c0-.079.064-.143.144-.143h.009zm.519-.312c.08 0 .144.065.144.144v.18c0 .08-.065.144-.144.144h-.01c-.079 0-.143-.065-.143-.144v-.18c0-.08.064-.144.144-.144h.009zm.519-.311c.08 0 .144.064.144.143v.18c0 .08-.065.144-.144.144h-.01c-.079 0-.143-.064-.143-.144v-.18c0-.079.064-.143.144-.143h.009zm.519-.312c.08 0 .144.064.144.144v.18c0 .079-.065.143-.144.143h-.01c-.079 0-.143-.064-.143-.143v-.18c0-.08.064-.144.144-.144h.009zm.519-.312c.08 0 .144.065.144.144v.18c0 .08-.065.144-.144.144h-.01c-.078 0-.143-.065-.143-.144v-.18c0-.08.065-.144.144-.144h.009zm.519-.311c.08 0 .144.064.144.144v.18c0 .079-.065.143-.144.143h-.009c-.08 0-.144-.064-.144-.144v-.18c0-.079.065-.143.144-.143h.009zm.519-.312c.08 0 .144.065.144.144v.18c0 .08-.065.144-.144.144h-.009c-.08 0-.144-.065-.144-.144v-.18c0-.08.065-.144.144-.144h.009zm.52-.311c.078 0 .143.064.143.144v.18c0 .079-.065.143-.144.143h-.009c-.08 0-.144-.064-.144-.144v-.18c0-.079.065-.143.144-.143h.01zm.518-.312c.08 0 .144.065.144.144v.18c0 .08-.064.144-.144.144h-.009c-.08 0-.144-.065-.144-.144v-.18c0-.08.065-.144.144-.144h.01zm.52-.311c.079 0 .143.064.143.143v.18c0 .08-.064.144-.144.144h-.009c-.08 0-.144-.064-.144-.144v-.18c0-.079.065-.143.144-.143h.01zM20.191 0c.08 0 .144.064.144.144v.18c0 .079-.064.143-.144.143h-.009c-.08 0-.144-.064-.144-.143v-.18c0-.08.065-.144.144-.144h.01z"/>
        <path id="prefix__l" d="M7.436 0.156L7.213 0 5.795 0.89 6.018 1.046z"/>
        <path id="prefix__m" d="M0.222 10.002L0 9.846 5.795 0.89 6.018 1.046z"/>
        <path id="prefix__n" d="M6.018 1.046L7.436 0.156 5.115 7.373 0.222 10.002z"/>
        <path id="prefix__o" d="M19.441 5.427L19.441 5.194 0 3.221 0 3.533z"/>
        <linearGradient id="prefix__b" x1="80.994%" x2="34.186%" y1="77.457%" y2="9.357%">
            <stop offset="0%" stop-color="#BFBFBF"/>
            <stop offset="60.663%" stop-color="#E8E8E8"/>
            <stop offset="100%" stop-color="#9F9F9F"/>
        </linearGradient>
        <linearGradient id="prefix__c" x1="80.217%" x2="27.933%" y1="96.154%" y2="-2.295%">
            <stop offset="0%" stop-color="#BFBFBF"/>
            <stop offset="52.185%" stop-color="#F7F7F7"/>
            <stop offset="68%" stop-color="#E9E9E9"/>
            <stop offset="100%" stop-color="#9F9F9F"/>
        </linearGradient>
        <linearGradient id="prefix__e" x1="74.055%" x2="42.555%" y1="90.785%" y2="-2.536%">
            <stop offset="0%" stop-color="#A2A2A2"/>
            <stop offset="60.663%" stop-color="#D0D0D0"/>
            <stop offset="100%" stop-color="#929292"/>
        </linearGradient>
        <linearGradient id="prefix__g" x1="55.761%" x2="60.533%" y1="41.949%" y2="47.275%">
            <stop offset="0%" stop-color="#EEE" stop-opacity="0"/>
            <stop offset="100%" stop-color="#CECECE"/>
        </linearGradient>
        <filter id="prefix__a" width="107.6%" height="110%" x="-3.8%" y="-5%" filterUnits="objectBoundingBox">
            <feOffset dx="-.1" dy=".5" in="SourceAlpha" result="shadowOffsetOuter1"/>
            <feColorMatrix in="shadowOffsetOuter1" result="shadowMatrixOuter1" values="0 0 0 0 0 0 0 0 0 0 0 0 0 0 0 0 0 0 0.2 0"/>
            <feMerge>
                <feMergeNode in="shadowMatrixOuter1"/>
                <feMergeNode in="SourceGraphic"/>
            </feMerge>
        </filter>
        <filter id="prefix__i" width="100%" height="100%" x="0%" y="0%" filterUnits="objectBoundingBox">
            <feOffset in="SourceAlpha" result="shadowOffsetInner1"/>
            <feComposite in="shadowOffsetInner1" in2="SourceAlpha" k2="-1" k3="1" operator="arithmetic" result="shadowInnerInner1"/>
            <feColorMatrix in="shadowInnerInner1" values="0 0 0 0 0 0 0 0 0 0 0 0 0 0 0 0 0 0 0.4 0"/>
        </filter>
        <filter id="prefix__k" width="100%" height="100%" x="0%" y="0%" filterUnits="objectBoundingBox">
            <feOffset in="SourceAlpha" result="shadowOffsetInner1"/>
            <feComposite in="shadowOffsetInner1" in2="SourceAlpha" k2="-1" k3="1" operator="arithmetic" result="shadowInnerInner1"/>
            <feColorMatrix in="shadowInnerInner1" values="0 0 0 0 0 0 0 0 0 0 0 0 0 0 0 0 0 0 0.2 0"/>
        </filter>
        <filter id="prefix__p" width="100%" height="100%" x="0%" y="0%" filterUnits="objectBoundingBox">
            <feOffset in="SourceAlpha" result="shadowOffsetOuter1"/>
            <feColorMatrix in="shadowOffsetOuter1" result="shadowMatrixOuter1" values="0 0 0 0 0 0 0 0 0 0 0 0 0 0 0 0 0 0 0.3 0"/>
            <feMerge>
                <feMergeNode in="shadowMatrixOuter1"/>
                <feMergeNode in="SourceGraphic"/>
            </feMerge>
        </filter>
    </defs>
    <g fill="none" fill-rule="evenodd">
        <path d="M2 0H32V26H2z" transform="translate(-2)"/>
        <g filter="url(#prefix__a)" transform="translate(-2) translate(0 1)">
            <g transform="translate(14.36 19.544)">
                <path fill="url(#prefix__b)" d="M3.954.417c.197.321.195.669-.004.777l-.006.003-.962.56-.073-.539-.378-.46L2.229.66 3.236.032c.199-.108.52.065.718.385z"/>
                <use fill="url(#prefix__c)" xlink:href="#prefix__d"/>
                <use fill="#E42F44" style="mix-blend-mode:multiply" xlink:href="#prefix__d"/>
                <path fill="url(#prefix__e)" d="M1.604 1.714c.251.457.262.948.026 1.107l-.012.009-.093.09-.06.046c.265-.161.274-.67.018-1.135-.256-.466-.68-.713-.945-.552l.153-.136.013-.007c.25-.135.648.12.9.578z"/>
                <circle cx="1.001" cy="2.123" r="1" fill="#D8D8D8" transform="rotate(-30 1.001 2.123)"/>
                <circle cx="1.006" cy="2.103" r="1" fill="#949599" transform="rotate(-30 1.006 2.103)"/>
                <path fill="#414045" d="M.845 1.33c.2.046.423.238.578.52.153.278.2.572.143.776-.192-.07-.4-.263-.551-.537-.128-.234-.188-.477-.178-.673z"/>
            </g>
            <g transform="translate(4.997 12.655)">
                <path fill="url(#prefix__b)" d="M3.954.417c.197.321.195.669-.004.777l-.006.003-.962.56-.073-.539-.378-.46L2.229.66 3.236.032c.199-.108.52.065.718.385z"/>
                <use fill="url(#prefix__c)" xlink:href="#prefix__f"/>
                <use fill="#E42F44" style="mix-blend-mode:multiply" xlink:href="#prefix__f"/>
                <path fill="url(#prefix__e)" d="M1.604 1.714c.251.457.262.948.026 1.107l-.012.009-.093.09-.06.046c.265-.161.274-.67.018-1.135-.256-.466-.68-.713-.945-.552l.153-.136.013-.007c.25-.135.648.12.9.578z"/>
                <circle cx="1.001" cy="2.123" r="1" fill="#D8D8D8" transform="rotate(-30 1.001 2.123)"/>
                <circle cx="1.006" cy="2.103" r="1" fill="#949599" transform="rotate(-30 1.006 2.103)"/>
                <path fill="#414045" d="M.845 1.33c.2.046.423.238.578.52.153.278.2.572.143.776-.192-.07-.4-.263-.551-.537-.128-.234-.188-.477-.178-.673z"/>
            </g>
            <g>
                <path fill="#E6EBF1" d="M0 0.431L0.737 0 4.198 3.27 1.286 4.676z" transform="translate(20.133 4.642)"/>
                <path fill="#979DA8" d="M0 0.431L0 0.619 1.212 4.909 1.286 4.676z" transform="translate(20.133 4.642)"/>
            </g>
            <g>
                <path fill="#E6EBF1" d="M0 0.542L0.924 0 8.317 9.001 3.58 11.898z" transform="translate(4.601 4.854)"/>
                <path fill="#979DA8" d="M0 0.542L0 0.776 3.507 12.218 3.58 11.898z" transform="translate(4.601 4.854)"/>
            </g>
            <g>
                <path fill="#FFF" d="M21.253 3.317l.036-.02c1.202-.705 5.512-2.075 6.144-.927.63 1.149-2.654 4.385-3.836 5.127l-.035.021-15.943 9.67-.036.021c-1.202.705-4.31 1.805-5.13.312-.821-1.493 1.64-3.77 2.822-4.512l.035-.022 15.943-9.67z" transform="translate(.06 4.737)"/>
                <path fill="#01213C" d="M27.433 2.37c.63 1.149-2.654 4.385-3.836 5.127l-.035.021-15.943 9.67-.036.021c-1.202.705-4.31 1.805-5.13.312-.116-.21-.166-.436-.165-.67.659 1.174 3.681-.012 4.878-.707l.035-.021 15.954-9.524.035-.022c1.074-.659 3.964-3.196 4.13-4.35.046.042.083.09.113.143z" transform="translate(.06 4.737)"/>
                <path fill="url(#prefix__g)" d="M27.44 3.131l-.05.142c-.556 1.44-2.847 3.63-3.793 4.224l-.035.021-15.943 9.67-.036.021c-1.003.588-3.332 1.451-4.553.854-.029-1.441 1.96-3.242 2.986-3.886l.036-.021 15.943-9.67.035-.021c.97-.568 3.955-1.567 5.41-1.334z" style="mix-blend-mode:multiply" opacity=".676" transform="translate(.06 4.737)"/>
                <g transform="translate(.06 4.737) translate(2.396 6.168)">
                    <use fill="#1E496E" xlink:href="#prefix__h"/>
                    <use fill="#000" filter="url(#prefix__i)" xlink:href="#prefix__h"/>
                    <g>
                        <use fill="#AEB3BE" xlink:href="#prefix__j"/>
                        <use fill="#000" filter="url(#prefix__k)" xlink:href="#prefix__j"/>
                    </g>
                </g>
            </g>
            <g transform="translate(20.923)">
                <use fill="#FFF" xlink:href="#prefix__l"/>
                <use fill="#E42F44" style="mix-blend-mode:multiply" xlink:href="#prefix__l"/>
                <use fill="#979DA8" xlink:href="#prefix__m"/>
                <use fill="#E42F44" style="mix-blend-mode:multiply" xlink:href="#prefix__m"/>
                <g>
                    <use fill="#D2D6DD" xlink:href="#prefix__n"/>
                    <use fill="#E42F44" style="mix-blend-mode:multiply" xlink:href="#prefix__n"/>
                </g>
            </g>
            <g transform="translate(10.03 16.273)">
                <path fill="#E6EBF1" d="M19.441 5.194L20.365 4.652 5.16 0 0 3.221z"/>
                <path fill="#FFF" d="M20.365 4.652L20.365 4.886 19.441 5.427 19.441 5.194z"/>
                <use fill="#979DA8" xlink:href="#prefix__o"/>
                <use fill="#D8D8D8" xlink:href="#prefix__o"/>
            </g>
            <g>
                <path fill="#E6EBF1" d="M6.936 2.619L7.671 2.17 2.099 0 0 1.961z" transform="translate(23.957 9.072)"/>
                <path fill="#FFF" d="M7.671 2.17L7.671 2.326 6.936 2.775 6.936 2.619z" transform="translate(23.957 9.072)"/>
                <path fill="#979DA8" d="M6.936 2.775L6.936 2.619 0 1.961 0 2.117z" transform="translate(23.957 9.072)"/>
            </g>
        </g>
        <g fill="#FFF" fill-rule="nonzero" filter="url(#prefix__p)" transform="translate(-2) rotate(-20 32.846 -60.78)">
            <path d="M.634 1.4c.059 0 .116.104.132.233.015.129-.067.232-.194.234-.126 0-.183-.105-.133-.234.05-.129.136-.234.195-.234zm-.203-.1v.017c0 .015-.01.025-.022.029l-.013.001v.156c0 .055-.015.081-.015.081-.013.028-.037.044-.058.054l-.02.008-.023.006-.001-.002v-.01c.002-.014.006-.024.026-.034.025-.013.033-.04.036-.056l.001-.019v-.184H.295V1.33c0-.015.008-.025.02-.029l.01-.001h.106zm.545-.092c.11.047.152.179.092.3-.061.12-.172.124-.25.014-.079-.111-.12-.243-.092-.3.028-.057.14-.062.25-.014zm-.81.083l.02.002c.034.005.064.025.086.055l-.008.008c-.006.006-.015.013-.028.013-.02 0-.03-.027-.07-.027-.045 0-.082.043-.082.097 0 .054.037.095.081.095.046 0 .05-.025.074-.025.024 0 .031.016.034.02-.026.035-.066.056-.108.056-.075 0-.13-.063-.13-.146 0-.075.046-.136.11-.146l.02-.002zm1.048 0v.26c.004-.008.011-.01.017-.012h.093v.016c0 .015-.009.025-.021.028l-.01.002H1.16v-.263c0-.016.008-.026.021-.03l.011-.001h.02zm.235 0l.022.002c.047.009.08.047.092.09l.004.018.001-.01c.008-.058.049-.1.109-.1.035 0 .062.016.08.046l-.008.01c-.005.003-.012.007-.021.007-.006 0-.01-.002-.013-.004l-.006-.004-.012-.006c-.006-.001-.012-.003-.02-.003-.02 0-.036.01-.047.023-.01.013-.017.032-.017.051 0 .027.008.047.02.06.01.01.02.015.032.018h.027c.018-.003.029-.011.035-.02.005-.007.007-.015.008-.02V1.44H1.69v-.017c0-.008.004-.014.01-.018.004-.003.01-.005.015-.006h.064v.014c0 .018-.002.05-.014.072-.023.038-.05.05-.086.05-.06 0-.101-.043-.11-.102v.012c-.009.06-.055.11-.119.11-.071 0-.121-.063-.121-.131 0-.061.038-.12.1-.131l.021-.002zm.498 0c.02 0 .038.009.05.025l.009.013.004.009-.013.008c-.005.002-.01.002-.013.002-.008 0-.014-.002-.017-.004l-.004-.002c-.004-.004-.01-.006-.016-.006-.012 0-.024.009-.024.021 0 .004.002.01.012.017l.03.015c.024.01.055.028.055.074 0 .042-.03.073-.073.073-.032 0-.059-.02-.068-.048l-.004-.016v-.008l.013-.003c.014 0 .023.009.027.015l.003.004c.006.01.013.012.021.013h.01c.016 0 .028-.013.028-.03 0-.011-.004-.019-.017-.026L1.93 1.42c-.024-.011-.048-.028-.048-.064 0-.043.034-.066.066-.066zm.63 0c.02 0 .037.009.05.025l.008.013.004.009-.013.008c-.005.002-.01.002-.013.002-.005 0-.01 0-.013-.002l-.008-.004c-.004-.004-.01-.006-.016-.006-.012 0-.024.009-.024.021 0 .004.001.01.012.017l.04.02c.022.01.045.03.045.07 0 .041-.031.072-.073.072-.032 0-.059-.02-.069-.048l-.003-.016v-.008l.013-.003c.014 0 .022.009.027.015l.003.004c.006.01.013.012.02.013h.011c.016 0 .028-.013.028-.03 0-.011-.005-.019-.017-.026l-.032-.016c-.023-.011-.048-.028-.048-.064 0-.043.035-.066.067-.066zm-.173 0c.035 0 .067.018.089.047l-.01.01c-.005.004-.011.008-.02.008-.017 0-.025-.022-.059-.022-.037 0-.067.036-.067.08 0 .045.03.08.067.08.038 0 .042-.022.06-.022.021 0 .027.014.03.017-.022.03-.055.047-.09.047-.063 0-.108-.053-.108-.122 0-.068.045-.123.108-.123zm-.208.007v.025c0 .013-.007.021-.017.024l-.008.001h-.033v.156c0 .013-.006.021-.016.024l-.009.001h-.02v-.18h-.057v-.026c0-.012.007-.02.017-.024H2.196zm-.343 0v.207c0 .008-.002.014-.006.018-.003.003-.007.004-.011.005l-.008.001h-.022v-.204c0-.012.007-.022.017-.025l.008-.002h.022zm.41 0v.207c0 .008-.002.014-.006.018-.003.003-.007.004-.011.005l-.008.001h-.021v-.204c0-.012.006-.022.016-.025l.008-.002h.022zm-.814.046c-.04 0-.07.03-.07.08 0 .046.027.079.07.079.042 0 .069-.03.069-.08 0-.045-.03-.08-.07-.08zM.633.979c.054.127.068.267.028.315-.038.048-.148.026-.246-.048C.318 1.173.303 1.034.386.931.47.828.58.851.633.98z"/>
        </g>
    </g>
</svg>
