<svg xmlns="http://www.w3.org/2000/svg" width="20" height="20" viewBox="0 0 20 20">
    <path fill="#FFF" d="M7 0c2.21 0 4 1.79 4 4 0 1.024-.385 1.958-1.018 2.666.176.082.35.173.52.272.14.081.253.191.336.318C11.362 7.09 11.921 7 12.5 7c3.038 0 5.5 2.462 5.5 5.5 0 1.157-.357 2.231-.968 3.117l2.675 2.676c.39.39.39 1.024 0 1.414-.36.36-.928.388-1.32.083l-.094-.083-2.676-2.675c-.886.61-1.96.968-3.117.968C9.462 18 7 15.538 7 12.5c0-1.648.725-3.127 1.874-4.136C8.287 8.124 7.654 8 7 8c-2.761 0-5 2.239-5 5 0 .552-.448 1-1 1s-1-.448-1-1c0-2.8 1.644-5.215 4.018-6.335C3.385 5.958 3 5.025 3 4c0-2.21 1.79-4 4-4zm5.5 9C10.567 9 9 10.567 9 12.5s1.567 3.5 3.5 3.5c.748 0 1.442-.235 2.01-.635.028-.21.122-.411.283-.572.16-.16.362-.255.572-.284.4-.567.635-1.26.635-2.009 0-1.933-1.567-3.5-3.5-3.5zM7 2c-1.105 0-2 .895-2 2s.895 2 2 2 2-.895 2-2-.895-2-2-2z"/>
</svg>
