<svg xmlns="http://www.w3.org/2000/svg" width="32" height="32" viewBox="0 0 32 32">
    <g fill="none" fill-rule="evenodd">
        <circle cx="16" cy="16" r="16" fill="#0080C6"/>
        <g>
            <path d="M0 0H20V20H0z" transform="translate(6 6)"/>
            <path fill="#FFF" fill-rule="nonzero" d="M16.5 2c.78 0 1.42.595 1.493 1.356L18 3.5v10c0 .78-.595 1.42-1.356 1.493L16.5 15H14v2c0 .552-.448 1-1 1H3c-.552 0-1-.448-1-1V7c0-.552.448-1 1-1h2V3.5c0-.78.595-1.42 1.356-1.493L6.5 2h10zM13 7H3v10h10V7zm3.5-4h-10c-.245 0-.45.177-.492.41L6 3.5V6h7c.552 0 1 .448 1 1v7h2.5c.245 0 .45-.177.492-.41L17 13.5v-10c0-.245-.177-.45-.41-.492L16.5 3z" transform="translate(6 6)"/>
        </g>
    </g>
</svg>
