<svg xmlns="http://www.w3.org/2000/svg" width="16" height="16" viewBox="0 0 16 16">
    <defs>
        <filter id="prefix__a">
            <feColorMatrix in="SourceGraphic" values="0 0 0 0 0.894118 0 0 0 0 0.184314 0 0 0 0 0.266667 0 0 0 1.000000 0"/>
        </filter>
    </defs>
    <g fill="none" fill-rule="evenodd">
        <path d="M0 0H16V16H0z"/>
        <g filter="url(#prefix__a)">
            <g fill="#E42F44">
                <path d="M12.499 9.778H.918c-.404-.063-.404-.327 0-.793C.504 8.302.198 7.352 0 6.133h11.01l.46-.8h2.752c-.055.41-.115.695-.18.854C13.459 7.63 12.5 8.077 12.5 8.65c0 .527.692 1.129 0 1.129z" transform="translate(.89 3.556)"/>
                <path d="M2.256 0v.889h.342v.59h-.342v1.479h1.026v2.464H.89V2.958h1.026v-1.48h-.342v-.59h.342V0h.341zm4.855 1.778v3.644H4.24V1.778h2.872zm3.35-.89v4.534H7.59V.89h2.872zm2.872 1.779v1.866H10.94V2.667h2.393z" transform="translate(.89 3.556)"/>
            </g>
        </g>
    </g>
</svg>
