<svg xmlns="http://www.w3.org/2000/svg" width="60" height="60" viewBox="0 0 60 60">
    <g fill="none" fill-rule="evenodd">
        <path d="M0 0H32V32H0z" opacity=".3" transform="translate(14 14)"/>
        <path fill="#8B919C" d="M8 19c.552 0 1 .448 1 1v7c0 .552-.448 1-1 1H6c-.552 0-1-.448-1-1v-7c0-.552.448-1 1-1h2zm6-4c.552 0 1 .448 1 1v11c0 .552-.448 1-1 1h-2c-.552 0-1-.448-1-1V16c0-.552.448-1 1-1h2zm6 2c.552 0 1 .448 1 1v9c0 .552-.448 1-1 1h-2c-.552 0-1-.448-1-1v-9c0-.552.448-1 1-1h2zm6-5c.552 0 1 .448 1 1v14c0 .552-.448 1-1 1h-2c-.552 0-1-.448-1-1V13c0-.552.448-1 1-1h2zm-1-8c1.105 0 2 .895 2 2s-.895 2-2 2c-.242 0-.475-.043-.69-.122l-3.339 2.782c.02.11.029.224.029.34 0 1.105-.895 2-2 2-.967 0-1.774-.687-1.96-1.6l-2.712-.904c-.354.314-.819.504-1.328.504-.319 0-.62-.074-.887-.207l-3.118 2.078L9 13c0 1.054-.816 1.918-1.85 1.995L7 15c-1.105 0-2-.895-2-2s.895-2 2-2c.318 0 .619.074.886.206l3.118-2.078L11 9c0-1.054.816-1.918 1.85-1.995L13 7c.967 0 1.774.686 1.96 1.598l2.713.905C18.026 9.19 18.491 9 19 9c.242 0 .475.043.69.122l3.339-2.782C23.009 6.23 23 6.116 23 6c0-1.105.895-2 2-2z" transform="translate(14 14)"/>
    </g>
</svg>
