<svg xmlns="http://www.w3.org/2000/svg" width="20" height="20" viewBox="0 0 20 20">
    <g fill="none" fill-rule="evenodd">
        <path d="M0 0H20V20H0z"/>
        <path fill="#0080C6" fill-rule="nonzero" d="M16.38 12.47c.308 0 .564.228.612.527l.008.102v1.838c0 1.083-.829 1.974-1.879 2.057l-.159.006H5.038c-1.07 0-1.95-.84-2.032-1.902L3 14.937v-1.838c0-.347.277-.628.62-.628.308 0 .563.227.611.526l.008.102v1.838c0 .408.302.747.69.8l.109.008h9.924c.403 0 .738-.305.791-.699l.007-.11V13.1c0-.347.278-.628.62-.628zM10 3c.308 0 .564.228.612.526l.008.102v7.522l3.03-3.068c.188-.19.467-.233.696-.127l.095.054.085.073c.215.218.24.556.072.8l-.072.087-3.787 3.836c-.376.382-.97.41-1.38.088l-.098-.088L5.474 8.97c-.242-.245-.242-.643 0-.888.215-.218.55-.242.79-.072l.086.072 3.03 3.068V3.628c0-.278.178-.513.424-.596l.095-.024L10 3z"/>
    </g>
</svg>
