<svg xmlns="http://www.w3.org/2000/svg" width="60" height="60" viewBox="0 0 60 60">
    <g fill="none" fill-rule="evenodd">
        <g>
            <g>
                <g>
                    <g>
                        <path d="M0 0H60V60H0z" transform="translate(-1134 -773) translate(124 628) translate(825 135) translate(185 10)"/>
                        <path fill="#45474E" fill-rule="nonzero" d="M20 12c1.054 0 1.918.816 1.995 1.85L22 14v2h10v-2c0-1.054.816-1.918 1.85-1.995L34 12h2c1.054 0 1.918.816 1.995 1.85L38 14v2c0 .034 0 .067-.002.1 2.211.447 3.894 2.355 3.997 4.674L42 21v13.794l.787.002.577.013.546.026c2.472.154 3.895.78 4.071 2.325l.014.169.005.171c0 1.8-1.455 2.505-4.12 2.667l-.27.014-.547.018-.577.006h-.632c-.413 1.668-1.662 3.005-3.276 3.541l-2.109 3.514c-.222.37-.586.625-1 .71l-.156.023-.145.007H33.41c-.955 0-1.651-.866-1.51-1.742L32.357 44H17c-2.689 0-4.882-2.122-4.995-4.783L12 39V21c0-2.42 1.72-4.438 4.003-4.9L16 16v-2c0-1.054.816-1.918 1.85-1.995L18 12h2zm14.893 17h-.901l1.336 6.596c.11.542-.239 1.054-.751 1.173l-.112.02-.117.006h-3.643c-.324 0-.625-.157-.811-.415l-.064-.102-1.374-2.489h-.34l.787 3.491c.016.073.024.146.024.22l-.006.11-.018.11-.788 3.49h.341l1.374-2.488c.136-.248.37-.423.638-.488l.117-.022.12-.007h3.643c.593 0 1.046.509.997 1.083l-.017.116L33.992 46h.901l4.384-7.31c.135-.225.352-.385.6-.451l.127-.025.13-.009h2.352c1.295 0 2.26-.093 2.895-.29.495-.155.619-.277.619-.415 0-.138-.124-.26-.62-.414-.581-.181-1.44-.275-2.577-.29l-.317-.001h-2.352c-.307 0-.595-.141-.783-.378l-.074-.108L34.893 29zm-1.768 11.205h-1.83L30.304 42h2.458l.363-1.795zM40 33.627V26H14v13c0 1.598 1.249 2.904 2.824 2.995L17 42h9.04c-.034-.153-.044-.316-.03-.481l.025-.168.867-3.852-.873-3.879c-.166-.851.4-1.66 1.224-1.807l.132-.017.136-.006h1.223c.49 0 .946.238 1.239.648l.083.128 1.229 2.228h1.83l-1.189-5.88c-.221-.878.354-1.745 1.214-1.892l.131-.017.129-.005h1.758c.486 0 .937.233 1.221.62l.08.12L40 33.627zM37 18H17c-1.598 0-2.904 1.249-2.995 2.824L14 21v3h26v-3c0-1.598-1.249-2.904-2.824-2.995L37 18zm-17-4h-2v2h2v-2zm16 0h-2v2h2v-2z" transform="translate(-1134 -773) translate(124 628) translate(825 135) translate(185 10)"/>
                    </g>
                </g>
            </g>
        </g>
    </g>
</svg>
