<svg xmlns="http://www.w3.org/2000/svg" width="90" height="90" viewBox="0 0 90 90">
    <g fill="none" fill-rule="evenodd">
        <g>
            <g>
                <g>
                    <path d="M0 0H90V90H0z" transform="translate(-204 -725) translate(124 695) translate(80 30)"/>
                    <path fill="#FFF" fill-rule="nonzero" d="M43.65 15.3c2.085 0 3.802 1.575 4.025 3.6h2.275c4.64 0 8.418 3.697 8.547 8.307l.003.243V43.2h3.47c.52 0 .99.297 1.214.758l.05.118 1.51 4.025.234.12.368.205.361.217.22.142 4.243-.705c.47-.078.939.097 1.242.448l.079.1.07.109 2.7 4.676c.258.447.237.997-.044 1.42l-.083.113-2.734 3.323.014.26.007.421-.002.21-.005.211-.014.26 2.734 3.323c.298.362.383.847.24 1.28l-.05.129-.063.124-2.7 4.676c-.26.45-.752.708-1.263.672l-.128-.015-4.243-.706-.22.143-.36.217-.369.204-.235.12-1.508 4.026c-.167.446-.554.764-1.01.852l-.126.018-.128.006h-5.4c-.52 0-.989-.297-1.213-.758l-.051-.118-1.51-4.026-.234-.12-.368-.204-.36-.217-.221-.143-4.243.706c-.47.078-.938-.097-1.242-.448l-.078-.1-.07-.109-.961-1.663H23.85c-4.64 0-8.418-3.697-8.547-8.307l-.003-.243v-31.5c0-4.64 3.697-8.418 8.307-8.547l.243-.003h2.275c.216-1.962 1.834-3.501 3.83-3.595l.195-.005h13.5zm9.63 36.21l-.11.025-.068.01c-.086.011-.174.014-.262.008l-.131-.015-3.858-.642-1.764 3.057 2.484 3.02c.172.208.275.462.3.728l.007.133-.007.134c-.033.325-.05.652-.05.982l.006.354.016.301.032.374.003.107-.007.122c-.006.056-.015.112-.028.167l-.026.096c-.028.09-.065.177-.112.26l-.054.089-.08.108-2.484 3.018 1.764 3.057 3.858-.641c.267-.045.54-.007.783.104l.118.062.113.073c.53.386 1.1.715 1.698.982.289.13.522.355.66.635l.054.124 1.37 3.657h3.53l1.372-3.657c.095-.254.263-.47.48-.626l.113-.072.12-.06c.599-.268 1.168-.597 1.698-.983.256-.186.568-.275.88-.255l.135.016 3.857.641 1.764-3.057-2.483-3.018c-.172-.21-.276-.463-.301-.729l-.007-.133.008-.134c.033-.325.05-.652.05-.982 0-.33-.017-.657-.05-.982-.033-.314.046-.627.22-.888l.08-.108 2.483-3.019-1.764-3.057-3.857.642c-.268.045-.54.007-.783-.104l-.119-.062-.113-.073c-.53-.386-1.1-.715-1.698-.982-.288-.13-.521-.355-.66-.635l-.053-.124-1.373-3.658h-3.529l-1.37 3.658c-.095.254-.264.47-.48.626l-.114.072-.12.06-.328.155-.266.136-.323.18-.074.045c-.155.093-.308.19-.457.292l-.311.217-.11.064-.132.06-.06.02c-.026.01-.053.018-.08.025zm5.99.69c3.729 0 6.75 3.022 6.75 6.75S63 65.7 59.27 65.7c-3.727 0-6.75-3.022-6.75-6.75s3.023-6.75 6.75-6.75zM26.126 21.6H23.85c-3.09 0-5.621 2.396-5.835 5.432l-.011.208-.004.21v31.5c0 3.16 2.506 5.736 5.64 5.846l.21.004h20.61l-.18-.313c-.257-.447-.236-.997.044-1.42l.083-.113 2.734-3.324-.013-.259-.007-.421.002-.21.005-.211.013-.26-2.734-3.323c-.297-.362-.382-.847-.24-1.28l.05-.129.064-.124 2.7-4.676c.238-.413.671-.663 1.135-.675l.127.003.128.015 4.243.705.245-.157.165-.101.171-.101.368-.204.234-.12 1.51-4.026c.034-.092.078-.179.13-.259l.087-.12.07-.08.107-.1.099-.075V27.45c0-3.09-2.396-5.621-5.432-5.835l-.208-.011-.21-.004h-2.276l-.036.258-.06.283-.06.214-.094.268-.097.228-.048.098c-.042.086-.088.17-.136.252l-.125.199-.152.213-.149.182-.147.161-.165.162-.2.175-.145.112-.14.099-.123.08-.248.144-.257.125-.232.095-.113.04-.16.05-.208.055-.174.037c-.163.03-.33.051-.499.062l-.256.008h-13.5l-.111-.001-.24-.014-.183-.02-.214-.034-.254-.056-.18-.05-.182-.06-.109-.041-.228-.097-.163-.08-.148-.081-.24-.15-.21-.15-.183-.149-.168-.154-.159-.161-.171-.198-.112-.144-.099-.14c-.056-.082-.109-.166-.159-.253l-.103-.192-.08-.166-.07-.166-.075-.205c-.066-.198-.118-.403-.153-.614l-.03-.224zm33.146 33.3c-2.237 0-4.05 1.813-4.05 4.05S57.034 63 59.27 63s4.05-1.813 4.05-4.05-1.813-4.05-4.05-4.05zM38.7 50.4c.497 0 .9.403.9.9v.9c0 .497-.403.9-.9.9h-6.3c-.497 0-.9-.403-.9-.9v-.9c0-.497.403-.9.9-.9h6.3zm-10.8 0c.497 0 .9.403.9.9v.9c0 .497-.403.9-.9.9H27c-.497 0-.9-.403-.9-.9v-.9c0-.497.403-.9.9-.9h.9zm16.2-8.1c.497 0 .9.403.9.9v.9c0 .497-.403.9-.9.9H32.4c-.497 0-.9-.403-.9-.9v-.9c0-.497.403-.9.9-.9h11.7zm-16.2 0c.497 0 .9.403.9.9v.9c0 .497-.403.9-.9.9H27c-.497 0-.9-.403-.9-.9v-.9c0-.497.403-.9.9-.9h.9zm18.9-8.1c.497 0 .9.403.9.9v.9c0 .497-.403.9-.9.9H32.4c-.497 0-.9-.403-.9-.9v-.9c0-.497.403-.9.9-.9h14.4zm-18.9 0c.497 0 .9.403.9.9v.9c0 .497-.403.9-.9.9H27c-.497 0-.9-.403-.9-.9v-.9c0-.497.403-.9.9-.9h.9zM43.65 18h-13.5c-.702 0-1.278.535-1.344 1.22l-.006.13v1.8l.003.088.014.127.04.176.035.1c.181.464.612.803 1.127.853l.131.006h13.5c.059 0 .117-.004.174-.011l.098-.016.095-.024.108-.034.016-.007c.464-.181.803-.612.853-1.127L45 21.15v-1.8c0-.702-.535-1.278-1.22-1.344L43.65 18z" transform="translate(-204 -725) translate(124 695) translate(80 30)"/>
                </g>
            </g>
        </g>
    </g>
</svg>
