<svg xmlns="http://www.w3.org/2000/svg" width="101" height="100" viewBox="0 0 101 100">
    <g fill="none" fill-rule="evenodd">
        <g>
            <g>
                <g>
                    <g>
                        <g>
                            <path d="M0 0H100V100H0z" transform="translate(-751 -678) translate(124 628) translate(550) translate(77.5 50)"/>
                        </g>
                        <path fill="#FFF" fill-rule="nonzero" d="M31.5 17c1.869 0 3.395 1.464 3.495 3.308L35 20.5v2c0 .17-.012.337-.036.5h21.072c-.016-.108-.027-.219-.032-.33L56 22.5v-2c0-1.869 1.464-3.395 3.308-3.495L59.5 17h2c1.869 0 3.395 1.464 3.495 3.308L65 20.5v2c0 .174-.013.346-.037.513 4.941.234 8.894 4.248 9.033 9.215L74 32.5v22.499l2.508.001c.78 0 1.42.595 1.493 1.356l.007.144V62h1.482c1.87 0 3.405 1.464 3.505 3.308L83 65.5c0 .408-.078.812-.22 1.195l-.091.226-5.167 11.625c-1.166 2.624-3.723 4.344-6.576 4.449l-.277.005H46.562c-2.974 0-5.657-1.756-6.855-4.458l-.108-.257L39.084 77H26.5c-5.156 0-9.353-4.108-9.496-9.23L17 67.5v-35c0-5.092 4.006-9.248 9.039-9.489-.018-.11-.03-.223-.035-.338L26 22.5v-2c0-1.869 1.464-3.395 3.308-3.495L29.5 17h2zm47.99 48H65.63c-.112 0-.22.038-.308.106l-.06.056-.259.281.001.557h-.51l-.794.865c-.612.668-1.456 1.07-2.354 1.128L61.12 68H39.454c-.064 0-.127.012-.186.036-.228.09-.351.331-.304.563l.026.087 3.394 8.485c.656 1.64 2.207 2.738 3.958 2.824l.22.005H70.67c1.704 0 3.255-.962 4.017-2.472l.095-.2 5.166-11.625c.029-.064.043-.133.043-.203 0-.276-.223-.5-.5-.5zM46 70.5c1.105 0 2 .895 2 2s-.895 2-2 2-2-.895-2-2 .895-2 2-2zm7 0c1.105 0 2 .895 2 2s-.895 2-2 2-2-.895-2-2 .895-2 2-2zm7 0c1.105 0 2 .895 2 2s-.895 2-2 2-2-.895-2-2 .895-2 2-2zm7 0c1.105 0 2 .895 2 2s-.895 2-2 2-2-.895-2-2 .895-2 2-2zM71 42H20v25.5c0 3.512 2.785 6.373 6.267 6.496L26.5 74h11.384l-1.68-4.2c-.717-1.795.155-3.832 1.95-4.55.272-.109.557-.183.846-.22V58.5c0-.78.595-1.42 1.356-1.493L40.5 57H42v-3.5h-.5c-.828 0-1.5-.672-1.5-1.5s.672-1.5 1.5-1.5h.5v-2c0-.552.448-1 1-1h1c.552 0 1 .448 1 1v2h.5c.828 0 1.5.672 1.5 1.5s-.672 1.5-1.5 1.5H45V57h2.504c.78 0 1.42.595 1.493 1.356l.007.144-.001 6.499.996.001.001-8.5c0-.78.595-1.42 1.356-1.493L51.5 55H55v-6.5c0-.78.595-1.42 1.356-1.493L56.5 47h12.004c.78 0 1.42.595 1.493 1.356l.007.144V55l.996-.001V42zM46.003 60H42v4.999h4.003v-1.583C45.42 63.21 45 62.654 45 62c0-.654.419-1.21 1.003-1.416V60zm16-2h-9.004v7h8.121c.112 0 .22-.038.308-.106l.06-.056.515-.563V58zm13.004 0H65.003v4.056c.132-.024.266-.04.401-.049L65.63 62h9.377v-4zm-8.004-8H58v5h9.003v-5zM64.5 26h-38c-3.512 0-6.373 2.785-6.496 6.267L20 32.5V39h51v-6.5c0-3.512-2.785-6.373-6.267-6.496L64.5 26zm-33-6h-2c-.245 0-.45.177-.492.41L29 20.5v2c0 .245.177.45.41.492l.09.008h2c.245 0 .45-.177.492-.41L32 22.5v-2c0-.245-.177-.45-.41-.492L31.5 20zm30 0h-2c-.245 0-.45.177-.492.41L59 20.5v2c0 .245.177.45.41.492l.09.008h2c.245 0 .45-.177.492-.41L62 22.5v-2c0-.245-.177-.45-.41-.492L61.5 20z" transform="translate(-751 -678) translate(124 628) translate(550) translate(77.5 50)"/>
                    </g>
                </g>
            </g>
        </g>
    </g>
</svg>
