<svg xmlns="http://www.w3.org/2000/svg" width="20" height="20" viewBox="0 0 20 20">
    <g fill="none" fill-rule="evenodd">
        <path fill="#FFF" fill-opacity="0" d="M0 0H20V20H0z"/>
        <path fill="#0080C6" fill-rule="nonzero" d="M14.875 4c.585 0 1.065.446 1.12 1.017l.005.108v7.5c0 .585-.446 1.065-1.017 1.12l-.108.005H13v1.5c0 .414-.336.75-.75.75h-7.5c-.414 0-.75-.336-.75-.75v-7.5c0-.414.336-.75.75-.75h1.5V5.125c0-.585.446-1.065 1.017-1.12L7.375 4h7.5zM11.5 8.5h-6v6h6v-6zm2.625-3h-6c-.184 0-.337.133-.369.308l-.006.067V7h4.5c.414 0 .75.336.75.75v4.5h1.125c.184 0 .337-.133.369-.308l.006-.067v-6c0-.184-.133-.337-.308-.369l-.067-.006z"/>
    </g>
</svg>
