<svg xmlns="http://www.w3.org/2000/svg" width="10" height="12" viewBox="0 0 10 12">
    <g fill="none" fill-rule="evenodd" stroke-linejoin="square" stroke-width="1.1">
        <path fill="#E42F44" stroke="#FFF" d="M5 .55c-1.229 0-2.341.498-3.147 1.303C1.048 2.66.55 3.771.55 5c0 1.68 1.546 3.757 4.45 6.275C7.904 8.757 9.45 6.681 9.45 5c0-1.229-.498-2.341-1.303-3.147C7.34 1.048 6.229.55 5 .55z"/>
        <path stroke="#AADAFF" stroke-opacity=".1" d="M5 .55c-1.229 0-2.341.498-3.147 1.303C1.048 2.66.55 3.771.55 5c0 1.68 1.546 3.757 4.45 6.275C7.904 8.757 9.45 6.681 9.45 5c0-1.229-.498-2.341-1.303-3.147C7.34 1.048 6.229.55 5 .55z"/>
    </g>
</svg>
