<svg xmlns="http://www.w3.org/2000/svg" width="100" height="100" viewBox="0 0 100 100">
    <g fill="none" fill-rule="evenodd">
        <path d="M0 0H100V100H0z"/>
        <path fill="#FFF" fill-rule="nonzero" d="M26 83c-4.905 0-8.86-4.126-8.996-9.226L17 73.5v-4c0-.78.595-1.42 1.356-1.493L18.5 68H32V26.5c0-4.926 3.56-9.006 8.15-9.458.067-.017.136-.028.206-.035L40.5 17h33c.05 0 .101.003.15.007l.085-.003L74 17c4.882 0 8.856 3.887 8.996 8.735L83 26v4.5c0 .78-.595 1.42-1.356 1.493L81.5 32H68v41.5c0 5.226-4.007 9.5-9 9.5-.36 0-.714-.022-1.063-.065-.094.029-.192.048-.293.058L57.5 83H26zm24.004-9.226L50 73.5V71H20v2.5c0 3.53 2.59 6.371 5.781 6.496L26 80l26.436.001c-1.457-1.64-2.368-3.826-2.432-6.227zM67.29 20H41c-3.218 0-5.88 2.762-5.996 6.26L35 26.5V68h16.5c.78 0 1.42.595 1.493 1.356L53 69.5v4c0 3.61 2.709 6.5 6 6.5 3.218 0 5.88-2.762 5.996-6.26L65 73.5V26c0-2.305.866-4.407 2.291-6zM74 20c-3.238 0-5.878 2.566-5.996 5.775L68 26v3h12v-3c0-3.163-2.448-5.754-5.552-5.984l-.223-.012L74 20z"/>
    </g>
</svg>
