<svg xmlns="http://www.w3.org/2000/svg" width="18" height="18" viewBox="0 0 18 18">
    <g fill="none" fill-rule="evenodd">
        <path d="M0 0H18V18H0z"/>
        <path fill="#E42F44" d="M17 10c-.062.462-.129.782-.202.96-.658 1.623-1.736 2.127-1.736 2.77 0 .593.779 1.27 0 1.27H2.032c-.453-.07-.453-.368 0-.892-.465-.768-.809-1.837-1.031-3.208h12.387l.516-.9H17zM3.54 4v1h.385v.664h-.385v1.663h1.154V10.1H2V7.327h1.153V5.664H2.77V5h.384V4h.385zm5.462 2v4.1H5.77V6H9zm3.769-1v5.1H9.539V5h3.23zM16 7v2.1h-2.692V7h2.693z"/>
    </g>
</svg>
