<svg xmlns="http://www.w3.org/2000/svg" width="21" height="20" viewBox="0 0 21 20">
    <g fill="none" fill-rule="evenodd">
        <path fill="#0080C6" d="M9.62 0v16.667L0 14.9V1.696L9.62 0zm7.047 1.942v12.82h-6.634V13.51h2.405v-1.72h-2.405v-.517h2.405V9.55h-2.405v-.516h2.405V7.314h-2.405v-.516h2.405V5.077h-2.405V4.56h2.405V2.84h-2.405v-.898h6.634zm-.995 9.846h-2.737v1.721h2.737v-1.72zm0-2.237h-2.737v1.72h2.737v-1.72zm0-2.237h-2.737v1.72h2.737v-1.72zm0-2.237h-2.737v1.72h2.737v-1.72zm0-2.238h-2.737V4.56h2.737V2.84z" transform="translate(2.417 1.667)"/>
        <path fill="#FFF" fill-rule="nonzero" d="M4.936 5.652h.012c.02 0 .041.003.062.006l-.074-.006c.037 0 .072.004.106.011l.047.013.039.014.04.019.035.02.018.012.018.013.039.033.012.012L7.411 7.92c.196.195.196.512 0 .707-.173.174-.443.193-.638.058l-.069-.058L5.436 7.36v3.593c0 .276-.223.5-.5.5-.245 0-.45-.177-.491-.41l-.009-.09V7.36L3.17 8.627c-.174.174-.443.193-.638.058l-.07-.058c-.173-.173-.192-.443-.057-.638l.058-.069 2.12-2.121.016-.014c.011-.011.024-.022.037-.031l-.052.045c.026-.026.053-.048.083-.067.014-.01.03-.018.044-.026l.032-.015.044-.016.045-.012.031-.005.064-.006h.01z" transform="translate(2.417 1.667)"/>
    </g>
</svg>
