<svg xmlns="http://www.w3.org/2000/svg" width="60" height="60" viewBox="0 0 60 60">
    <g fill="none" fill-rule="evenodd">
        <path d="M0 0H32V32H0z" opacity=".3" transform="translate(14 14)"/>
        <path fill="#8B919C" d="M14 4c5.523 0 10 4.477 10 10 0 2.21-.717 4.252-1.93 5.907l5.49 5.491c.586.586.586 1.536 0 2.122l-.04.04c-.586.586-1.536.586-2.122 0l-5.49-5.49C18.251 23.283 16.21 24 14 24 8.477 24 4 19.523 4 14S8.477 4 14 4zm-.003 2.998c-.552 0-1 .448-1 1V9.05c-.3.035-.586.087-.859.157-.541.139-1.008.338-1.399.597-.39.259-.695.567-.911.923-.217.356-.325.756-.325 1.2v.028l.006.202c.024.393.122.729.292 1.006.198.324.478.595.839.812.361.218.8.4 1.318.549.517.148 1.095.282 1.733.402.53.102.96.2 1.29.292.331.092.59.185.776.277.187.093.313.192.38.299.066.106.099.229.099.368v.028l-.008.104c-.035.238-.192.427-.47.569-.202.102-.455.172-.76.21v-.075h-1.781c-.277-.051-.543-.122-.799-.212-.608-.212-1.2-.5-1.778-.86l-1.643 1.513.289.191c.681.432 1.428.76 2.239.982.486.134.977.232 1.472.295v1.091c0 .553.448 1 1 1 .553 0 1-.447 1-1L15 18.973c.44-.03.852-.09 1.237-.18.565-.135 1.053-.33 1.462-.584.409-.254.728-.569.956-.944.23-.374.343-.802.343-1.284v-.027l-.007-.208c-.024-.338-.109-.635-.254-.89-.175-.305-.433-.57-.776-.797-.343-.227-.765-.422-1.264-.583-.5-.162-1.068-.308-1.706-.438-.541-.11-.99-.208-1.345-.291-.355-.084-.634-.172-.839-.264-.204-.093-.346-.197-.424-.312-.078-.116-.117-.253-.117-.41v-.028l.008-.1c.033-.197.166-.365.398-.504.092-.055.201-.101.326-.13l1.957-.002c.186.038.373.087.56.146.541.172 1.095.405 1.66.701l1.444-1.61-.33-.191c-.559-.306-1.162-.548-1.809-.725-.466-.128-.96-.218-1.48-.269L14.997 8c0-.553-.447-1-1-1z" transform="translate(14 14)"/>
    </g>
</svg>
