<svg xmlns="http://www.w3.org/2000/svg" width="32" height="32" viewBox="0 0 32 32">
    <g fill="none" fill-rule="evenodd">
        <g>
            <g>
                <g>
                    <g>
                        <path d="M0 0H32V32H0z" transform="translate(-208 -702) translate(16 678) translate(176) translate(16 24)"/>
                        <path fill="#FFF" fill-rule="nonzero" d="M7.84 13.12c.773 0 1.403.608 1.438 1.372l.002.068v10.56c0 .773-.608 1.403-1.372 1.438l-.068.002h-.96c-.773 0-1.403-.608-1.438-1.372l-.002-.068V14.56c0-.773.608-1.403 1.372-1.438l.068-.002h.96zm5.76-7.68c.773 0 1.403.608 1.438 1.372l.002.068v18.24c0 .773-.608 1.403-1.372 1.438l-.068.002h-.96c-.773 0-1.403-.608-1.438-1.372l-.002-.068V6.88c0-.773.608-1.403 1.372-1.438l.068-.002h.96zm5.76 4.8c.773 0 1.403.608 1.438 1.372l.002.068v13.44c0 .773-.608 1.403-1.372 1.438l-.068.002h-.96c-.773 0-1.403-.608-1.438-1.372l-.002-.068V11.68c0-.773.608-1.403 1.372-1.438l.068-.002h.96zm5.76 4.8c.773 0 1.403.608 1.438 1.372l.002.068v8.64c0 .773-.608 1.403-1.372 1.438l-.068.002h-.96c-.773 0-1.403-.608-1.438-1.372l-.002-.068v-8.64c0-.773.608-1.403 1.372-1.438l.068-.002h.96zm-17.28-.96h-.96c-.25 0-.455.19-.478.434l-.002.046v10.56c0 .25.19.455.434.478l.046.002h.96c.25 0 .455-.19.478-.434l.002-.046V14.56c0-.25-.19-.455-.434-.478l-.046-.002zM13.6 6.4h-.96c-.25 0-.455.19-.478.434l-.002.046v18.24c0 .25.19.455.434.478l.046.002h.96c.25 0 .455-.19.478-.434l.002-.046V6.88c0-.25-.19-.455-.434-.478L13.6 6.4zm5.76 4.8h-.96c-.25 0-.455.19-.478.434l-.002.046v13.44c0 .25.19.455.434.478l.046.002h.96c.25 0 .455-.19.478-.434l.002-.046V11.68c0-.25-.19-.455-.434-.478l-.046-.002zm5.76 4.8h-.96c-.25 0-.455.19-.478.434l-.002.046v8.64c0 .25.19.455.434.478l.046.002h.96c.25 0 .455-.19.478-.434l.002-.046v-8.64c0-.25-.19-.455-.434-.478L25.12 16z" transform="translate(-208 -702) translate(16 678) translate(176) translate(16 24)"/>
                    </g>
                </g>
            </g>
        </g>
    </g>
</svg>
