<svg xmlns="http://www.w3.org/2000/svg" width="60" height="60" viewBox="0 0 60 60">
    <g fill="none" fill-rule="evenodd">
        <path d="M0 0H60V60H0z"/>
        <path fill="#45474E" fill-rule="nonzero" d="M17 17.002v24c0 2.689 2.122 4.882 4.783 4.995l.217.005h18v2H22c-3.785 0-6.87-3.005-6.996-6.76l-.004-.24v-24h2zm7-5l7.962-.001c.234-.01.474.06.675.23l.098.093 12 13c.18.195.263.426.267.655L45 39.002c0 2.689-2.122 4.882-4.783 4.995l-.217.005H24c-2.689 0-4.882-2.122-4.995-4.783L19 39.002v-22c0-2.689 2.122-4.882 4.783-4.995l.217-.005zm7 2h-7c-1.598 0-2.904 1.249-2.995 2.824l-.005.176v22c0 1.598 1.249 2.904 2.824 2.995l.176.005h16c1.598 0 2.904-1.249 2.995-2.824l.005-.176v-12h-7c-2.689 0-4.882-2.122-4.995-4.783L31 22.002v-8zm2 1.558v6.442c0 1.539 1.158 2.807 2.65 2.98l.174.015.176.005h5.716L33 15.56z"/>
    </g>
</svg>
