<svg xmlns="http://www.w3.org/2000/svg" xmlns:xlink="http://www.w3.org/1999/xlink" width="42" height="38" viewBox="0 0 42 38">
    <defs>
        <linearGradient id="prefix__a" x1="50%" x2="50%" y1="66.502%" y2="100%">
            <stop offset="0%" stop-opacity="0"/>
            <stop offset="42.234%" stop-opacity=".284"/>
            <stop offset="100%"/>
        </linearGradient>
        <filter id="prefix__b" width="114.4%" height="131.7%" x="-7.2%" y="-15.9%" filterUnits="objectBoundingBox">
            <feOffset in="SourceAlpha" result="shadowOffsetOuter1"/>
            <feGaussianBlur in="shadowOffsetOuter1" result="shadowBlurOuter1" stdDeviation=".5"/>
            <feColorMatrix in="shadowBlurOuter1" values="0 0 0 0 0 0 0 0 0 0 0 0 0 0 0 0 0 0 0.5 0"/>
        </filter>
        <path id="prefix__c" d="M13.992 20c.601 0 1.153-.099 1.655-.297.503-.198.935-.47 1.298-.814.363-.345.644-.752.842-1.221.198-.47.297-.975.297-1.518v-.022c0-.543-.099-1.047-.297-1.512-.198-.466-.479-.871-.841-1.216-.364-.345-.796-.614-1.299-.809-.502-.194-1.054-.291-1.655-.291h-3.003V20h3.003zm0-1.529h-1.309v-4.642h1.309c.345 0 .66.057.946.17.286.114.53.274.731.479.202.205.36.451.473.737.114.286.171.598.171.935v.022c0 .345-.057.656-.17.935-.114.279-.272.52-.474.726-.201.205-.445.363-.731.473-.286.11-.601.165-.946.165zm7.917 1.661c.535 0 1.001-.097 1.397-.292.396-.194.733-.463 1.012-.808l-.957-.847c-.235.213-.462.367-.682.462-.22.095-.47.143-.748.143-.374 0-.688-.097-.94-.291-.253-.195-.42-.483-.501-.864h4.103c.007-.08.013-.158.017-.231.003-.073.005-.143.005-.209 0-.418-.057-.82-.17-1.204-.114-.386-.29-.726-.529-1.024-.238-.296-.537-.533-.896-.709-.36-.176-.785-.264-1.276-.264-.433 0-.827.08-1.183.242-.355.161-.661.381-.918.66s-.457.605-.6.979c-.142.374-.214.77-.214 1.188v.022c0 .455.077.867.231 1.238.154.37.369.69.643.962.276.271.602.48.98.627.377.147.786.22 1.226.22zm1.078-3.542h-2.519c.066-.381.207-.686.424-.913.216-.227.5-.341.852-.341s.634.115.847.346c.213.232.345.534.396.908zm4.243 5.17v-2.53c.198.235.442.44.732.616s.658.264 1.105.264c.352 0 .69-.066 1.012-.198.323-.132.607-.328.852-.588.246-.26.444-.58.595-.958.15-.377.225-.812.225-1.303v-.022c0-.491-.075-.926-.226-1.303-.15-.378-.35-.697-.599-.957-.25-.26-.535-.457-.858-.589-.323-.132-.656-.198-1.001-.198-.44 0-.805.09-1.095.27-.29.18-.537.408-.742.687v-.847h-1.672v7.656h1.672zm1.408-3.069c-.198 0-.383-.038-.556-.115-.172-.078-.322-.188-.45-.33-.129-.143-.232-.316-.309-.517-.076-.202-.115-.424-.115-.666v-.022c0-.242.039-.464.116-.666.076-.201.18-.373.307-.517.129-.143.28-.253.451-.33.173-.077.358-.115.556-.115.198 0 .383.038.555.115.173.077.325.188.457.33.132.143.237.316.314.517.077.202.115.424.115.666v.022c0 .25-.038.473-.116.671-.076.198-.181.368-.313.511-.132.143-.284.253-.456.33-.173.078-.358.116-.556.116z"/>
    </defs>
    <g fill="none" fill-rule="evenodd">
        <path fill="url(#prefix__a)" d="M21 38c14-8.017 21-14.75 21-20.2C42 9.626 32.598 4 21 4S0 9.626 0 17.8C0 23.25 7 29.983 21 38z" opacity=".6"/>
        <path fill="#006ECD" stroke="#05579D" d="M21 .5c-4.28 0-8.155 1.735-10.96 4.54C7.235 7.845 5.5 11.72 5.5 16c0 5.745 5.23 12.846 15.499 21.35C31.269 28.848 36.5 21.747 36.5 16c0-4.28-1.735-8.155-4.54-10.96C29.155 2.235 25.28.5 21 .5z"/>
        <g fill-rule="nonzero">
            <use fill="#000" filter="url(#prefix__b)" xlink:href="#prefix__c"/>
            <use fill="#FFF" xlink:href="#prefix__c"/>
        </g>
    </g>
</svg>
