<svg xmlns="http://www.w3.org/2000/svg" width="60" height="60" viewBox="0 0 60 60">
    <g fill="none" fill-rule="evenodd">
        <path d="M0 0H60V60H0z"/>
        <path fill="#45474E" fill-rule="nonzero" d="M20 12c1.054 0 1.918.816 1.995 1.85L22 14v1.999h10V14c0-1.054.816-1.918 1.85-1.995L34 12h2c1.054 0 1.918.816 1.995 1.85L38 14v2c0 .034 0 .067-.002.1 2.211.447 3.894 2.355 3.997 4.674L42 21l.001 11.252C45.451 33.141 48 36.272 48 40c0 4.418-3.582 8-8 8-2.96 0-5.546-1.608-6.93-3.999L17 44c-2.689 0-4.882-2.122-4.995-4.783L12 39V21c0-2.42 1.72-4.438 4.003-4.9L16 16v-2c0-1.054.816-1.918 1.85-1.995L18 12h2zm20 22l-.225.004C36.565 34.122 34 36.762 34 40l.001.132.01.22.02.26.022.186.027.185.025.139.06.284.069.258.049.162.096.276C35.23 44.379 37.426 46 40 46c3.314 0 6-2.686 6-6 0-3.05-2.277-5.57-5.224-5.95l-.234-.026c-.1-.009-.2-.015-.302-.02L40 34zm0-8H14v13c0 1.598 1.249 2.904 2.824 2.995L17 42h15.252l-.066-.276-.057-.285-.062-.398-.033-.304-.026-.378-.002-.046C32.002 40.21 32 40.105 32 40c0-4.335 3.448-7.865 7.75-7.996L40 32v-6zm1 9.945v3.275l1.919.485-.489 1.94-3.43-.866v-4.834h2zM37 18H17c-1.598 0-2.904 1.249-2.995 2.824L14 21v3h26v-3c0-1.539-1.158-2.807-2.65-2.98l-.174-.015L37 18zm-1-4h-2v1.999h2V14zm-16 0h-2v1.999h2V14z"/>
    </g>
</svg>
