<svg xmlns="http://www.w3.org/2000/svg" width="60" height="60" viewBox="0 0 60 60">
    <g fill="none" fill-rule="evenodd">
        <path d="M0 0H32V32H0z" opacity=".3" transform="translate(14 14)"/>
        <path fill="#8B919C" d="M9 6c0 1.105.895 2 2 2h10c1.105 0 2-.895 2-2h3c1.105 0 2 .895 2 2v18c0 1.105-.895 2-2 2H6c-1.105 0-2-.895-2-2V8c0-1.105.895-2 2-2zm10 15h-5c-.552 0-1 .448-1 1s.448 1 1 1h5c.552 0 1-.448 1-1s-.448-1-1-1zm-8 0H9v2h2v-2zm11-5h-8c-.552 0-1 .448-1 1s.448 1 1 1h8c.552 0 1-.448 1-1s-.448-1-1-1zm-11 0H9v2h2v-2zm11-5h-8c-.552 0-1 .448-1 1s.448 1 1 1h8c.552 0 1-.448 1-1s-.448-1-1-1zm-11 0H9v2h2v-2zm9-7c.552 0 1 .448 1 1s-.448 1-1 1h-8c-.552 0-1-.448-1-1s.448-1 1-1h8z" transform="translate(14 14)"/>
    </g>
</svg>
