<svg xmlns="http://www.w3.org/2000/svg" width="20" height="20" viewBox="0 0 20 20">
    <g fill="none" fill-rule="evenodd">
        <path d="M0 0H20V20H0z"/>
        <path fill="#8B919C" fill-rule="nonzero" d="M16.5 2c.78 0 1.42.595 1.493 1.356L18 3.5v10c0 .78-.595 1.42-1.356 1.493L16.5 15H15v1.5c0 .78-.595 1.42-1.356 1.493L13.5 18h-10c-.828 0-1.5-.672-1.5-1.5v-10C2 5.672 2.672 5 3.5 5H5V3.5c0-.78.595-1.42 1.356-1.493L6.5 2h10zm-3 4h-10c-.276 0-.5.224-.5.5v10c0 .276.224.5.5.5h10c.276 0 .5-.224.5-.5v-10c0-.276-.224-.5-.5-.5zm3-3h-10c-.245 0-.45.177-.492.41L6 3.5V5h7.5c.78 0 1.42.595 1.493 1.356L15 6.5V14h1.5c.245 0 .45-.177.492-.41L17 13.5v-10c0-.245-.177-.45-.41-.492L16.5 3z"/>
    </g>
</svg>
