<svg xmlns="http://www.w3.org/2000/svg" width="100" height="100" viewBox="0 0 100 100">
    <g fill="none" fill-rule="evenodd">
        <g>
            <g>
                <g>
                    <path d="M0 0H100V100H0z" transform="translate(-202 -678) translate(124 628) translate(78 50)"/>
                    <path fill="#FFF" fill-rule="nonzero" d="M42.5 53c2.415 0 4.385 1.901 4.495 4.288L47 57.5v21c0 2.414-1.901 4.384-4.288 4.495L42.5 83h-3c-2.414 0-4.384-1.901-4.495-4.288L35 78.5v-21c0-2.414 1.902-4.384 4.288-4.495L39.5 53h3zm36-27c2.415 0 4.385 1.901 4.495 4.288L83 30.5v48c0 2.414-1.901 4.384-4.288 4.495L78.5 83h-3c-2.414 0-4.384-1.901-4.495-4.288L71 78.5v-48c0-2.414 1.902-4.384 4.288-4.495L75.5 26h3zm-18 15c2.415 0 4.385 1.901 4.495 4.288L65 45.5v33c0 2.414-1.901 4.384-4.288 4.495L60.5 83h-3c-2.414 0-4.384-1.901-4.495-4.288L53 78.5v-33c0-2.414 1.902-4.384 4.288-4.495L57.5 41h3zm-36 18c2.415 0 4.385 1.901 4.495 4.288L29 63.5v15c0 2.414-1.901 4.384-4.288 4.495L24.5 83h-3c-2.414 0-4.384-1.901-4.495-4.288L17 78.5v-15c0-2.414 1.902-4.384 4.288-4.495L21.5 59h3zm18-3h-3c-.78 0-1.42.595-1.493 1.356L38 57.5v21c0 .78.595 1.42 1.356 1.493L39.5 80h3c.78 0 1.42-.595 1.493-1.356L44 78.5v-21c0-.78-.595-1.42-1.355-1.493L42.5 56zm36-27h-3c-.78 0-1.42.595-1.493 1.356L74 30.5v48c0 .78.595 1.42 1.356 1.493L75.5 80h3c.78 0 1.42-.595 1.493-1.356L80 78.5v-48c0-.78-.595-1.42-1.355-1.493L78.5 29zm-18 15h-3c-.78 0-1.42.595-1.493 1.356L56 45.5v33c0 .78.595 1.42 1.356 1.493L57.5 80h3c.78 0 1.42-.595 1.493-1.356L62 78.5v-33c0-.78-.595-1.42-1.355-1.493L60.5 44zm-36 18h-3c-.78 0-1.42.595-1.493 1.356L20 63.5v15c0 .78.595 1.42 1.356 1.493L21.5 80h3c.78 0 1.42-.595 1.493-1.356L26 78.5v-15c0-.78-.595-1.42-1.355-1.493L24.5 62zM68 17l-4 15-4.034-4.033C49.476 39.043 35.18 46.778 18.787 49.972c-.813.159-1.6-.372-1.759-1.185-.158-.813.372-1.6 1.185-1.76 15.816-3.081 29.57-10.533 39.632-21.183L53 21l15-4z" transform="translate(-202 -678) translate(124 628) translate(78 50)"/>
                </g>
            </g>
        </g>
    </g>
</svg>
