<svg xmlns="http://www.w3.org/2000/svg" width="32" height="32" viewBox="0 0 32 32">
    <g fill="none" fill-rule="evenodd">
        <circle cx="16" cy="16" r="16" fill="#8B919C"/>
        <g>
            <path d="M0 0H20V20H0z" transform="translate(6 6)"/>
            <path fill="#FFF" fill-rule="nonzero" d="M12.5 2c.78 0 1.42.595 1.493 1.356L14 3.5V5h3.5c.276 0 .5.224.5.5 0 .245-.177.45-.41.492L17.5 6H16v10.5c0 .78-.595 1.42-1.356 1.493L14.5 18h-9c-.78 0-1.42-.595-1.493-1.356L4 16.5V6H2.5c-.276 0-.5-.224-.5-.5 0-.245.177-.45.41-.492L2.5 5H6V3.5c0-.78.595-1.42 1.356-1.493L7.5 2h5zM15 6H5v10.5c0 .215.135.398.326.469l.084.023.09.008h9c.245 0 .45-.177.492-.41L15 16.5V6zM8.5 8c.245 0 .45.177.492.41L9 8.5v6c0 .276-.224.5-.5.5-.245 0-.45-.177-.492-.41L8 14.5v-6c0-.276.224-.5.5-.5zm3 0c.245 0 .45.177.492.41L12 8.5v6c0 .276-.224.5-.5.5-.245 0-.45-.177-.492-.41L11 14.5v-6c0-.276.224-.5.5-.5zm1-5h-5c-.245 0-.45.177-.492.41L7 3.5V5h6V3.5c0-.215-.135-.398-.326-.469l-.084-.023L12.5 3z" transform="translate(6 6)"/>
        </g>
    </g>
</svg>
