<svg xmlns="http://www.w3.org/2000/svg" width="60" height="60" viewBox="0 0 60 60">
    <g fill="none" fill-rule="evenodd">
        <path d="M0 0H32V32H0z" opacity=".3" transform="translate(14 14)"/>
        <path fill="#8B919C" d="M18.25 4l1.418 3.779c.572.256 1.114.57 1.616.934l3.983-.662 2.25 3.898-2.565 3.118c.032.307.048.618.048.933 0 .315-.016.626-.048.933l2.565 3.118-2.25 3.898-3.983-.662c-.502.364-1.044.678-1.616.934L18.25 28h-4.5l-1.418-3.779c-.572-.256-1.114-.57-1.616-.934l-3.983.662-2.25-3.898 2.565-3.118C7.016 16.626 7 16.315 7 16c0-.315.016-.626.048-.933L4.483 11.95l2.25-3.898 3.983.662c.502-.364 1.044-.678 1.616-.934L13.75 4h4.5zM16 12c-2.21 0-4 1.79-4 4s1.79 4 4 4 4-1.79 4-4-1.79-4-4-4z" transform="translate(14 14)"/>
    </g>
</svg>
