<svg xmlns="http://www.w3.org/2000/svg" width="90" height="90" viewBox="0 0 90 90">
    <g fill="none" fill-rule="evenodd">
        <g>
            <g>
                <g>
                    <g>
                        <path d="M0 0H90V90H0z" transform="translate(-754 -725) translate(124 695) translate(550) translate(80 30)"/>
                        <path fill="#FFF" fill-rule="nonzero" d="M22.05 36.9c2.173 0 3.946 1.711 4.046 3.86l.004.19v29.7c0 2.173-1.711 3.946-3.86 4.046l-.19.004h-2.7c-2.173 0-3.946-1.711-4.046-3.86l-.004-.19v-29.7c0-2.173 1.711-3.946 3.86-4.046l.19-.004h2.7zm16.2-21.6c2.173 0 3.946 1.711 4.046 3.86l.004.19v51.3c0 2.173-1.711 3.946-3.86 4.046l-.19.004h-2.7c-2.173 0-3.946-1.711-4.046-3.86l-.004-.19v-51.3c0-2.173 1.711-3.946 3.86-4.046l.19-.004h2.7zm16.2 13.5c2.173 0 3.946 1.711 4.046 3.86l.004.19v37.8c0 2.173-1.711 3.946-3.86 4.046l-.19.004h-2.7c-2.173 0-3.946-1.711-4.046-3.86l-.004-.19v-37.8c0-2.173 1.711-3.946 3.86-4.046l.19-.004h2.7zm16.2 13.5c2.173 0 3.946 1.711 4.046 3.86l.004.19v24.3c0 2.173-1.711 3.946-3.86 4.046l-.19.004h-2.7c-2.173 0-3.946-1.711-4.046-3.86l-.004-.19v-24.3c0-2.173 1.711-3.946 3.86-4.046l.19-.004h2.7zm-48.6-2.7h-2.7c-.702 0-1.278.535-1.344 1.22l-.006.13v29.7c0 .702.535 1.278 1.22 1.344l.13.006h2.7c.702 0 1.278-.535 1.344-1.22l.006-.13v-29.7c0-.702-.535-1.278-1.22-1.344l-.13-.006zM38.25 18h-2.7c-.702 0-1.278.535-1.344 1.22l-.006.13v51.3c0 .702.535 1.278 1.22 1.344l.13.006h2.7c.702 0 1.278-.535 1.344-1.22l.006-.13v-51.3c0-.702-.535-1.278-1.22-1.344L38.25 18zm16.2 13.5h-2.7c-.702 0-1.278.535-1.344 1.22l-.006.13v37.8c0 .702.535 1.278 1.22 1.344l.13.006h2.7c.702 0 1.278-.535 1.344-1.22l.006-.13v-37.8c0-.702-.535-1.278-1.22-1.344l-.13-.006zM70.65 45h-2.7c-.702 0-1.278.535-1.344 1.22l-.006.13v24.3c0 .702.535 1.278 1.22 1.344l.13.006h2.7c.702 0 1.278-.535 1.344-1.22l.006-.13v-24.3c0-.702-.535-1.278-1.22-1.344L70.65 45z" transform="translate(-754 -725) translate(124 695) translate(550) translate(80 30)"/>
                    </g>
                </g>
            </g>
        </g>
    </g>
</svg>
