<svg xmlns="http://www.w3.org/2000/svg" width="60" height="60" viewBox="0 0 60 60">
    <g fill="none" fill-rule="evenodd">
        <path d="M0 0H60V60H0z"/>
        <path fill="#45474E" fill-rule="nonzero" d="M31 36c1.598 0 2.904 1.249 2.995 2.824L34 39v6c0 1.598-1.249 2.904-2.824 2.995L31 48h-2c-1.598 0-2.904-1.249-2.995-2.824L26 45v-6c0-1.598 1.249-2.904 2.824-2.995L29 36h2zm14-12c1.598 0 2.904 1.249 2.995 2.824L48 27v18c0 1.598-1.249 2.904-2.824 2.995L45 48h-2c-1.598 0-2.904-1.249-2.995-2.824L40 45V27c0-1.598 1.249-2.904 2.824-2.995L43 24h2zm-28 6c1.598 0 2.904 1.249 2.995 2.824L20 33v12c0 1.598-1.249 2.904-2.824 2.995L17 48h-2c-1.598 0-2.904-1.249-2.995-2.824L12 45V33c0-1.598 1.249-2.904 2.824-2.995L15 30h2zm14 8h-2c-.513 0-.936.386-.993.883L28 39v6c0 .513.386.936.883.993L29 46h2c.513 0 .936-.386.993-.883L32 45v-6c0-.513-.386-.936-.883-.993L31 38zm14-12h-2c-.513 0-.936.386-.993.883L42 27v18c0 .513.386.936.883.993L43 46h2c.513 0 .936-.386.993-.883L46 45V27c0-.513-.386-.936-.883-.993L45 26zm-28 6h-2c-.513 0-.936.386-.993.883L14 33v12c0 .513.386.936.883.993L15 46h2c.513 0 .936-.386.993-.883L18 45V33c0-.513-.386-.936-.883-.993L17 32zm27-20c2.21 0 4 1.79 4 4s-1.79 4-4 4c-.999 0-1.913-.366-2.614-.972l-7.62 7.622c.152.421.234.876.234 1.35 0 2.21-1.79 4-4 4s-4-1.79-4-4c0-.126.006-.25.017-.373l-6.72-3.36C18.574 25.314 17.366 26 16 26c-2.21 0-4-1.79-4-4s1.79-4 4-4 4 1.79 4 4c0 .126-.006.25-.017.373l6.72 3.36C27.426 24.686 28.634 24 30 24c.999 0 1.913.366 2.614.972l7.62-7.622C40.082 16.93 40 16.474 40 16c0-2.21 1.79-4 4-4zM30 26c-1.105 0-2 .895-2 2s.895 2 2 2 2-.895 2-2-.895-2-2-2zm-14-6c-1.105 0-2 .895-2 2s.895 2 2 2 2-.895 2-2-.895-2-2-2zm28-6c-1.105 0-2 .895-2 2s.895 2 2 2 2-.895 2-2-.895-2-2-2z"/>
    </g>
</svg>
