<svg xmlns="http://www.w3.org/2000/svg" width="48" height="48" viewBox="0 0 48 48">
    <g fill="none" fill-rule="evenodd">
        <g>
            <g>
                <g>
                    <g>
                        <g>
                            <path d="M0 0H48V48H0z" transform="translate(-1140 -181) translate(124 165) translate(825) translate(191 16)"/>
                            <path fill="#8B919C" d="M24.757 9.151c.496.206.89.605 1.093 1.107l2.917 7.212c.287.71.946 1.195 1.702 1.252l7.678.578c1.102.083 1.928 1.054 1.846 2.17-.04.54-.293 1.043-.702 1.394L33.415 27.9c-.578.495-.83 1.28-.65 2.025l1.83 7.57c.261 1.086-.396 2.181-1.469 2.447-.52.129-1.07.04-1.527-.245l-6.547-4.1c-.645-.403-1.46-.403-2.105 0l-6.548 4.1c-.939.588-2.171.294-2.753-.657-.282-.461-.369-1.018-.241-1.545l1.829-7.57c.18-.745-.072-1.53-.65-2.025l-5.876-5.036c-.843-.723-.948-2-.234-2.853.346-.414.843-.67 1.378-.71l7.678-.58c.756-.056 1.415-.54 1.702-1.251l2.916-7.212c.419-1.035 1.587-1.53 2.609-1.107z" transform="translate(-1140 -181) translate(124 165) translate(825) translate(191 16)"/>
                        </g>
                    </g>
                </g>
            </g>
        </g>
    </g>
</svg>
