<svg xmlns="http://www.w3.org/2000/svg" width="48" height="48" viewBox="0 0 48 48">
    <g fill="none" fill-rule="evenodd">
        <g>
            <g>
                <g>
                    <g>
                        <path d="M0 0H48V48H0z" transform="translate(-315 -181) translate(124 165) translate(191 16)"/>
                        <path fill="#ffffff" d="M19.764 8c.757 0 1.45.428 1.789 1.106l1.894 3.788c.339.678 1.032 1.106 1.79 1.106H36c2.21 0 4 1.79 4 4v18c0 2.21-1.79 4-4 4H12c-2.21 0-4-1.79-4-4V12c0-2.21 1.79-4 4-4h7.764zm-2.856 9.309l-.765.727c-1.343 1.275-1.66 3.295-.772 4.92 1.294 2.37 2.885 4.45 4.772 6.243 1.906 1.811 4.114 3.328 6.625 4.551 1.694.825 3.723.512 5.09-.786l.616-.586c.8-.76.833-2.026.072-2.827-.023-.025-.047-.049-.072-.072l-1.688-1.604c-.6-.57-1.543-.57-2.143 0l-.457.434c-.412.391-.97.589-1.536.544-1.881-.15-3.336-.712-4.364-1.69-1.001-.95-1.598-2.293-1.791-4.027-.07-.622.156-1.24.61-1.672l.395-.375c.562-.534.585-1.422.05-1.985l-.05-.05-1.837-1.745c-.772-.734-1.983-.734-2.755 0z" transform="translate(-315 -181) translate(124 165) translate(191 16)"/>
                    </g>
                </g>
            </g>
        </g>
    </g>
</svg>
