<svg xmlns="http://www.w3.org/2000/svg" width="48" height="48" viewBox="0 0 48 48">
    <g fill="none" fill-rule="evenodd">
        <g>
            <g>
                <g>
                    <g>
                        <path d="M0 0H48V48H0z" transform="translate(-330 -233) translate(-38 217) translate(352) translate(16 16)"/>
                        <path fill="#FFF" d="M24 8l13.789 5.894c1.355.678 2.211 2.063 2.211 3.578V38c0 1.105-.895 2-2 2s-2-.895-2-2V22c0-1.054-.816-1.918-1.85-1.995L34 20H14c-1.054 0-1.918.816-1.995 1.85L12 22v16c0 1.054-.816 1.918-1.85 1.995L10 40c-1.105 0-2-.895-2-2V17.472c0-1.515.856-2.9 2.211-3.578L24 8zm-2 25c.552 0 1 .448 1 1v5c0 .552-.448 1-1 1h-6c-.552 0-1-.448-1-1v-5c0-.552.448-1 1-1h6zm10 0c.552 0 1 .448 1 1v5c0 .552-.448 1-1 1h-6c-.552 0-1-.448-1-1v-5c0-.552.448-1 1-1h6zm-10-9c.552 0 1 .448 1 1v5c0 .552-.448 1-1 1h-6c-.552 0-1-.448-1-1v-5c0-.552.448-1 1-1h6zm10 0c.552 0 1 .448 1 1v5c0 .552-.448 1-1 1h-6c-.552 0-1-.448-1-1v-5c0-.552.448-1 1-1h6z" transform="translate(-330 -233) translate(-38 217) translate(352) translate(16 16)"/>
                    </g>
                </g>
            </g>
        </g>
    </g>
</svg>
