<svg xmlns="http://www.w3.org/2000/svg" xmlns:xlink="http://www.w3.org/1999/xlink" width="48" height="48" viewBox="0 0 48 48">
    <defs>
        <path id="6tb10dgnna" d="M34.216 20.833H27.86L22.065 9.33c-.122-.202-.337-.324-.569-.324h-3.213c-.437 0-.756.42-.646.85l1.848 10.978h-6.11l-1.94-3.296c-.121-.205-.338-.33-.573-.33H8.668c-.422 0-.737.392-.655.813l1.175 5.987-1.175 5.986c-.082.421.233.814.655.814h2.194c.235 0 .452-.126.572-.33l1.942-3.297h6.109l-1.848 10.974c-.11.431.21.851.646.851h3.213c.232 0 .447-.123.569-.324l5.794-11.501h6.357c3.195 0 5.784-1.42 5.784-3.173 0-1.753-2.59-3.174-5.784-3.174z"/>
    </defs>
    <g fill="none" fill-rule="evenodd">
        <g>
            <g>
                <g>
                    <g transform="translate(-700 -181) translate(124 165) translate(440) translate(136 16)">
                        <path d="M0 0H48V48H0z"/>
                        <use fill="#8B919C" fill-rule="nonzero" xlink:href="#6tb10dgnna"/>
                    </g>
                </g>
            </g>
        </g>
    </g>
</svg>
