<svg xmlns="http://www.w3.org/2000/svg" width="48" height="48" viewBox="0 0 48 48">
    <g fill="none" fill-rule="evenodd">
        <g>
            <g>
                <g>
                    <g>
                        <g>
                            <path d="M0 0H48V48H0z" transform="translate(-865 -181) translate(124 165) translate(550) translate(191 16)"/>
                            <path fill="#ffffff" d="M24 8c1.105 0 2 .895 2 2v1.153c5.579.862 9.986 5.27 10.847 10.847H38c1.105 0 2 .895 2 2s-.895 2-2 2h-1.153c-.862 5.578-5.269 9.985-10.846 10.847L26 38c0 1.105-.895 2-2 2s-2-.895-2-2v-1.153c-5.578-.861-9.985-5.268-10.847-10.846L10 26c-1.105 0-2-.895-2-2s.895-2 2-2h1.153c.861-5.578 5.269-9.986 10.847-10.847V10c0-1.105.895-2 2-2zm0 25c2.143 0 4.11-.749 5.656-2H18.76c-.174 0-.335-.019-.483-.055l.094.078C19.912 32.26 21.87 33 24 33zm0-18c-4.97 0-9 4.03-9 9 0 2.201.79 4.218 2.103 5.782-.05-.16-.081-.332-.097-.51L17 29.125C17 26.847 18.728 25 21.275 25h.563c.648.47 1.473.75 2.372.75.899 0 1.724-.28 2.372-.75h.563c2.472 0 3.733 1.736 3.85 3.921l.005.2c0 .197-.007.388-.025.567C32.24 28.138 33 26.158 33 24c0-4.97-4.03-9-9-9zm0 3c1.657 0 3 1.343 3 3v1c0 1.657-1.343 3-3 3s-3-1.343-3-3v-1c0-1.657 1.343-3 3-3z" transform="translate(-865 -181) translate(124 165) translate(550) translate(191 16)"/>
                        </g>
                    </g>
                </g>
            </g>
        </g>
    </g>
</svg>
