<svg xmlns="http://www.w3.org/2000/svg" width="48" height="48" viewBox="0 0 48 48">
    <g fill="none" fill-rule="evenodd">
        <g>
            <g>
                <g>
                    <g>
                        <path d="M0 0H48V48H0z" transform="translate(-32 -233) translate(16 217) translate(16 16)"/>
                        <path fill="#FFF" d="M19.296 8.656c.855-1.48 5.55-.37 10.488 2.48 4.937 2.85 8.246 6.362 7.39 7.843-.426.74-1.81.833-3.704.386l-5.72 9.908c1.155 1.302 1.662 2.434 1.264 3.125-.771 1.335-4.663.565-9.04-1.689l-5.66 8.529c-.322.483-.963.634-1.466.344-.502-.29-.692-.921-.434-1.44l4.558-9.176c-4.056-2.64-6.6-5.57-5.837-6.89.465-.807 2.068-.845 4.228-.253l5.567-9.643c-1.414-1.467-2.073-2.763-1.634-3.524z" transform="translate(-32 -233) translate(16 217) translate(16 16)"/>
                    </g>
                </g>
            </g>
        </g>
    </g>
</svg>
