<svg xmlns="http://www.w3.org/2000/svg" width="48" height="48" viewBox="0 0 48 48">
    <g fill="none" fill-rule="evenodd">
        <path d="M0 0H48V48H0z"/>
        <path fill="#8B919C" d="M18.214 33c.292 0 .57.128.76.35l2.83 3.3c.19.222.467.35.76.35h2.221c.292 0 .57-.128.76-.35l2.83-3.3c.19-.222.467-.35.76-.35h4.785c.446 0 .839.296.961.725l1.43 5c.15.531-.157 1.085-.688 1.237-.09.025-.182.038-.274.038H12c-.552 0-1-.448-1-1 0-.093.013-.185.038-.275l1.429-5c.123-.429.515-.725.962-.725h4.785zm5.46-25c6.075 0 11 4.835 11 10.8 0 3.976-3.666 9.376-11 16.2-7.333-6.824-11-12.224-11-16.2 0-5.965 4.925-10.8 11-10.8zm0 7c-2.209 0-4 1.79-4 4s1.791 4 4 4c2.21 0 4-1.79 4-4s-1.79-4-4-4z"/>
    </g>
</svg>
