<svg xmlns="http://www.w3.org/2000/svg" width="48" height="48" viewBox="0 0 48 48">
    <g fill="none" fill-rule="evenodd">
        <g>
            <g>
                <g>
                    <g>
                        <g>
                            <path d="M0 0H48V48H0z" transform="translate(-865 -181) translate(124 165) translate(550) translate(191 16)"/>
                            <path fill="#ffffff" d="M34 8c1.105 0 2 .895 2 2v12.832c-1.225-.535-2.578-.832-4-.832-5.523 0-10 4.477-10 10 0 3.272 1.571 6.177 4 8H10c-1.105 0-2-.895-2-2V10c0-1.105.895-2 2-2h24zM19 31h-4c-.552 0-1 .448-1 1 0 .513.386.936.883.993L15 33h4c.552 0 1-.448 1-1 0-.513-.386-.936-.883-.993L19 31zm1-8h-5c-.552 0-1 .448-1 1 0 .513.386.936.883.993L15 25h5c.552 0 1-.448 1-1 0-.513-.386-.936-.883-.993L20 23zm7-8H15c-.552 0-1 .448-1 1 0 .513.386.936.883.993L15 17h12c.552 0 1-.448 1-1 0-.513-.386-.936-.883-.993L27 15zm5 9c4.418 0 8 3.582 8 8s-3.582 8-8 8-8-3.582-8-8 3.582-8 8-8zm-2.702 3.498c-.402-.401-1.053-.401-1.455 0-.401.402-.401 1.053 0 1.455l2.909 2.908-2.666 2.668c-.402.402-.402 1.053 0 1.454.401.402 1.053.402 1.454 0l2.667-2.666 2.667 2.666c.402.402 1.053.402 1.455 0 .401-.401.401-1.052 0-1.454l-2.667-2.668 2.909-2.908c.402-.402.402-1.053 0-1.455-.402-.401-1.053-.401-1.455 0l-2.909 2.908z" transform="translate(-865 -181) translate(124 165) translate(550) translate(191 16)"/>
                        </g>
                    </g>
                </g>
            </g>
        </g>
    </g>
</svg>
