<svg xmlns="http://www.w3.org/2000/svg" width="470" height="554" viewBox="0 0 470 554">
    <defs>
        <filter id="7nnuxa8fga" width="109.5%" height="110.8%" x="-4.7%" y="-5.4%" filterUnits="objectBoundingBox">
            <feOffset dx="-4" dy="3" in="SourceAlpha" result="shadowOffsetOuter1"/>
            <feColorMatrix in="shadowOffsetOuter1" result="shadowMatrixOuter1" values="0 0 0 0 0 0 0 0 0 0 0 0 0 0 0 0 0 0 0.2 0"/>
            <feMerge>
                <feMergeNode in="shadowMatrixOuter1"/>
                <feMergeNode in="SourceGraphic"/>
            </feMerge>
        </filter>
        <filter id="q6610gmsxb" width="138.5%" height="133.3%" x="-19.2%" y="-16.7%" filterUnits="objectBoundingBox">
            <feOffset dx="-4" dy="3" in="SourceAlpha" result="shadowOffsetOuter1"/>
            <feColorMatrix in="shadowOffsetOuter1" result="shadowMatrixOuter1" values="0 0 0 0 0 0 0 0 0 0 0 0 0 0 0 0 0 0 0.2 0"/>
            <feMerge>
                <feMergeNode in="shadowMatrixOuter1"/>
                <feMergeNode in="SourceGraphic"/>
            </feMerge>
        </filter>
        <filter id="qw56lqc84c" width="123%" height="119.6%" x="-11.5%" y="-9.8%" filterUnits="objectBoundingBox">
            <feOffset dx="-4" dy="3" in="SourceAlpha" result="shadowOffsetOuter1"/>
            <feColorMatrix in="shadowOffsetOuter1" result="shadowMatrixOuter1" values="0 0 0 0 0 0 0 0 0 0 0 0 0 0 0 0 0 0 0.2 0"/>
            <feMerge>
                <feMergeNode in="shadowMatrixOuter1"/>
                <feMergeNode in="SourceGraphic"/>
            </feMerge>
        </filter>
    </defs>
    <g fill="none" fill-rule="evenodd">
        <path fill="#1D2835" d="M0 0L304 163.786 304 284 0 120.214z" opacity=".5" transform="matrix(1 0 0 -1 48 554)"/>
        <path fill="#1D2835" d="M0 0L390 210.12 390 364.342 0 154.222z" opacity=".5" transform="matrix(1 0 0 -1 80 364.342)"/>
        <path fill="#1E252E" d="M0 45.545L80 0 80 31.287 0 76.832z" transform="translate(0 363)"/>
        <g>
            <path fill="#1E2936" d="M103.715 14.26l-2.455 5.11c.542 1.2.897 2.464 1.065 3.75l4.53 3.102-1.674 6.137-5.32.447c-.418.577-.887 1.128-1.407 1.648s-1.071.99-1.648 1.407l-.447 5.32-6.137 1.674-3.102-4.53c-1.286-.168-2.55-.523-3.75-1.065l-5.11 2.455-4.467-4.466 2.618-5.45c-.37-.997-.616-2.032-.738-3.08l-5.03-3.444 1.674-6.136 6.306-.53c.293-.36.607-.709.942-1.044.335-.335.684-.649 1.043-.942l.531-6.306 6.136-1.675 3.445 5.03c1.047.123 2.082.37 3.08.739l5.449-2.618 4.466 4.466zm-10.077 6.685c-2.343-2.343-6.142-2.343-8.485 0-2.344 2.344-2.344 6.143 0 8.486 2.343 2.343 6.142 2.343 8.485 0 2.343-2.343 2.343-6.142 0-8.486zM25.58 119.817l-1.557 3.276c.353.773.586 1.588.7 2.415l2.925 2.014-1.052 3.938-3.418.266c-.267.37-.566.722-.898 1.054-.332.332-.685.631-1.054.898l-.266 3.418-3.938 1.052-2.014-2.926c-.827-.113-1.642-.346-2.415-.7l-3.276 1.558-2.89-2.89 1.66-3.493c-.241-.643-.404-1.31-.487-1.983l-3.248-2.236 1.052-3.938 4.052-.315c.187-.23.388-.453.602-.667.214-.214.437-.415.667-.602l.315-4.052 3.938-1.052 2.236 3.248c.674.083 1.34.246 1.983.488l3.493-1.661 2.89 2.89zm-7.605 4.208c-1.367-1.367-3.583-1.367-4.95 0s-1.367 3.583 0 4.95 3.583 1.367 4.95 0 1.367-3.583 0-4.95z" transform="translate(121 80)"/>
            <g filter="url(#7nnuxa8fga)" transform="translate(121 80) translate(40 35)">
                <path fill="#5B7793" stroke="#13161A" stroke-width="2" d="M76.667 136L113.333 136 117 156 73 156z"/>
                <rect width="100" height="10" x="45" y="156" fill="#5B7793" stroke="#13161A" stroke-width="2" rx="4"/>
                <rect width="190" height="136" fill="#5B7793" stroke="#13161A" stroke-width="2" rx="10"/>
                <circle cx="95" cy="125" r="4" fill="#13161A"/>
                <path fill="#031020" stroke="#13161A" stroke-width="2" d="M0 14H190V114H0z"/>
                <g transform="translate(27.071 46.683)">
                    <path fill="#5B7793" d="M12.5 5c.69 0 1.25.569 1.25 1.27v2.54h2.977c.474 0 .907.271 1.118.701L20 13.89v5.08c0 .7-.56 1.27-1.25 1.27H17.5c0 1.402-1.12 2.539-2.5 2.539s-2.5-1.137-2.5-2.54h-5c0 1.403-1.12 2.54-2.5 2.54s-2.5-1.137-2.5-2.54H1.25c-.69 0-1.25-.568-1.25-1.27V7.54C0 6.137 1.12 5 2.5 5h10zM5 18.968c-.69 0-1.25.569-1.25 1.27 0 .701.56 1.27 1.25 1.27s1.25-.569 1.25-1.27c0-.701-.56-1.27-1.25-1.27zm11.25 1.27l-.008-.148c-.073-.632-.601-1.122-1.242-1.122-.638 0-1.165.486-1.24 1.114l-.01.156c0 .701.56 1.27 1.25 1.27s1.25-.569 1.25-1.27zm-.162-10.159H13.75v3.81h5l-1.546-3.112c-.19-.38-.551-.636-.96-.688l-.156-.01z"/>
                    <path stroke="#5B7793" stroke-dasharray="2 3" stroke-width="3" d="M9.4 38.85c5.79-8.734 16.62-13.1 32.492-13.1 23.808 0 32.141 20.245 47.616 22.627 10.317 1.588 23.08-1.39 38.288-8.932"/>
                    <path fill="#5B7793" d="M80.486 12.64h-2.352l-4.522-7.386c-.095-.158-.263-.254-.444-.254H71.41c-.34 0-.59.33-.504.668l1.442 6.972h-3.643l-1.515-2.591c-.094-.16-.263-.26-.446-.26H65.52c-.329 0-.575.31-.51.64l.916 4.071-.917 4.071c-.064.33.182.64.511.64h1.223c.183 0 .352-.1.446-.26l1.515-2.59h3.643l-1.442 6.97c-.086.339.163.669.504.669h1.758c.181 0 .349-.096.444-.254l4.522-7.386h2.352c2.493 0 4.514-.483 4.514-1.86 0-1.377-2.02-1.86-4.514-1.86z"/>
                    <circle cx="70.51" cy="37.704" r="4.5" fill="#13161A" stroke="#5B7793" stroke-width="3"/>
                    <circle cx="9.799" cy="37.704" r="4.5" fill="#13161A" stroke="#5B7793" stroke-width="3"/>
                    <circle cx="127.65" cy="38.895" r="4.5" fill="#13161A" stroke="#5B7793" stroke-width="3"/>
                    <path fill="#0080C6" stroke="#13161A" stroke-width="2" d="M128 0c6.627 0 12 5.014 12 11.2 0 4.124-4 9.724-12 16.8l-.593-.528C119.802 20.645 116 15.221 116 11.2 116 5.014 121.373 0 128 0zm0 7c-2.761 0-5 2.239-5 5s2.239 5 5 5 5-2.239 5-5-2.239-5-5-5z"/>
                </g>
                <g>
                    <path fill="#0079C2" d="M9.764 0.387L13.1 0.387 12.165 3.878z" transform="translate(14 27.033)"/>
                    <path fill="#43586C" d="M6.045 6.042c-1.087 1.091-2.688 1.253-3.576.362-.888-.892-.726-2.5.36-3.59C3.918 1.722 5.519 1.56 6.407 2.45c.887.892.726 2.5-.361 3.59M7.77 1.12C6.154-.486 3.351-.305 1.51 1.522-.332 3.349-.514 6.13 1.104 7.736 2.72 9.34 5.524 9.16 7.366 7.334c1.84-1.827 2.022-4.61.405-6.215" transform="translate(14 27.033)"/>
                    <path fill="#43586C" d="M6.823 8.967L9.188 8.967 6.03 5.119 3.665 5.119zM44.756 6.79c.227 0 .438-.037.633-.11.195-.072.363-.175.505-.307.142-.133.254-.292.335-.478.081-.185.122-.386.122-.604v-.024c0-.217-.04-.418-.122-.604-.081-.185-.193-.344-.335-.477-.142-.133-.31-.236-.505-.308-.195-.073-.406-.109-.633-.109-.227 0-.436.036-.627.109-.19.072-.357.175-.5.308-.141.133-.253.292-.334.477-.081.186-.122.387-.122.604v.024c0 .451.15.814.451 1.087.3.274.677.411 1.132.411m-.22 4.011c-.535 0-1.046-.059-1.533-.175-.487-.117-.937-.284-1.352-.501l.634-1.378c.34.186.683.33 1.028.435.345.105.737.157 1.175.157.633 0 1.102-.149 1.406-.447.305-.298.457-.737.457-1.317V7.26c-.276.33-.576.588-.901.774-.325.185-.735.277-1.23.277-.382 0-.747-.066-1.096-.199-.348-.133-.657-.328-.925-.586-.267-.258-.48-.574-.639-.948-.158-.375-.237-.803-.237-1.287v-.024c0-.483.08-.912.243-1.286.163-.375.378-.69.646-.949.268-.257.576-.453.925-.586.349-.133.71-.199 1.083-.199.504 0 .918.093 1.242.278.324.185.613.415.864.689v-.846h1.851V7.38c0 1.152-.276 2.001-.828 2.55-.309.305-.696.527-1.163.664-.467.137-1.016.205-1.65.205M19.935 7.212c.414 0 .738-.074.974-.223.235-.15.353-.38.353-.695V6.27c0-.282-.11-.505-.329-.67-.22-.166-.572-.248-1.06-.248h-2.166v1.86h2.228zm-.499-3.407c.414 0 .742-.07.986-.211.243-.14.365-.368.365-.683v-.024c0-.282-.105-.497-.316-.646-.212-.149-.516-.223-.913-.223h-1.85v1.787h1.728zM15.881.387h3.95c.98 0 1.721.25 2.223.749.39.386.584.865.584 1.437v.024c0 .242-.03.455-.091.64-.06.186-.141.353-.242.502-.1.15-.218.28-.351.393-.133.112-.276.21-.43.29.493.185.881.436 1.164.755.283.318.424.759.424 1.322v.025c0 .386-.074.724-.225 1.014-.15.29-.364.532-.644.725-.28.193-.616.338-1.008.435-.393.097-.829.145-1.307.145h-4.047V.387zM24.503 2.368h1.85v1.305c.187-.443.442-.798.767-1.064.325-.265.763-.386 1.315-.362v1.92h-.097c-.617 0-1.102.186-1.455.557-.353.37-.53.946-.53 1.727v2.392h-1.85V2.368zM29.826 8.843h1.948V2.368h-1.948v6.475zm0-7.188h1.948V.025h-1.948v1.63zM36.523 7.406c.22 0 .424-.043.615-.127.19-.085.357-.206.5-.363.141-.157.255-.346.34-.568.085-.221.128-.465.128-.73v-.025c0-.265-.043-.509-.128-.73-.085-.222-.199-.411-.34-.568-.143-.157-.31-.278-.5-.363-.19-.084-.395-.127-.615-.127-.219 0-.424.043-.614.127-.191.085-.36.206-.506.363-.146.157-.261.344-.347.561-.085.218-.127.464-.127.737v.024c0 .266.042.51.127.731.086.222.201.411.347.568.146.157.315.278.506.363.19.084.395.127.614.127m-.474 1.558c-.382 0-.751-.073-1.108-.218-.357-.145-.674-.36-.95-.646-.276-.286-.497-.636-.663-1.05-.167-.416-.25-.893-.25-1.433v-.024c0-.54.083-1.016.25-1.431.166-.415.385-.765.657-1.051.272-.286.586-.502.944-.647.357-.144.73-.217 1.12-.217.494 0 .902.097 1.223.29.32.193.59.419.81.677V.024h1.85v8.819h-1.85v-.93c-.228.306-.502.558-.822.755-.321.197-.725.296-1.211.296M54.17 5.098c-.058-.41-.204-.743-.439-.997-.235-.253-.548-.38-.937-.38-.39 0-.705.125-.944.374-.24.25-.395.584-.468 1.003h2.787zm-1.194 3.89c-.487 0-.94-.08-1.357-.242-.418-.16-.78-.39-1.084-.688-.304-.298-.541-.65-.712-1.057-.17-.407-.255-.86-.255-1.36v-.024c0-.458.079-.893.237-1.304.158-.411.38-.77.663-1.075.285-.306.623-.548 1.017-.725.393-.177.83-.266 1.309-.266.543 0 1.014.097 1.412.29.397.193.728.453.992.78.263.325.458.7.584 1.123.126.423.19.863.19 1.322 0 .073-.003.15-.007.23-.004.08-.01.165-.019.254h-4.54c.09.419.274.735.554.948.28.213.627.32 1.04.32.309 0 .585-.052.829-.157.243-.104.494-.274.754-.507l1.06.93c-.31.378-.682.675-1.12.888-.439.213-.954.32-1.547.32z" transform="translate(14 27.033)"/>
                </g>
            </g>
            <g filter="url(#q6610gmsxb)" transform="translate(121 80) translate(237 103)">
                <path fill="#5B7793" stroke="#13161A" stroke-width="2" d="M30.842 0l2.872 8.025c1.883.697 3.634 1.662 5.206 2.848l8.255-1.515L52 17.643l-5.268 6.117c.17 1.055.26 2.137.26 3.24 0 1.103-.09 2.185-.26 3.24L52 36.357l-4.825 8.285-8.255-1.515c-1.572 1.186-3.323 2.15-5.206 2.848L30.842 54h-9.66l-3.063-8.556c-1.479-.667-2.864-1.503-4.129-2.484l-9.165 1.682L0 36.357l6.246-7.252c-.072-.692-.109-1.394-.109-2.105 0-.71.037-1.413.11-2.105L0 17.643l4.825-8.285 9.165 1.682c1.265-.981 2.65-1.817 4.13-2.484L21.18 0h9.66zm-4.175 17.122c-5.155 0-9.334 4.128-9.334 9.22 0 5.091 4.179 9.219 9.334 9.219 5.154 0 9.333-4.128 9.333-9.22 0-5.091-4.179-9.219-9.333-9.219z"/>
                <circle cx="26" cy="27" r="15" fill="#031020" stroke="#13161A" stroke-width="2"/>
                <g>
                    <path fill="#0080C6" stroke="#13161A" stroke-width="2" d="M13 0c1.105 0 2 .895 2 2h1.125C17.161 2 18 2.84 18 3.875v10.25C18 15.161 17.16 16 16.125 16H1.875C.839 16 0 15.16 0 14.125V3.875C0 2.839.84 2 1.875 2H3c0-1.105.895-2 2-2s2 .895 2 2h4c0-1.105.895-2 2-2z" transform="translate(17 19)"/>
                    <path fill="#13161A" d="M0 6H18V8H0z" transform="translate(17 19)"/>
                </g>
            </g>
            <g stroke="#13161A" stroke-width="2" filter="url(#qw56lqc84c)" transform="translate(121 80) translate(175 125)">
                <path fill="#5B7793" d="M51.6 0l4.806 13.672c3.15 1.188 6.08 2.832 8.71 4.852l13.812-2.58L87 30.057l-8.814 10.421c.286 1.798.435 3.642.435 5.521 0 1.88-.149 3.723-.435 5.52L87 61.943l-8.072 14.115-13.812-2.581c-2.63 2.02-5.56 3.664-8.71 4.852L51.6 92H35.438l-5.123-14.577c-2.475-1.136-4.792-2.56-6.909-4.232L8.072 76.057 0 61.942l10.45-12.355c-.12-1.18-.182-2.376-.182-3.587 0-1.211.062-2.408.182-3.587L0 30.058l8.072-14.115 15.334 2.866c2.118-1.671 4.435-3.096 6.91-4.232L35.438 0H51.6z"/>
                <circle cx="44" cy="46" r="25" fill="#031020"/>
                <path fill="#0080C6" d="M43.486 28l-.173.009c-.914.09-1.629.885-1.629 1.853l-.001 1.92-.475.05c-.94.096-1.241.256-2.09.48-1.493.396-2.787.967-3.88 1.715-1.105.758-1.971 1.664-2.59 2.718-.568.965-.88 2.038-.938 3.21l-.01.47.009.4c.052 1.259.339 2.332.868 3.223.576.973 1.386 1.782 2.42 2.427 1.003.624 2.213 1.144 3.628 1.563 1.189.352 2.493.674 3.915.969l.72.144c1.382.275 2.504.537 3.361.785.842.243 1.492.483 1.946.717.402.206.653.41.76.587.113.19.171.41.171.677v.076l-.007.151c-.038.44-.323.818-.929 1.135-.746.392-1.842.597-3.282.597-1.843 0-3.533-.28-5.074-.838-1.564-.566-3.09-1.33-4.58-2.292l-.388-.25L30 55.481l1.135.792c1.931 1.305 4.047 2.282 6.351 2.937l.77.206c1.284.327 1.886.56 3.196.7l.232.021v2c0 1.028.807 1.862 1.802 1.862h2.267l.174-.009c.914-.09 1.629-.885 1.629-1.853V60.06l.687-.107c.397-.07 1.617-.151 1.995-.244 1.555-.381 2.904-.937 4.043-1.67 1.16-.745 2.07-1.674 2.725-2.783.603-1.022.931-2.174.986-3.446l.008-.462-.009-.396c-.05-1.11-.303-2.077-.762-2.908-.51-.923-1.26-1.72-2.242-2.391-.955-.653-2.117-1.207-3.486-1.666-1.175-.394-2.49-.752-3.943-1.076l-2.386-.517c-.67-.149-1.265-.286-1.783-.412-.903-.22-1.608-.448-2.108-.682-.448-.21-.736-.428-.871-.635-.138-.21-.207-.462-.207-.772v-.076l.008-.144c.035-.334.273-.664.773-.973.607-.375 1.58-.576 2.912-.576 1.37 0 2.74.224 4.113.673 1.397.456 2.828 1.08 4.292 1.874l.414.224 4.619-5.324-1.21-.738c-1.612-.947-3.35-1.684-5.222-2.214l-.586-.157c-.591-.15-2.029-.277-2.65-.38l-.108-.018-.001-2.202c0-1.028-.807-1.862-1.802-1.862h-2.269z"/>
            </g>
        </g>
    </g>
</svg>
