<svg xmlns="http://www.w3.org/2000/svg" width="48" height="48" viewBox="0 0 48 48">
    <g fill="none" fill-rule="evenodd">
        <g>
            <g>
                <g>
                    <path d="M0 0H48V48H0z" transform="translate(-315 -181) translate(124 165) translate(191 16)"/>
                    <path fill="#ffffff" d="M26 8v11l.005.176C26.096 20.751 27.402 22 29 22h9v16c0 1.105-.895 2-2 2H12c-1.105 0-2-.895-2-2V10c0-1.105.895-2 2-2h14zm3 23H17c-.552 0-1 .448-1 1s.448 1 1 1h12c.552 0 1-.448 1-1s-.448-1-1-1zm-6-8h-6c-.552 0-1 .448-1 1s.448 1 1 1h6c.552 0 1-.448 1-1s-.448-1-1-1zm14.154-3H29l-.117-.007c-.497-.057-.883-.48-.883-.993V9.182L37.154 20zM22 15h-5c-.552 0-1 .448-1 1s.448 1 1 1h5c.552 0 1-.448 1-1s-.448-1-1-1z" transform="translate(-315 -181) translate(124 165) translate(191 16)"/>
                </g>
            </g>
        </g>
    </g>
</svg>
