<svg xmlns="http://www.w3.org/2000/svg" width="48" height="48" viewBox="0 0 48 48">
    <g fill="none" fill-rule="evenodd">
        <g>
            <g>
                <g>
                    <g>
                        <g>
                            <path d="M0 0H48V48H0z" transform="translate(-590 -181) translate(124 165) translate(275) translate(191 16)"/>
                            <path fill="#8B919C" d="M14.443 13.478l.144.128 3.44 3.305c.789.814.808 2.085.074 2.921l-.13.135-.832.8c-.524.503-.76 1.233-.628 1.946.476 2.59 1.504 4.644 3.081 6.158 1.6 1.537 3.767 2.52 6.5 2.949.612.096 1.231-.073 1.707-.458l.138-.122 1-.96c.795-.764 2.027-.806 2.87-.128l.145.127 3.44 3.306c.788.814.807 2.085.073 2.921l-.129.135-1.635 1.57c-2.033 1.952-5.109 2.35-7.574.98-3.643-2.027-6.907-4.424-9.79-7.193-2.869-2.755-5.361-5.876-7.478-9.366-1.393-2.297-1.062-5.226.777-7.157l.189-.19 1.749-1.68c.794-.762 2.026-.804 2.869-.127zM38.286 22c.946 0 1.714.672 1.714 1.5 0 .78-.68 1.42-1.55 1.493l-.164.007h-4.572C32.768 25 32 24.328 32 23.5c0-.78.68-1.42 1.55-1.493l.164-.007h4.572zm-2.242-9.572c.556.542.6 1.411.126 2.006l-.102.115-3.496 3.575c-.579.592-1.528.603-2.12.023-.556-.543-.6-1.411-.126-2.006l.102-.115 3.495-3.575c.58-.592 1.529-.603 2.121-.023zM24.5 8c.78 0 1.42.68 1.493 1.55l.007.164v4.572c0 .946-.672 1.714-1.5 1.714-.78 0-1.42-.68-1.493-1.55L23 14.287V9.714C23 8.768 23.672 8 24.5 8z" transform="translate(-590 -181) translate(124 165) translate(275) translate(191 16)"/>
                        </g>
                    </g>
                </g>
            </g>
        </g>
    </g>
</svg>
