<svg xmlns="http://www.w3.org/2000/svg" width="48" height="48" viewBox="0 0 48 48">
    <g fill="none" fill-rule="evenodd">
        <g>
            <g>
                <g>
                    <g>
                        <path d="M0 0H48V48H0z" transform="translate(-590 -181) translate(124 165) translate(275) translate(191 16)"/>
                        <path fill="#8B919C" d="M20.549 36.443c.938.257 1.906.409 2.893.45l.495.01-.01 3.097c-1.254-.004-2.49-.153-3.689-.44l-.511-.132.822-2.985zm-6.202-3.85c.93 1.039 2.02 1.923 3.23 2.614l.407.223-1.442 2.742c-1.559-.819-2.972-1.89-4.182-3.164l-.325-.353 2.312-2.063zm9.636-18.528c5.493 0 9.946 4.448 9.946 9.935s-4.453 9.935-9.946 9.935c-5.493 0-9.946-4.448-9.946-9.935s4.453-9.935 9.946-9.935zm-12.766 11.91c.212 1.385.648 2.714 1.286 3.945l.22.407-2.7 1.521c-.863-1.528-1.469-3.19-1.79-4.928l-.08-.475 3.064-.47zm13.166-7.153h-2.368v7.282l5.78 2.718 1.755-1.859-5.167-2.04v-6.101zm-15-1.41l2.825 1.277c-.571 1.261-.936 2.609-1.076 4.003l-.038.466L8 22.96c.114-1.773.52-3.495 1.193-5.11l.19-.437zm5.911-6.855l1.684 2.6c-1.171.757-2.213 1.699-3.084 2.786l-.284.367-2.488-1.847c1.05-1.411 2.326-2.642 3.773-3.64l.4-.266zM40 24c0 8.727-6.995 15.823-15.69 15.997l-.327.003v-3.097C31.117 36.903 36.9 31.126 36.9 24c0-7.02-5.612-12.73-12.598-12.9l-.319-.003c-1.414 0-2.795.226-4.106.665l-.434.154-1.09-2.9c1.637-.613 3.37-.956 5.145-1.009L23.983 8C32.83 8 40 15.163 40 24z" transform="translate(-590 -181) translate(124 165) translate(275) translate(191 16)"/>
                    </g>
                </g>
            </g>
        </g>
    </g>
</svg>
