<svg xmlns="http://www.w3.org/2000/svg" width="48" height="48" viewBox="0 0 48 48">
    <g fill="none" fill-rule="evenodd">
        <g>
            <g>
                <g>
                    <g>
                        <path d="M0 0H48V48H0z" transform="translate(-315 -351) translate(124 165) translate(0 170) translate(191 16)"/>
                        <path fill="#8B919C" d="M34 8c1.105 0 2 .895 2 2v12.832c-1.225-.535-2.578-.832-4-.832-5.523 0-10 4.477-10 10 0 3.272 1.571 6.177 4 8H10c-1.105 0-2-.895-2-2V10c0-1.105.895-2 2-2h24zM19 31h-4c-.552 0-1 .448-1 1 0 .513.386.936.883.993L15 33h4c.552 0 1-.448 1-1 0-.513-.386-.936-.883-.993L19 31zm1-8h-5c-.552 0-1 .448-1 1 0 .513.386.936.883.993L15 25h5c.552 0 1-.448 1-1 0-.513-.386-.936-.883-.993L20 23zm7-8H15c-.552 0-1 .448-1 1 0 .513.386.936.883.993L15 17h12c.552 0 1-.448 1-1 0-.513-.386-.936-.883-.993L27 15zm5 9c4.418 0 8 3.582 8 8s-3.582 8-8 8-8-3.582-8-8 3.582-8 8-8zm4.655 4.362c-.43-.45-1.11-.48-1.573-.09l-.096.09-4.141 4.146-1.831-1.808-.112-.102c-.462-.377-1.131-.343-1.557.102-.427.448-.458 1.154-.091 1.638l.091.108 3.5 3.554 5.81-5.893.098-.116c.36-.484.327-1.185-.098-1.63z" transform="translate(-315 -351) translate(124 165) translate(0 170) translate(191 16)"/>
                    </g>
                </g>
            </g>
        </g>
    </g>
</svg>
