<svg xmlns="http://www.w3.org/2000/svg" width="48" height="48" viewBox="0 0 48 48">
    <g fill="none" fill-rule="evenodd">
        <g>
            <g>
                <g>
                    <g>
                        <path d="M0 0H48V48H0z" transform="translate(-590 -351) translate(124 165) translate(275 170) translate(191 16)"/>
                        <path fill="#8B919C" d="M26 8v11l.005.176C26.096 20.751 27.402 22 29 22h9v16c0 1.105-.895 2-2 2H12c-1.105 0-2-.895-2-2V10c0-1.105.895-2 2-2h14zm11.154 12H29l-.117-.007c-.497-.057-.883-.48-.883-.993V9.182L37.154 20z" transform="translate(-590 -351) translate(124 165) translate(275 170) translate(191 16)"/>
                    </g>
                </g>
            </g>
        </g>
    </g>
</svg>
