<svg xmlns="http://www.w3.org/2000/svg" width="48" height="48" viewBox="0 0 48 48">
    <g fill="none" fill-rule="evenodd">
        <g>
            <g>
                <g>
                    <g>
                        <g>
                            <path d="M0 0H48V48H0z" transform="translate(-1140 -181) translate(124 165) translate(825) translate(191 16)"/>
                            <path fill="#8B919C" d="M34 8c1.105 0 2 .895 2 2v2.42c-.77-.002-1.542.29-2.13.879L22.39 24.86c-.243.3-.435.639-.558 1.006l-1.337 4.012-.07.198-.061.203c-.038.137-.072.277-.098.424-.176.969-.056 1.892.73 2.662.773.759 1.688.872 2.64.692.091-.017.18-.037.265-.058l.236-.065.187-.06.119-.047 4.013-1.338c.367-.122.706-.314 1-.565l.005.007L36 25.345V38c0 1.105-.895 2-2 2H10c-1.105 0-2-.895-2-2V10c0-1.105.895-2 2-2h24zM18 31h-3c-.552 0-1 .448-1 1s.448 1 1 1h3c.552 0 1-.448 1-1s-.448-1-1-1zm14.472-13.528l4.243 4.242-8.319 8.319c-.11.11-.243.192-.39.241l-4.014 1.338c-.076.025-.992.42-1.413.008-.421-.413-.03-1.35-.004-1.427l1.337-4.012c.05-.147.132-.281.242-.391l8.318-8.318zM19 23h-4c-.552 0-1 .448-1 1s.448 1 1 1h4c.552 0 1-.448 1-1s-.448-1-1-1zm17.88-8.604l2.829 2.828c.39.39.39 1.024 0 1.414l-1.89 2.02-4.243-4.243 1.89-2.02c.39-.39 1.024-.39 1.415 0zM25 15H15c-.552 0-1 .448-1 1s.448 1 1 1h10c.552 0 1-.448 1-1s-.448-1-1-1z" transform="translate(-1140 -181) translate(124 165) translate(825) translate(191 16)"/>
                        </g>
                    </g>
                </g>
            </g>
        </g>
    </g>
</svg>
