<svg xmlns="http://www.w3.org/2000/svg" width="48" height="48" viewBox="0 0 48 48">
    <g fill="none" fill-rule="evenodd">
        <g>
            <g>
                <g>
                    <g>
                        <path d="M0 0H48V48H0z" transform="translate(-154 -233) translate(-38 217) translate(176) translate(16 16)"/>
                        <path fill="#FFF" d="M40 32l-5 8H11l-3-8h32zm-7 2h-1v1h1v-1zm-3 0h-1v1h1v-1zm8-7v4h-5v-4h5zm-6 0v4h-5v-4h5zm-6 2v2h-6v-2h6zM12.628 8.09c.11-.076.242-.105.367-.083l.091.026 7.811 3.894 3.743-2.62c1.88-1.317 3.949-1.61 4.619-.652.647.924-.246 2.674-2 3.98l-.192.137-3.743 2.621.986 8.67c.005.128-.045.253-.136.347l-.074.064-1.893 1.325c-.23.162-.536.099-.668-.12l-3.145-6.834-3.597 2.52.117 2.6c.006.129-.044.256-.135.35l-.075.066-1.292.904c-.224.157-.518.104-.657-.1l-.04-.074-1.597-3.754-2.981-2.784c-.186-.174-.179-.466 0-.65l.074-.064 1.292-.905c.11-.077.245-.106.371-.083l.092.027 2.404 1 3.597-2.518-5.286-5.234c-.206-.17-.205-.48-.015-.671l.07-.06 1.892-1.324zM35 22v4h-5v-4h5z" transform="translate(-154 -233) translate(-38 217) translate(176) translate(16 16)"/>
                    </g>
                </g>
            </g>
        </g>
    </g>
</svg>
