<svg xmlns="http://www.w3.org/2000/svg" xmlns:xlink="http://www.w3.org/1999/xlink" width="500" height="544" viewBox="0 0 500 544">
    <defs>
        <filter id="h6hdgaiw1a" width="109.3%" height="110.6%" x="-4.6%" y="-5.3%" filterUnits="objectBoundingBox">
            <feOffset dx="-3" dy="3" in="SourceAlpha" result="shadowOffsetOuter1"/>
            <feColorMatrix in="shadowOffsetOuter1" result="shadowMatrixOuter1" values="0 0 0 0 0 0 0 0 0 0 0 0 0 0 0 0 0 0 0.2 0"/>
            <feMerge>
                <feMergeNode in="shadowMatrixOuter1"/>
                <feMergeNode in="SourceGraphic"/>
            </feMerge>
        </filter>
        <filter id="ocllumonoc" width="113.3%" height="127.6%" x="-6.6%" y="-13.8%" filterUnits="objectBoundingBox">
            <feOffset dy="3" in="SourceAlpha" result="shadowOffsetInner1"/>
            <feComposite in="shadowOffsetInner1" in2="SourceAlpha" k2="-1" k3="1" operator="arithmetic" result="shadowInnerInner1"/>
            <feColorMatrix in="shadowInnerInner1" values="0 0 0 0 0 0 0 0 0 0 0 0 0 0 0 0 0 0 0.1 0"/>
        </filter>
        <path id="nnvein68cb" d="M65.167 116L96.833 116 100 133 62 133z"/>
        <path id="vaavioiyud" d="M0 0.015L5.388 0.015 5.388 5.403 0 5.403z"/>
    </defs>
    <g fill="none" fill-rule="evenodd">
        <g>
            <g>
                <g>
                    <path d="M0 0H500V544H0z" transform="translate(-710 -95) translate(710 95)"/>
                    <g fill="#E6EBF1" opacity=".5">
                        <path d="M0 0L304 163.786 304 284 0 120.214z" transform="translate(-710 -95) translate(710 95) translate(58 260) matrix(1 0 0 -1 0 284)"/>
                    </g>
                    <g fill="#E6EBF1" opacity=".5">
                        <path d="M0 0L390 210.12 390 364.342 0 154.222z" transform="translate(-710 -95) translate(710 95) translate(80) matrix(1 0 0 -1 0 364.342)"/>
                    </g>
                    <g fill="#E6EBF1">
                        <path d="M0 0L80 43.102 80 74.737 0 31.635z" transform="translate(-710 -95) translate(710 95) translate(0 363) matrix(1 0 0 -1 0 74.737)"/>
                    </g>
                </g>
                <g filter="url(#h6hdgaiw1a)" transform="translate(-710 -95) translate(710 95) translate(169 147)">
                    <g>
                        <use fill="#CAD0D7" xlink:href="#nnvein68cb"/>
                        <use fill="#000" filter="url(#ocllumonoc)" xlink:href="#nnvein68cb"/>
                        <use stroke="#45474E" stroke-width="1.7" xlink:href="#nnvein68cb"/>
                    </g>
                    <rect width="86" height="9" x="38" y="133" fill="#CAD0D7" stroke="#45474E" stroke-width="1.7" rx="3.4"/>
                    <rect width="162" height="116" fill="#CAD0D7" stroke="#45474E" stroke-width="1.7" rx="8.5"/>
                    <circle cx="81" cy="106" r="3" fill="#45474E" opacity=".7"/>
                    <path fill="#FFF" stroke="#45474E" stroke-width="1.7" d="M0 12H162V97H0z"/>
                    <g opacity=".9">
                        <path d="M0 0H34V7.034H0z" transform="translate(121 103)"/>
                        <g>
                            <g transform="translate(121 103) translate(0 .195) translate(0 .02)">
                                <mask id="gbkwhlqaee" fill="#fff">
                                    <use xlink:href="#vaavioiyud"/>
                                </mask>
                                <path fill="#383838" d="M3.67 3.696c-.66.668-1.632.767-2.17.222-.54-.545-.442-1.529.218-2.197.66-.667 1.632-.767 2.171-.221.54.545.441 1.529-.219 2.196M4.718.685C3.736-.297 2.034-.187.916.93-.202 2.049-.312 3.75.67 4.733c.982.982 2.684.872 3.802-.246C5.59 3.369 5.7 1.667 4.718.685" mask="url(#gbkwhlqaee)"/>
                            </g>
                            <path fill="#383838" d="M4.143 5.506L5.579 5.506 3.661 3.152 2.225 3.152z" transform="translate(121 103) translate(0 .195)"/>
                            <path fill="#0079C2" d="M5.928 0.257L7.954 0.257 7.386 2.393z" transform="translate(121 103) translate(0 .195)"/>
                            <g fill="#383838">
                                <path d="M2.106 2.79c.138 0 .266-.022.384-.066.118-.044.22-.107.307-.189.086-.08.154-.178.203-.292.05-.113.074-.236.074-.37V1.86c0-.133-.025-.256-.074-.37-.05-.113-.117-.21-.203-.291-.086-.082-.189-.144-.307-.189-.118-.044-.246-.066-.384-.066s-.265.022-.38.066c-.117.045-.218.107-.304.189-.086.08-.154.178-.203.292-.05.113-.074.236-.074.37v.014c0 .276.091.498.274.665.182.168.411.251.687.251m-.133 2.454c-.325 0-.636-.036-.931-.107-.296-.071-.57-.174-.821-.307l.385-.842c.206.113.414.202.624.266.21.064.447.096.713.096.385 0 .67-.091.854-.274.185-.182.277-.45.277-.805v-.192c-.167.202-.35.36-.547.473-.197.113-.446.17-.746.17-.232 0-.454-.041-.666-.122-.211-.082-.399-.201-.561-.359-.163-.157-.292-.35-.388-.58-.096-.23-.144-.491-.144-.787v-.015c0-.296.049-.558.147-.787C.268.842.4.65.561.492c.163-.158.35-.277.562-.359.212-.081.431-.122.658-.122.305 0 .557.057.754.17.197.114.372.254.524.422V.085h1.124v3.068c0 .704-.168 1.224-.503 1.56-.187.186-.422.322-.706.406-.283.083-.617.125-1.001.125" transform="translate(121 103) translate(0 .195) translate(25.067 1.384)"/>
                            </g>
                            <path fill="#383838" d="M12.103 4.433c.252 0 .449-.046.592-.137.143-.091.214-.233.214-.425v-.015c0-.172-.067-.309-.2-.41-.133-.101-.347-.152-.643-.152h-1.315v1.139h1.352zM11.8 2.348c.252 0 .451-.043.599-.129.148-.086.222-.225.222-.418v-.014c0-.173-.064-.304-.192-.396-.129-.09-.314-.136-.555-.136h-1.123v1.093h1.05zM9.642.257h2.398c.595 0 1.045.153 1.35.458.236.236.354.53.354.88v.014c0 .148-.018.279-.055.392-.037.113-.085.216-.147.307-.061.091-.132.171-.213.24-.08.069-.168.128-.26.177.299.114.534.268.706.462.171.195.258.465.258.81v.014c0 .237-.046.444-.137.621-.091.178-.221.326-.391.444s-.374.207-.613.266c-.238.059-.503.089-.793.089H9.642V.257zM14.877 1.469H16v.798c.114-.27.269-.488.466-.65.197-.163.463-.237.798-.222V2.57h-.059c-.374 0-.669.114-.883.34-.215.227-.322.58-.322 1.057V5.43h-1.123V1.47zM18.108 5.43h1.183V1.47h-1.183V5.43zm0-4.397h1.183V.035h-1.183v.998zM22.175 4.551c.133 0 .257-.026.373-.078.116-.051.217-.125.303-.221.086-.097.155-.212.207-.348.052-.135.078-.284.078-.447v-.015c0-.162-.026-.311-.078-.447-.052-.135-.12-.251-.207-.347-.086-.096-.187-.17-.303-.222-.116-.052-.24-.078-.373-.078s-.258.026-.373.078c-.116.052-.219.126-.307.222-.089.096-.159.21-.21.343-.052.133-.078.284-.078.451v.015c0 .163.026.312.077.447.052.136.122.251.211.348.088.096.19.17.307.221.115.052.24.078.373.078m-.288.953c-.232 0-.456-.044-.673-.133-.217-.088-.41-.22-.576-.395-.168-.175-.302-.39-.403-.643-.101-.254-.152-.546-.152-.876v-.015c0-.33.05-.622.152-.876.1-.253.234-.468.399-.643.165-.174.356-.306.573-.395.217-.089.443-.133.68-.133.3 0 .548.059.742.177.195.119.359.257.492.414V.035h1.124v5.396H23.12v-.57c-.138.188-.304.342-.5.462-.194.121-.439.181-.734.181M32.889 3.14c-.035-.252-.124-.455-.266-.61-.144-.156-.333-.233-.57-.233-.236 0-.427.076-.572.229-.146.153-.24.357-.285.613h1.693zm-.725 2.38c-.295 0-.57-.05-.824-.149-.254-.098-.473-.239-.658-.421-.185-.182-.329-.398-.432-.647-.104-.248-.155-.526-.155-.831v-.015c0-.28.048-.547.144-.798.096-.252.23-.47.403-.658.172-.187.378-.335.617-.443.239-.109.503-.163.794-.163.33 0 .616.059.858.177.241.119.442.277.602.477.16.2.278.429.355.687.076.26.114.529.114.81 0 .044 0 .091-.003.14-.003.05-.006.101-.012.155h-2.756c.054.257.166.45.336.58.17.131.38.196.632.196.187 0 .355-.031.503-.096.147-.064.3-.167.458-.31l.643.57c-.188.23-.414.412-.68.542-.266.13-.58.196-.939.196z" transform="translate(121 103) translate(0 .195)"/>
                        </g>
                    </g>
                    <g fill="#0080C6" stroke="#45474E" stroke-width="1.7" transform="translate(74 28)">
                        <path d="M7 0c3.535 0 6.4 2.865 6.4 6.4 0 .19-.009.382-.026.572l-2.561 28.542C10.636 37.488 8.982 39 7 39c-1.982 0-3.636-1.512-3.813-3.486L.626 6.972C.31 3.452 2.908.342 6.428.026 6.618.009 6.809 0 7 0z"/>
                        <circle cx="7" cy="49" r="4"/>
                    </g>
                </g>
            </g>
        </g>
    </g>
</svg>
