<svg xmlns="http://www.w3.org/2000/svg" width="48" height="48" viewBox="0 0 48 48">
    <g fill="none" fill-rule="evenodd">
        <path d="M0 0H48V48H0z"/>
        <path fill="#8B919C" d="M24.566 8.175l.098.078 8.715 7.746L36 16c2.21 0 4 1.79 4 4v16c0 2.21-1.79 4-4 4H12c-2.21 0-4-1.79-4-4V20c0-2.21 1.79-4 4-4l2.62-.001 8.716-7.746c.347-.31.856-.335 1.23-.078zM15 22c-.513 0-.936.463-.993 1.06L14 23.2v9.6c0 .663.448 1.2 1 1.2.513 0 .936-.463.993-1.06L16 32.8v-9.6c0-.663-.448-1.2-1-1.2zm6 0c-.513 0-.936.463-.993 1.06L20 23.2v9.6c0 .663.448 1.2 1 1.2.513 0 .936-.463.993-1.06L22 32.8v-9.6c0-.663-.448-1.2-1-1.2zm6 0c-.513 0-.936.463-.993 1.06L26 23.2v9.6c0 .663.448 1.2 1 1.2.513 0 .936-.463.993-1.06L28 32.8v-9.6c0-.663-.448-1.2-1-1.2zm6 0c-.513 0-.936.463-.993 1.06L32 23.2v9.6c0 .663.448 1.2 1 1.2.513 0 .936-.463.993-1.06L34 32.8v-9.6c0-.663-.448-1.2-1-1.2zm-9-11.662L17.631 16h12.738L24 10.339z"/>
    </g>
</svg>
