<svg xmlns="http://www.w3.org/2000/svg" xmlns:xlink="http://www.w3.org/1999/xlink" width="180" height="139" viewBox="0 0 180 139">
    <defs>
        <path id="w2kydvapaa" d="M0 0H180V139H0z"/>
    </defs>
    <g fill="none" fill-rule="evenodd">
        <g>
            <g>
                <g transform="translate(-154 -379) translate(124 295) translate(30 84)">
                    <mask id="jlj0pcnhbb" fill="#fff">
                        <use xlink:href="#w2kydvapaa"/>
                    </mask>
                    <use fill="#CAD0D7" xlink:href="#w2kydvapaa"/>
                    <g fill="#E6EBF1" mask="url(#jlj0pcnhbb)">
                        <path d="M66.365 3.362c.755 0 1.376.14 1.863.42.487.28.92.627 1.298 1.041V3.544h2.777v7.582c0 1.742-.415 3.027-1.243 3.856-.463.462-1.045.797-1.745 1.004-.7.207-1.525.31-2.476.31-.803 0-1.57-.088-2.301-.264-.73-.177-1.407-.43-2.029-.758l.951-2.083c.511.28 1.025.499 1.544.658.517.158 1.105.237 1.763.237.95 0 1.653-.225 2.11-.676.457-.45.685-1.114.685-1.991v-.475c-.414.5-.865.889-1.352 1.17-.487.28-1.103.42-1.845.42-.573 0-1.121-.101-1.645-.302-.524-.201-.986-.496-1.388-.886-.402-.39-.722-.868-.96-1.435-.207-.495-.324-1.054-.35-1.675l-.006-.307c0-.73.122-1.38.366-1.946.243-.566.566-1.044.968-1.434.402-.39.865-.685 1.389-.886.523-.2 1.065-.301 1.626-.301zm12.867 0c.815 0 1.522.146 2.118.438.597.292 1.094.685 1.49 1.179.395.493.687 1.06.876 1.699.19.64.284 1.306.284 2 0 .11-.003.226-.01.347-.006.122-.014.25-.027.384h-6.814c.134.634.41 1.111.831 1.434.42.323.94.484 1.562.484.462 0 .877-.079 1.242-.237.365-.158.743-.414 1.133-.767l1.59 1.406c-.464.573-1.023 1.02-1.681 1.343-.658.323-1.432.484-2.32.484-.731 0-1.41-.121-2.038-.365-.627-.244-1.169-.59-1.626-1.042-.457-.45-.813-.983-1.069-1.598-.224-.538-.35-1.13-.377-1.775l-.006-.317c0-.694.119-1.352.356-1.973s.57-1.163.996-1.626c.426-.463.935-.828 1.526-1.096.59-.268 1.244-.402 1.964-.402zM2.265 2.265C5.028-.5 9.235-.771 11.663 1.656c2.309 2.31 2.175 6.23-.223 8.985l2.35 2.883h-3.55l-.933-1.144c-2.581 1.442-5.694 1.239-7.65-.717C-.772 9.235-.5 5.028 2.264 2.265zM59.929 0v13.337h-2.777V11.93c-.341.463-.752.844-1.234 1.142-.48.298-1.086.448-1.817.448-.573 0-1.127-.11-1.663-.33-.536-.218-1.011-.544-1.425-.976-.414-.433-.746-.963-.995-1.59-.22-.549-.342-1.17-.37-1.863l-.005-.338c0-.817.125-1.538.375-2.166.249-.627.578-1.157.986-1.59.408-.431.88-.757 1.416-.976.536-.22 1.096-.33 1.681-.33.742 0 1.355.147 1.836.44.481.291.886.633 1.215 1.022V0h2.777zM29.761.548c1.471 0 2.584.378 3.338 1.133.538.54.828 1.198.87 1.977l.005.234c0 .365-.046.688-.136.968-.09.28-.212.533-.363.758-.152.226-.327.423-.527.594-.2.17-.415.317-.644.438.74.28 1.321.661 1.746 1.142.388.441.6 1.038.632 1.791l.005.246c0 .585-.113 1.096-.338 1.535-.225.438-.547.804-.967 1.096-.42.292-.924.512-1.514.658-.59.146-1.243.22-1.96.22h-6.074V.547h5.927zm12.913 2.814v2.904h-.146c-.925 0-1.653.281-2.183.841-.53.56-.795 1.431-.795 2.613v3.617h-2.776V3.544h2.776v1.973c.28-.67.664-1.205 1.151-1.607.487-.402 1.145-.585 1.973-.548zm5.01.182v9.793h-2.922V3.544h2.923zm7.129 2.174c-.329 0-.637.065-.922.192-.286.128-.54.31-.758.548-.22.238-.393.521-.521.85-.107.274-.169.578-.187.911l-.005.24c0 .402.064.77.192 1.105.128.335.301.621.52.859.22.238.473.42.759.548.285.128.593.192.922.192.33 0 .637-.064.923-.192.286-.128.536-.31.749-.548.213-.238.383-.524.512-.859.102-.268.163-.557.184-.868l.007-.273c0-.402-.064-.77-.191-1.106-.129-.335-.3-.621-.512-.859-.213-.237-.463-.42-.75-.548-.285-.127-.593-.192-.922-.192zM29.826 8.057h-3.252v2.814h3.344c.62 0 1.108-.113 1.462-.338.318-.203.492-.507.524-.912l.005-.175c0-.427-.164-.765-.493-1.014-.329-.25-.859-.375-1.59-.375zM9.613 3.671c-1.332-1.349-3.735-1.103-5.366.547C2.616 5.87 2.373 8.3 3.706 9.648c.947.96 2.436 1.112 3.804.526L5.5 7.706h3.55l.585.718c1.105-1.585 1.138-3.58-.022-4.753zM67.17 5.664c-.341 0-.655.054-.942.164-.286.11-.536.265-.749.466-.212.2-.38.441-.502.722-.122.28-.182.584-.182.913v.037c0 .682.225 1.23.676 1.644.45.414 1.017.621 1.699.621.34 0 .658-.055.95-.164.292-.11.544-.265.758-.466.213-.201.38-.441.502-.722.098-.224.156-.464.176-.719l.007-.23c0-.33-.061-.634-.183-.914s-.29-.521-.502-.722c-.214-.201-.466-.356-.758-.466-.292-.11-.61-.164-.95-.164zm12.063-.074c-.585 0-1.057.19-1.416.567-.36.378-.594.883-.704 1.516h4.184c-.086-.62-.305-1.123-.658-1.507-.353-.383-.822-.576-1.406-.576zM19.66.548l-1.403 5.28-3.603-5.28h5.006zm9.692 2.467h-2.778v2.703h2.595c.62 0 1.114-.106 1.48-.32.329-.19.51-.489.542-.893l.006-.175c0-.426-.158-.752-.475-.978-.317-.225-.774-.337-1.37-.337zM47.685 0v2.467h-2.923V0h2.923z" transform="translate(48 61)"/>
                    </g>
                </g>
            </g>
        </g>
    </g>
</svg>
