<svg xmlns="http://www.w3.org/2000/svg" width="20" height="20" viewBox="0 0 20 20">
    <g fill="none" fill-rule="evenodd">
        <path d="M0 0H20V20H0z"/>
        <path fill="#45474E" fill-rule="nonzero" d="M11.246 3.061c-.085.144-.133.312-.133.491l.001.057c.01.15.051.29.12.413H8.81c-.448 0-.815.35-.839.793v6.412c0 .449.35.815.793.839l6.412.001c.449 0 .815-.351.84-.794V8.805c.14.077.3.12.47.12.179 0 .346-.048.49-.132v3.034c0 .663-.537 1.2-1.2 1.2h-1.845V14.8c0 .663-.537 1.2-1.2 1.2H5.2c-.663 0-1.2-.537-1.2-1.2V7.237c0-.663.537-1.2 1.2-1.2h1.811v.96H5.8c-.448 0-.815.351-.839.794L4.96 14.2c0 .448.351.815.794.839l6.379.001c.448 0 .815-.351.838-.794v-1.219h-4.76c-.663 0-1.2-.537-1.2-1.2V4.261c0-.663.537-1.2 1.2-1.2h3.035zm4.593 0c.824 0 1.133.263 1.133 1.01l.005.628v2.523c0 .264-.213.478-.478.478-.238 0-.435-.173-.472-.4l-.007-.078V4.696L12.475 8.24c-.187.187-.49.187-.677 0-.167-.166-.185-.424-.056-.61l.056-.067L15.34 4.02h-2.524c-.265 0-.479-.215-.479-.48 0-.237.173-.434.4-.472l.079-.006h3.022z"/>
    </g>
</svg>
