<svg xmlns="http://www.w3.org/2000/svg" xmlns:xlink="http://www.w3.org/1999/xlink" width="220" height="46" viewBox="0 0 220 46">
    <defs>
        <path id="fbs35hho5a" d="M0 0.096L34.865 0.096 34.865 34.961 0 34.961z"/>
    </defs>
    <g fill="none" fill-rule="evenodd">
        <path d="M0 0H220V45.517H0z"/>
        <g>
            <g transform="translate(0 1.264) translate(0 .13)">
                <mask id="z70h0kw2zb" fill="#fff">
                    <use xlink:href="#fbs35hho5a"/>
                </mask>
                <path fill="#FFF" d="M23.747 23.918c-4.27 4.322-10.559 4.963-14.047 1.434-3.487-3.529-2.853-9.893 1.417-14.214 4.27-4.32 10.56-4.963 14.047-1.433 3.488 3.529 2.854 9.892-1.417 14.213M30.53 4.432C24.175-1.922 13.161-1.21 5.928 6.024c-7.233 7.233-7.946 18.247-1.592 24.601 6.353 6.354 17.368 5.641 24.6-1.592C36.17 21.8 36.884 10.785 30.53 4.432" mask="url(#z70h0kw2zb)"/>
            </g>
            <path fill="#FFF" d="M26.805 35.629L36.097 35.629 23.689 20.397 14.397 20.397z" transform="translate(0 1.264)"/>
            <path fill="#0079C2" d="M38.359 1.661L51.464 1.661 47.79 15.483z" transform="translate(0 1.264)"/>
            <path fill="#FFF" d="M175.828 27.009c.89 0 1.721-.144 2.486-.431.765-.287 1.426-.693 1.985-1.22.557-.526.995-1.154 1.315-1.889.319-.733.478-1.53.478-2.39v-.097c0-.86-.16-1.657-.478-2.39-.32-.734-.758-1.364-1.315-1.89-.559-.526-1.22-.932-1.985-1.22-.765-.287-1.595-.43-2.486-.43-.894 0-1.715.143-2.465.43-.75.288-1.403.694-1.96 1.22-.558.526-.997 1.156-1.316 1.89-.318.733-.477 1.53-.477 2.39v.096c0 1.786.59 3.22 1.77 4.304 1.178 1.084 2.661 1.627 4.448 1.627m-.863 15.877c-2.104 0-4.111-.232-6.025-.693-1.912-.463-3.683-1.124-5.31-1.985l2.49-5.452c1.337.733 2.683 1.306 4.04 1.722 1.355.414 2.893.621 4.615.621 2.487 0 4.328-.59 5.524-1.77 1.196-1.179 1.793-2.917 1.793-5.212v-1.244c-1.084 1.308-2.264 2.328-3.539 3.062-1.275.733-2.887 1.1-4.83 1.1-1.5 0-2.935-.264-4.305-.79-1.371-.526-2.582-1.299-3.634-2.32-1.053-1.02-1.89-2.27-2.512-3.754-.62-1.482-.932-3.18-.932-5.093v-.096c0-1.913.318-3.61.957-5.093.636-1.483 1.483-2.733 2.535-3.754 1.052-1.02 2.263-1.794 3.634-2.32 1.37-.526 2.79-.79 4.257-.79 1.976 0 3.603.368 4.878 1.1 1.274.734 2.407 1.644 3.396 2.727V9.505h7.27v19.847c0 4.56-1.086 7.922-3.254 10.091-1.211 1.212-2.734 2.088-4.567 2.63-1.834.542-3.994.813-6.48.813M78.317 28.682c1.624 0 2.9-.294 3.826-.884.924-.59 1.386-1.507 1.386-2.75v-.096c0-1.116-.431-2-1.291-2.655-.862-.653-2.248-.98-4.162-.98h-8.512v7.365h8.753zm-1.961-13.487c1.625 0 2.916-.278 3.873-.836.957-.558 1.434-1.46 1.434-2.703v-.095c0-1.116-.413-1.968-1.242-2.56-.83-.589-2.027-.884-3.588-.884h-7.27v7.078h6.793zM62.39 1.661h15.515c3.85 0 6.763.989 8.736 2.965 1.528 1.53 2.291 3.427 2.291 5.69v.097c0 .956-.12 1.801-.356 2.534-.237.735-.554 1.396-.95 1.985-.397.591-.855 1.109-1.38 1.555-.522.446-1.085.829-1.685 1.147 1.935.734 3.46 1.73 4.57 2.99 1.11 1.26 1.667 3.005 1.667 5.236v.096c0 1.53-.294 2.87-.885 4.018-.588 1.147-1.43 2.104-2.53 2.87-1.098.764-2.419 1.338-3.963 1.72-1.543.383-3.254.575-5.132.575H62.39V1.66zM96.262 9.504h7.268v5.165c.734-1.753 1.738-3.156 3.013-4.208s2.997-1.53 5.166-1.435v7.604h-.383c-2.422 0-4.328.735-5.716 2.2-1.386 1.467-2.08 3.747-2.08 6.84v9.468h-7.268V9.504zM117.172 35.138h7.652V9.504h-7.652v25.634zm0-28.455h7.652V.226h-7.652v6.457zM143.484 29.448c.862 0 1.666-.168 2.416-.503.749-.335 1.403-.812 1.96-1.435.558-.622 1.004-1.37 1.34-2.248.334-.876.502-1.84.502-2.893v-.095c0-1.052-.168-2.016-.502-2.893-.336-.877-.782-1.627-1.34-2.248-.557-.623-1.211-1.1-1.96-1.435-.75-.335-1.554-.503-2.416-.503-.86 0-1.666.168-2.414.503-.75.335-1.412.812-1.985 1.435-.575.62-1.028 1.362-1.364 2.223-.334.861-.501 1.834-.501 2.918v.095c0 1.052.167 2.017.501 2.893.336.878.79 1.626 1.364 2.248.573.623 1.236 1.1 1.985 1.435.748.335 1.554.503 2.414.503m-1.864 6.17c-1.5 0-2.95-.288-4.352-.862-1.404-.574-2.648-1.427-3.731-2.558-1.085-1.132-1.954-2.52-2.606-4.161-.654-1.642-.981-3.532-.981-5.668v-.095c0-2.136.327-4.025.98-5.668.653-1.642 1.515-3.029 2.583-4.16 1.067-1.131 2.303-1.985 3.707-2.56 1.403-.573 2.869-.86 4.4-.86 1.943 0 3.546.382 4.806 1.148 1.26.765 2.319 1.658 3.18 2.678V.226h7.27V35.14h-7.27v-3.683c-.893 1.212-1.969 2.208-3.229 2.99-1.26.78-2.845 1.171-4.757 1.171M212.809 20.312c-.225-1.625-.798-2.94-1.722-3.945-.926-1.004-2.153-1.507-3.683-1.507-1.531 0-2.767.495-3.706 1.484-.942.988-1.554 2.312-1.842 3.968h10.953zm-4.688 15.4c-1.913 0-3.692-.318-5.332-.956-1.642-.638-3.061-1.546-4.257-2.726-1.196-1.18-2.129-2.574-2.798-4.185-.67-1.609-1.004-3.403-1.004-5.38v-.096c0-1.817.312-3.539.933-5.165.62-1.626 1.49-3.044 2.606-4.257 1.116-1.211 2.447-2.167 3.994-2.869 1.545-.7 3.258-1.052 5.141-1.052 2.136 0 3.986.383 5.547 1.148 1.562.765 2.862 1.793 3.898 3.085 1.035 1.29 1.8 2.774 2.295 4.447.495 1.675.742 3.42.742 5.237 0 .287-.008.59-.024.909-.017.319-.04.653-.073 1.004h-17.838c.352 1.659 1.077 2.91 2.177 3.754 1.1.846 2.463 1.268 4.088 1.268 1.211 0 2.296-.207 3.253-.622.956-.414 1.944-1.084 2.965-2.009l4.161 3.683c-1.213 1.499-2.678 2.671-4.4 3.516-1.722.843-3.747 1.266-6.074 1.266z" transform="translate(0 1.264)"/>
        </g>
    </g>
</svg>
