<svg xmlns="http://www.w3.org/2000/svg" xmlns:xlink="http://www.w3.org/1999/xlink" width="120" height="25" viewBox="0 0 120 25">
    <defs>
        <path id="r47kl0o21a" d="M0 0.052L19.017 0.052 19.017 19.069 0 19.069z"/>
    </defs>
    <g fill="none" fill-rule="evenodd">
        <g transform="translate(0 .895) translate(0 .071)">
            <mask id="taz1rbyxeb" fill="#fff">
                <use xlink:href="#r47kl0o21a"/>
            </mask>
            <path fill="#383838" d="M12.953 13.046c-2.329 2.357-5.76 2.707-7.662.783-1.902-1.926-1.556-5.397.773-7.754 2.33-2.356 5.76-2.707 7.662-.782 1.902 1.925 1.556 5.397-.773 7.753m3.7-10.629c-3.466-3.465-9.474-3.077-13.42.869C-.712 7.23-1.1 13.239 2.365 16.705c3.466 3.465 9.474 3.076 13.419-.869 3.945-3.945 4.334-9.953.868-13.419" mask="url(#taz1rbyxeb)"/>
        </g>
        <path fill="#383838" d="M14.621 19.434L19.689 19.434 12.921 11.126 7.853 11.126z" transform="translate(0 .895)"/>
        <path fill="#0079C2" d="M20.923 0.906L28.071 0.906 26.068 8.445z" transform="translate(0 .895)"/>
        <path fill="#383838" d="M95.906 14.732c.486 0 .94-.078 1.356-.235.417-.156.778-.378 1.083-.665.304-.287.543-.63.717-1.03.174-.4.26-.835.26-1.305v-.052c0-.47-.086-.904-.26-1.304-.174-.4-.413-.744-.717-1.031-.305-.287-.666-.508-1.083-.665-.417-.157-.87-.235-1.356-.235-.487 0-.936.078-1.344.235-.409.157-.766.378-1.07.665-.304.287-.543.63-.717 1.03-.174.4-.26.835-.26 1.305v.052c0 .974.321 1.757.965 2.348.643.591 1.452.887 2.426.887m-.47 8.66c-1.148 0-2.243-.126-3.287-.378-1.043-.252-2.009-.613-2.896-1.082l1.357-2.974c.73.4 1.464.712 2.205.939.739.226 1.578.339 2.517.339 1.356 0 2.36-.322 3.013-.965.652-.643.978-1.592.978-2.844v-.678c-.591.714-1.235 1.27-1.93 1.67-.696.4-1.575.6-2.635.6-.818 0-1.6-.144-2.348-.43-.748-.288-1.409-.71-1.983-1.266-.574-.556-1.03-1.239-1.37-2.048-.338-.808-.508-1.734-.508-2.778v-.052c0-1.044.174-1.97.522-2.778.347-.81.809-1.491 1.383-2.048.574-.556 1.234-.978 1.982-1.265.748-.287 1.522-.43 2.322-.43 1.078 0 1.965.2 2.661.6.695.4 1.313.895 1.852 1.486V5.184h3.965V16.01c0 2.487-.592 4.321-1.774 5.505-.661.66-1.492 1.138-2.491 1.434-1 .296-2.179.443-3.535.443M42.718 15.645c.886 0 1.582-.16 2.087-.483.504-.322.756-.821.756-1.5v-.052c0-.609-.235-1.091-.704-1.448-.47-.356-1.226-.535-2.27-.535h-4.643v4.018h4.774zm-1.07-7.357c.887 0 1.591-.152 2.113-.456.522-.304.783-.796.783-1.474v-.052c0-.609-.226-1.074-.678-1.396-.453-.321-1.105-.482-1.957-.482h-3.965v3.86h3.705zM34.032.906h8.463c2.1 0 3.69.54 4.765 1.617.834.835 1.25 1.87 1.25 3.104v.053c0 .521-.065.982-.194 1.382-.13.4-.302.761-.519 1.083-.216.322-.466.604-.752.848-.285.243-.592.452-.92.626 1.056.4 1.888.943 2.494 1.63.605.688.909 1.64.909 2.857v.052c0 .834-.16 1.565-.483 2.191-.32.626-.78 1.148-1.38 1.565-.6.418-1.32.73-2.161.94-.842.208-1.776.312-2.8.312h-8.672V.906zM52.507 5.184h3.964v2.817c.4-.956.948-1.721 1.643-2.295.696-.574 1.635-.835 2.818-.783v4.148h-.209c-1.321 0-2.36.4-3.117 1.2-.756.8-1.135 2.044-1.135 3.73v5.165h-3.964V5.184zM63.912 19.166h4.174V5.184h-4.174v13.982zm0-15.52h4.174V.122h-4.174v3.522zM78.264 16.062c.47 0 .909-.091 1.318-.274.408-.182.765-.443 1.07-.782.303-.34.547-.748.73-1.226.182-.478.273-1.005.273-1.579v-.052c0-.574-.091-1.1-.273-1.578-.183-.478-.427-.887-.73-1.226-.305-.34-.662-.6-1.07-.783-.41-.182-.848-.274-1.318-.274-.47 0-.909.092-1.317.274-.408.183-.77.444-1.082.783-.314.339-.561.743-.744 1.213-.182.47-.274 1-.274 1.591v.052c0 .574.092 1.1.274 1.579.183.478.43.886.744 1.226.312.339.674.6 1.082.782.408.183.848.274 1.317.274m-1.017 3.366c-.818 0-1.609-.157-2.374-.47-.765-.313-1.444-.778-2.035-1.396-.592-.617-1.065-1.374-1.421-2.27-.357-.895-.535-1.925-.535-3.09v-.053c0-1.165.178-2.195.535-3.091.356-.896.826-1.652 1.408-2.27.583-.616 1.256-1.082 2.022-1.395.765-.313 1.565-.47 2.4-.47 1.06 0 1.934.209 2.622.627.687.417 1.264.904 1.734 1.46V.123h3.966v19.044h-3.966v-2.01c-.487.662-1.074 1.205-1.76 1.631-.688.426-1.553.64-2.596.64M116.077 11.08c-.122-.887-.435-1.605-.939-2.153-.505-.547-1.174-.821-2.008-.821-.836 0-1.51.27-2.022.809-.514.539-.848 1.26-1.005 2.164h5.974zm-2.557 8.4c-1.043 0-2.013-.174-2.908-.522-.896-.348-1.67-.844-2.322-1.487-.652-.643-1.16-1.404-1.526-2.283-.365-.877-.548-1.856-.548-2.934V12.2c0-.99.17-1.93.51-2.817.338-.887.812-1.66 1.42-2.322.61-.66 1.335-1.182 2.18-1.565.842-.382 1.777-.574 2.804-.574 1.164 0 2.174.209 3.025.627.852.417 1.561.977 2.127 1.682.564.704.981 1.513 1.251 2.426.27.913.405 1.865.405 2.856 0 .157-.005.323-.013.496-.01.174-.022.357-.04.548h-9.73c.192.905.587 1.587 1.188 2.048.6.46 1.343.691 2.23.691.66 0 1.252-.113 1.774-.34.521-.225 1.06-.59 1.617-1.095l2.27 2.009c-.662.817-1.461 1.457-2.4 1.917-.94.46-2.044.691-3.314.691z" transform="translate(0 .895)"/>
    </g>
</svg>
