<svg xmlns="http://www.w3.org/2000/svg" width="250" height="28" viewBox="0 0 250 28">
    <g fill="none" fill-rule="evenodd">
        <path d="M0 0H230V28H0z"/>
        <path fill="#000" fill-rule="nonzero" d="M13.555 25.111c.342 0 .652-.063.931-.189.28-.126.527-.297.743-.513.216-.216.383-.463.5-.742.117-.28.175-.572.175-.878v-1.566H7.561c-.468 0-.909.068-1.323.203-.414.135-.747.418-.999.85v-6.858h7.155c.306 0 .594-.063.864-.189s.509-.288.716-.486c.207-.198.373-.428.499-.688.126-.261.189-.518.189-.77v-1.62h-7.02c-.432 0-.878.063-1.337.189-.458.126-.814.405-1.066.837V6.427h7.992c.27 0 .544-.063.824-.189.279-.126.521-.288.729-.486.207-.198.373-.428.499-.688.126-.261.189-.536.189-.824V2.566H2.998c-.252 0-.5.05-.743.149-.242.099-.454.243-.634.432s-.329.4-.446.634c-.117.234-.175.495-.175.783v20.547h12.555zm14.607-9.909c.702 0 1.287-.234 1.755-.702.468-.468.702-1.026.702-1.674v-1.323H20.44c-.702 0-1.287.234-1.755.702-.468.468-.702 1.026-.702 1.674v1.323h10.179zm15.363 9.936c1.08 0 2.133-.135 3.159-.405 1.026-.27 1.93-.67 2.714-1.201.782-.532 1.412-1.184 1.89-1.958.477-.774.715-1.683.715-2.727 0-1.368-.364-2.538-1.093-3.51-.73-.972-1.787-1.638-3.173-1.998.486-.18.918-.441 1.296-.783s.697-.724.959-1.147c.26-.424.463-.878.607-1.364.144-.486.216-.99.216-1.512-.018-1.08-.256-1.998-.715-2.754-.46-.756-1.063-1.377-1.81-1.863-.746-.486-1.606-.837-2.578-1.053-.972-.216-1.971-.324-2.997-.324h-5.697c-.234 0-.482.045-.742.135-.262.09-.487.225-.676.405-.189.18-.346.396-.472.648s-.189.522-.189.81v20.601h8.586zm-4.347-12.339V6.184h3.375c.54 0 1.053.04 1.539.122.486.08.918.22 1.296.418.378.198.675.477.891.837.216.36.324.828.324 1.404 0 .99-.337 1.701-1.013 2.133-.675.432-1.534.648-2.578.648h-1.62c-.558 0-1.022.072-1.39.216-.37.144-.644.423-.824.837zm0 9.666v-7.02h4.374c.648.018 1.233.081 1.755.189.522.108.972.279 1.35.513.378.234.666.54.864.918.198.378.297.864.297 1.458 0 1.008-.369 1.746-1.107 2.214-.738.468-1.746.702-3.024.702h-2.511c-.396 0-.779.072-1.148.216-.368.144-.652.414-.85.81zM66.34 25.84c1.8 0 3.429-.306 4.887-.918 1.458-.612 2.7-1.454 3.726-2.524 1.026-1.072 1.822-2.34 2.39-3.808.566-1.466.85-3.046.85-4.738 0-1.71-.284-3.299-.85-4.766-.568-1.466-1.364-2.736-2.39-3.807-1.026-1.07-2.268-1.917-3.726-2.538-1.458-.62-3.087-.931-4.887-.931-1.782 0-3.402.31-4.86.931-1.458.621-2.7 1.467-3.726 2.538-1.026 1.072-1.827 2.34-2.403 3.807-.576 1.467-.864 3.056-.864 4.766 0 1.692.288 3.271.864 4.738.576 1.468 1.377 2.736 2.403 3.808 1.026 1.07 2.268 1.912 3.726 2.524 1.458.612 3.078.918 4.86.918zm0-3.726c-1.152 0-2.196-.22-3.132-.662-.936-.44-1.733-1.035-2.39-1.782-.657-.747-1.165-1.62-1.525-2.619-.36-.998-.54-2.065-.54-3.199 0-1.152.175-2.228.526-3.226.351-1 .86-1.877 1.526-2.633s1.462-1.35 2.39-1.782c.926-.432 1.975-.648 3.145-.648 1.152 0 2.196.216 3.132.648.936.432 1.733 1.026 2.39 1.782s1.165 1.633 1.525 2.633c.36.998.54 2.074.54 3.226 0 1.134-.18 2.2-.54 3.2-.36.998-.868 1.872-1.525 2.619-.657.747-1.454 1.34-2.39 1.782-.936.44-1.98.661-3.132.661zm26.271 3.726c1.8 0 3.429-.306 4.887-.918 1.458-.612 2.7-1.454 3.726-2.524 1.026-1.072 1.822-2.34 2.39-3.808.566-1.466.85-3.046.85-4.738 0-1.71-.284-3.299-.85-4.766-.568-1.466-1.364-2.736-2.39-3.807-1.026-1.07-2.268-1.917-3.726-2.538-1.458-.62-3.087-.931-4.887-.931-1.782 0-3.402.31-4.86.931-1.458.621-2.7 1.467-3.726 2.538-1.026 1.072-1.827 2.34-2.403 3.807-.576 1.467-.864 3.056-.864 4.766 0 1.692.288 3.271.864 4.738.576 1.468 1.377 2.736 2.403 3.808 1.026 1.07 2.268 1.912 3.726 2.524 1.458.612 3.078.918 4.86.918zm0-3.726c-1.152 0-2.196-.22-3.132-.662-.936-.44-1.733-1.035-2.39-1.782-.656-.747-1.165-1.62-1.525-2.619-.36-.998-.54-2.065-.54-3.199 0-1.152.175-2.228.526-3.226.352-1 .86-1.877 1.526-2.633s1.463-1.35 2.39-1.782c.927-.432 1.975-.648 3.145-.648 1.152 0 2.196.216 3.132.648.936.432 1.733 1.026 2.39 1.782s1.165 1.633 1.525 2.633c.36.998.54 2.074.54 3.226 0 1.134-.18 2.2-.54 3.2-.36.998-.868 1.872-1.526 2.619-.657.747-1.453 1.34-2.389 1.782-.936.44-1.98.661-3.132.661zm18.09 2.997c.594 0 1.094-.198 1.499-.594.404-.396.607-.882.607-1.458V2.566h-2.268c-.522 0-.981.198-1.377.594-.396.396-.594.855-.594 1.377v20.574h2.133zm16.227 0c.36 0 .648-.076.864-.23.216-.152.364-.346.446-.58.08-.234.094-.477.04-.729s-.18-.477-.378-.675l-9.72-9.531c.414-.198.801-.504 1.161-.918l8.613-9.882h-3.645c-.576 0-1.058.09-1.444.27-.387.18-.752.45-1.094.81l-7.587 8.451c-.126.144-.225.297-.297.459-.072.162-.108.36-.108.594v.594c0 .432.135.774.405 1.026l10.26 10.341h2.484zm6.075 0c.234 0 .473-.045.716-.135.243-.09.468-.225.674-.405.208-.18.374-.392.5-.635.126-.242.189-.517.189-.823V2.566h-2.268c-.234 0-.472.05-.715.149-.243.099-.455.243-.635.432s-.328.405-.446.648c-.117.242-.175.508-.175.796v20.52h2.16zm9.882 0c.54 0 1.017-.194 1.431-.58.414-.387.621-.86.621-1.418V8.857c.18.918.639 1.854 1.377 2.808l9.99 13.446h1.701c.288 0 .563-.063.823-.189.261-.126.477-.284.648-.473.172-.189.306-.4.405-.634.1-.234.149-.477.149-.729V2.566h-2.241c-.504 0-.958.198-1.363.594-.405.396-.608.873-.608 1.431v14.337c-.162-.756-.549-1.566-1.161-2.43L144.424 2.566h-1.728c-.504 0-.963.189-1.377.567-.414.378-.621.882-.621 1.512v20.466h2.187zm32.967.648c1.566 0 3.037-.302 4.415-.904 1.376-.604 2.573-1.427 3.59-2.471 1.018-1.044 1.823-2.255 2.417-3.631.594-1.378.891-2.831.891-4.361 0-.306-.009-.612-.027-.918-.018-.306-.045-.612-.081-.918h-7.803c-.702 0-1.278.225-1.728.675-.45.45-.675 1.008-.675 1.674v1.377h4.104c.306 0 .616-.045.931-.135.316-.09.599-.261.851-.513-.234 1.98-.972 3.497-2.214 4.55-1.242 1.052-2.826 1.588-4.752 1.606-1.044 0-2.011-.198-2.902-.594-.892-.396-1.656-.95-2.296-1.66-.638-.712-1.143-1.553-1.512-2.525s-.553-2.043-.553-3.213.18-2.236.54-3.2c.36-.963.855-1.804 1.485-2.524.63-.72 1.386-1.278 2.268-1.674.882-.396 1.845-.594 2.889-.594.792 0 1.615.122 2.47.364.856.244 1.688.617 2.498 1.121.576.45 1.148.635 1.715.553.567-.08 1.057-.409 1.471-.985l.999-1.134c-1.152-1.26-2.529-2.232-4.131-2.916-1.602-.684-3.312-1.026-5.13-1.026-1.584 0-3.073.301-4.469.905-1.394.603-2.614 1.44-3.658 2.51-1.044 1.071-1.868 2.35-2.47 3.835-.604 1.485-.905 3.109-.905 4.873 0 1.782.306 3.402.918 4.86.612 1.458 1.449 2.7 2.511 3.726 1.062 1.026 2.309 1.827 3.74 2.403 1.43.576 2.965.864 4.603.864zm42.039-6.372c.63 0 1.161-.207 1.593-.621.432-.414.648-.936.648-1.566V9.478h2.295c.378 0 .693-.126.945-.378s.378-.558.378-.918V6.967h-3.618V1h-1.62c-.756 0-1.323.225-1.701.675-.378.45-.567 1.08-.567 1.89v15.822h1.647zm-11.934-4.239c1.08 0 2.079-.171 2.997-.513.918-.342 1.706-.819 2.362-1.431.657-.612 1.17-1.346 1.54-2.2.369-.855.553-1.796.553-2.822s-.184-1.967-.553-2.822c-.37-.855-.882-1.588-1.54-2.2-.656-.612-1.444-1.089-2.362-1.431-.918-.342-1.917-.513-2.997-.513-1.134 0-2.173.171-3.118.513-.946.342-1.751.819-2.417 1.431-.666.612-1.184 1.345-1.553 2.2-.369.855-.553 1.796-.553 2.822s.184 1.966.553 2.822c.37.854.887 1.588 1.553 2.2.666.612 1.471 1.089 2.417 1.431.945.342 1.984.513 3.118.513zm-.108-2.295c-.558 0-1.062-.121-1.512-.364-.45-.244-.832-.572-1.147-.986-.315-.414-.559-.909-.73-1.485-.17-.576-.256-1.188-.256-1.836 0-.648.085-1.26.256-1.836.171-.576.415-1.071.73-1.485.315-.414.697-.742 1.147-.985.45-.244.954-.365 1.512-.365s1.062.121 1.512.365c.45.243.837.571 1.161.985.324.414.572.909.743 1.485.17.576.256 1.188.256 1.836 0 .648-.085 1.26-.256 1.836-.171.576-.419 1.071-.743 1.485-.324.414-.711.742-1.161.986-.45.242-.954.364-1.512.364zm13.527 13.392c.36 0 .666-.122.918-.364.252-.244.378-.563.378-.959v-1.188h-14.256v-6.615h-1.674c-.756 0-1.314.216-1.674.648-.36.432-.54 1.053-.54 1.863v6.615h16.848zm26.757.054c.684 0 1.22-.216 1.606-.648.387-.432.581-1.053.581-1.863V1.054h-1.431c-1.512 0-2.268.828-2.268 2.484v5.589h-2.862V1.054h-1.377c-1.512 0-2.268.828-2.268 2.484v12.609c-1.134.144-2.273.252-3.416.324-1.143.072-2.092.108-2.848.108h-2.214V1.783h-1.566c-.756 0-1.323.225-1.701.675-.378.45-.567 1.08-.567 1.89V19.09h5.373c.486 0 1.017-.014 1.593-.04.576-.027 1.166-.064 1.768-.108.603-.046 1.211-.1 1.823-.163.612-.063 1.197-.139 1.755-.229v7.155h1.404c.702 0 1.251-.216 1.647-.648.396-.432.594-1.053.594-1.863V11.638h2.862v14.661h1.512z"/>
    </g>
</svg>
