<svg xmlns="http://www.w3.org/2000/svg" width="230" height="28" viewBox="0 0 230 28">
    <g fill="none" fill-rule="evenodd">
        <path d="M0 0H230V28H0z"/>
        <path fill="#000" fill-rule="nonzero" d="M8.614 14.608c1.08 0 2.074-.162 2.983-.486.91-.324 1.693-.783 2.35-1.377s1.165-1.305 1.525-2.133c.36-.828.54-1.746.54-2.754s-.18-1.926-.54-2.754c-.36-.828-.868-1.539-1.525-2.133-.657-.594-1.44-1.053-2.35-1.377-.909-.324-1.903-.486-2.983-.486-1.134 0-2.169.162-3.105.486-.936.324-1.737.783-2.403 1.377-.666.594-1.183 1.305-1.552 2.133C1.183 5.932 1 6.85 1 7.858s.185 1.926.554 2.754c.369.828.886 1.539 1.552 2.133.666.594 1.467 1.053 2.403 1.377.936.324 1.971.486 3.105.486zm12.69.594c.63 0 1.152-.211 1.566-.634.414-.423.621-.95.621-1.58V1.297H21.79c-.63 0-1.152.212-1.566.635-.414.422-.621.949-.621 1.579v11.691h1.701zM8.506 12.313c-1.134 0-2.02-.414-2.66-1.242-.639-.828-.958-1.899-.958-3.213s.32-2.385.958-3.213c.64-.828 1.526-1.242 2.66-1.242 1.134 0 2.02.414 2.66 1.242.639.828.958 1.899.958 3.213s-.32 2.385-.959 3.213c-.638.828-1.525 1.242-2.659 1.242zm12.231 14.202c.702 0 1.3-.216 1.796-.648.494-.432.742-.981.742-1.647v-7.56H7.966c-.72 0-1.323.216-1.809.648-.486.432-.729.981-.729 1.647v7.56h15.309zm-1.323-2.511H9.289v-4.833h10.125v4.833zm27.783 2.484c.756 0 1.323-.225 1.701-.675.378-.45.567-1.08.567-1.89V1.243h-1.593c-.756 0-1.323.225-1.701.675-.378.45-.567 1.08-.567 1.89v22.68h1.593zm-18.657-6.44c.432.046.855-.058 1.269-.31.504-.324 1.04-.724 1.607-1.201.567-.477 1.116-.986 1.646-1.526.532-.54 1.022-1.098 1.472-1.674.45-.576.81-1.134 1.08-1.674.648 1.08 1.467 2.088 2.457 3.024.99.936 1.971 1.746 2.943 2.43.396.27.828.387 1.296.351.468-.036.855-.216 1.161-.54l.891-.999c-1.134-.792-2.133-1.602-2.997-2.43-.864-.828-1.593-1.697-2.187-2.606-.594-.909-1.04-1.872-1.336-2.889-.297-1.016-.446-2.119-.446-3.307V2.053H35.83c-.756 0-1.332.225-1.728.675-.396.45-.594 1.08-.594 1.89v2.295c0 1.314-.184 2.529-.553 3.645-.37 1.116-.869 2.155-1.499 3.119-.63.963-1.377 1.849-2.241 2.659-.864.81-1.791 1.566-2.781 2.268l.918.864c.36.342.756.535 1.188.58zm54.432 6.44c1.512 0 2.268-.828 2.268-2.484V1.243h-1.62c-.756 0-1.323.225-1.701.675-.378.45-.567 1.08-.567 1.89v22.68h1.62zm-8.073-6.831c1.026 0 1.8-.265 2.322-.797.522-.53.783-1.237.783-2.119V1.945h-1.863c-.576 0-1.058.194-1.445.58-.386.388-.58.869-.58 1.445v4.212h-6.264V1.945h-1.863c-.576 0-1.058.194-1.445.58-.386.388-.58.869-.58 1.445v15.687h10.935zm-.783-2.511h-6.264v-6.453h6.264v6.453zm35.748-2.889c.63 0 1.152-.211 1.566-.634.414-.423.621-.95.621-1.58V1.297h-1.701c-.63 0-1.152.212-1.566.635-.414.422-.621.949-.621 1.579v10.746h1.701zm-8.235-.864c.756 0 1.364-.216 1.822-.648.46-.432.689-.963.689-1.593V1.81H92.746c-.828 0-1.462.225-1.903.675-.442.45-.662.99-.662 1.62v9.288h11.448zm-1.35-2.511h-6.237V4.321h6.237v6.561zm10.368 15.714c.396 0 .72-.122.972-.364.252-.244.378-.572.378-.986v-1.107H97.876v-2.16h11.097c.36 0 .698-.063 1.013-.189.314-.126.593-.293.837-.5.243-.206.431-.454.567-.742.135-.288.202-.594.202-.918v-4.455H95.338c-.36 0-.67.117-.931.351-.261.234-.392.549-.392.945v1.161h13.716v1.917H96.283c-.756 0-1.323.216-1.701.648-.378.432-.567 1.053-.567 1.863v4.536h16.632zm25.542-6.885c.756 0 1.323-.225 1.701-.675.378-.45.567-1.08.567-1.89V1.243h-1.647c-.756 0-1.323.225-1.701.675-.378.45-.567 1.08-.567 1.89v3.024h-3.915V1.621h-1.863c-.576 0-1.058.194-1.445.58-.386.387-.58.869-.58 1.445v2.646h-6.264V1.621h-1.863c-.576 0-1.057.194-1.444.58-.388.387-.581.869-.581 1.445v11.88h10.935c1.026 0 1.8-.265 2.322-.796.522-.532.783-1.238.783-2.12V9.424h3.915v10.287h1.647zm-9.45-6.696h-6.264V8.803h6.264v4.212zm10.719 13.473c.36 0 .666-.122.918-.364.252-.243.378-.563.378-.959v-1.188h-13.905v-6.372h-1.674c-.756 0-1.314.216-1.674.648-.36.432-.54 1.053-.54 1.863v6.372h16.497zm27.837-3.429c.378 0 .698-.113.959-.338.26-.224.391-.544.391-.958v-1.242h-10.341v-3.213c.936-.162 1.791-.427 2.565-.796.774-.37 1.44-.815 1.998-1.337s.99-1.103 1.296-1.742c.306-.639.459-1.3.459-1.984 0-1.08-.239-2.066-.716-2.957-.477-.89-1.21-1.552-2.2-1.984h3.267c.36 0 .67-.122.931-.364.262-.244.392-.563.392-.959V3.997h-7.965V1h-1.998c-1.26 0-1.89.711-1.89 2.133v.864h-6.669c-.36 0-.67.122-.931.365-.261.242-.392.562-.392.958v1.188h4.671c-.936.414-1.674 1.053-2.214 1.917-.54.864-.801 1.872-.783 3.024 0 .738.149 1.431.446 2.079.297.648.72 1.229 1.268 1.742.55.513 1.211.945 1.985 1.296.774.35 1.638.598 2.592.742v3.213h-8.883c-.378 0-.697.113-.958.337-.261.226-.392.545-.392.959v1.242h23.112zm-10.908-7.911c-.648 0-1.238-.104-1.768-.31-.531-.207-.99-.5-1.377-.878s-.689-.833-.905-1.364c-.216-.53-.324-1.12-.324-1.768 0-.612.103-1.179.31-1.701.207-.522.504-.972.891-1.35.387-.378.851-.675 1.391-.891.54-.216 1.134-.324 1.782-.324.648 0 1.242.108 1.782.324.54.216.999.513 1.377.891s.67.828.877 1.35c.208.522.311 1.089.311 1.701 0 .648-.108 1.238-.324 1.769-.216.53-.513.985-.891 1.363s-.833.67-1.364.877c-.53.207-1.12.311-1.768.311zm43.146 4.482c.63 0 1.161-.207 1.593-.621.432-.414.648-.936.648-1.566V9.721h2.295c.378 0 .693-.126.945-.378s.378-.558.378-.918V7.21h-3.618V1.243h-1.62c-.756 0-1.323.225-1.701.675-.378.45-.567 1.08-.567 1.89V19.63h1.647zm-11.934-4.239c1.08 0 2.079-.171 2.997-.513.918-.342 1.706-.819 2.362-1.431.657-.612 1.17-1.345 1.54-2.2.369-.855.553-1.796.553-2.822s-.184-1.967-.553-2.822c-.37-.854-.882-1.588-1.54-2.2-.656-.612-1.444-1.089-2.362-1.431-.918-.342-1.917-.513-2.997-.513-1.134 0-2.173.171-3.118.513-.945.342-1.751.819-2.417 1.431-.666.612-1.183 1.345-1.552 2.2-.37.856-.554 1.796-.554 2.822s.185 1.966.554 2.821c.369.855.886 1.589 1.552 2.201.666.612 1.472 1.089 2.417 1.431.945.342 1.984.513 3.118.513zm-.108-2.295c-.558 0-1.062-.121-1.512-.364-.45-.243-.833-.572-1.148-.986-.314-.414-.557-.909-.728-1.485-.172-.576-.257-1.188-.257-1.836 0-.648.085-1.26.256-1.836.172-.576.415-1.071.73-1.485.315-.414.697-.742 1.147-.986.45-.243.954-.364 1.512-.364s1.062.122 1.512.365c.45.243.837.571 1.161.985.324.414.572.909.743 1.485.17.576.256 1.188.256 1.836 0 .648-.086 1.26-.257 1.836-.17.576-.418 1.071-.742 1.485-.324.414-.711.742-1.161.986-.45.243-.954.364-1.512.364zm13.527 13.392c.36 0 .666-.122.918-.364.252-.243.378-.563.378-.959v-1.188h-14.256v-6.615h-1.674c-.756 0-1.314.216-1.674.648-.36.432-.54 1.053-.54 1.863v6.615h16.848zm26.757.054c.684 0 1.22-.216 1.606-.648.387-.432.581-1.053.581-1.863V1.297h-1.431c-1.512 0-2.268.828-2.268 2.484V9.37h-2.862V1.297h-1.377c-1.512 0-2.268.828-2.268 2.484V16.39c-1.134.144-2.273.252-3.416.324-1.143.072-2.092.108-2.848.108h-2.214V2.026h-1.566c-.756 0-1.323.225-1.701.675-.378.45-.567 1.08-.567 1.89v14.742h5.373c.486 0 1.017-.013 1.593-.04.576-.027 1.166-.063 1.769-.108.602-.045 1.21-.1 1.822-.162.612-.064 1.197-.14 1.755-.23v7.155h1.404c.702 0 1.251-.216 1.647-.648.396-.432.594-1.053.594-1.863V11.881h2.862v14.661h1.512z"/>
    </g>
</svg>
