<svg xmlns="http://www.w3.org/2000/svg" width="359" height="12" viewBox="0 0 359 12">
    <path fill="#8B919C" d="M5.028 10.144c1.524 0 2.484-.588 3.36-1.476l-.624-.612c-.804.768-1.56 1.212-2.712 1.212C3.204 9.268 1.8 7.744 1.8 5.8v-.024c0-1.932 1.392-3.444 3.252-3.444 1.14 0 1.932.48 2.64 1.152l.648-.696c-.84-.792-1.752-1.332-3.276-1.332C2.592 1.456.816 3.424.816 5.8v.024c0 2.412 1.788 4.32 4.212 4.32zm7.692 0c1.872 0 3.252-1.488 3.252-3.24V6.88c0-1.752-1.368-3.216-3.228-3.216-1.872 0-3.24 1.488-3.24 3.24v.024c0 1.752 1.356 3.216 3.216 3.216zm.024-.828c-1.308 0-2.292-1.08-2.292-2.412V6.88c0-1.308.924-2.4 2.268-2.4 1.308 0 2.304 1.092 2.304 2.424v.024c0 1.308-.936 2.388-2.28 2.388zm5.82 2.604V8.812c.48.696 1.224 1.32 2.376 1.32 1.5 0 2.964-1.2 2.964-3.228V6.88c0-2.04-1.476-3.216-2.964-3.216-1.14 0-1.872.636-2.376 1.38V3.796h-.924v8.124h.924zm2.208-2.616c-1.152 0-2.244-.96-2.244-2.4V6.88c0-1.416 1.092-2.388 2.244-2.388 1.176 0 2.184.936 2.184 2.4v.024c0 1.5-.984 2.388-2.184 2.388zm5.796 2.652c.936 0 1.536-.468 2.064-1.752l2.604-6.408h-.984L28.26 8.968l-2.256-5.172h-1.02l2.82 6.18c-.372.876-.72 1.164-1.272 1.164-.396 0-.672-.072-.972-.228l-.312.732c.42.204.804.312 1.32.312zM33.624 10V7.528c0-1.872 1.104-2.844 2.46-2.844h.072v-.996c-1.176-.048-2.076.696-2.532 1.728v-1.62H32.7V10h.924zm5.016-7.56V1.42h-1.056v1.02h1.056zM38.568 10V3.796h-.924V10h.924zm4.896 1.944c.984 0 1.812-.276 2.364-.828.504-.504.792-1.236.792-2.196V3.796h-.924v1.116c-.504-.672-1.26-1.248-2.424-1.248-1.476 0-2.916 1.116-2.916 2.928v.024c0 1.788 1.428 2.904 2.916 2.904 1.14 0 1.896-.588 2.436-1.308v.732c0 1.452-.888 2.208-2.256 2.208-.888 0-1.68-.276-2.388-.792l-.42.72c.828.576 1.788.864 2.82.864zm-.012-3.24c-1.152 0-2.148-.864-2.148-2.112v-.024c0-1.272.972-2.088 2.148-2.088 1.176 0 2.28.828 2.28 2.1v.024c0 1.248-1.104 2.1-2.28 2.1zM49.608 10V6.448c0-1.164.792-1.944 1.86-1.944 1.092 0 1.716.72 1.716 1.872V10h.924V6.148c0-1.476-.876-2.484-2.376-2.484-1.068 0-1.716.54-2.124 1.212V1.24h-.924V10h.924zm8.544.108c.444 0 .792-.096 1.116-.264v-.792c-.324.156-.588.216-.9.216-.624 0-1.044-.276-1.044-1.032V4.612h1.968v-.816h-1.968V1.924H56.4v1.872h-.864v.816h.864v3.744c0 1.26.756 1.752 1.752 1.752zm9.48 1.584l.396-.612c-1.824-1.164-2.784-2.604-2.784-4.524s.96-3.36 2.784-4.524l-.396-.612c-2.136 1.2-3.324 2.928-3.324 5.136s1.188 3.936 3.324 5.136zm4.896-1.548c1.164 0 1.908-.504 2.532-1.2l-.588-.552c-.492.528-1.104.924-1.896.924-1.296 0-2.28-1.068-2.28-2.412V6.88c0-1.332.96-2.4 2.22-2.4.84 0 1.392.42 1.884.936l.612-.648c-.576-.612-1.308-1.104-2.484-1.104-1.812 0-3.18 1.488-3.18 3.24v.024c0 1.74 1.368 3.216 3.18 3.216zm4.092 1.548c2.136-1.2 3.324-2.928 3.324-5.136S78.756 2.62 76.62 1.42l-.396.612c1.824 1.164 2.784 2.604 2.784 4.524s-.96 3.36-2.784 4.524l.396.612zm12.768-1.548c1.524 0 2.484-.588 3.36-1.476l-.624-.612c-.804.768-1.56 1.212-2.712 1.212-1.848 0-3.252-1.524-3.252-3.468v-.024c0-1.932 1.392-3.444 3.252-3.444 1.14 0 1.932.48 2.64 1.152l.648-.696c-.84-.792-1.752-1.332-3.276-1.332-2.472 0-4.248 1.968-4.248 4.344v.024c0 2.412 1.788 4.32 4.212 4.32zm6.792-.024c.744 0 1.38-.24 1.848-.696.48-.48.768-1.224.768-2.208V1.6h-.96v5.628c0 1.332-.696 2.016-1.644 2.016-.876 0-1.404-.42-1.92-1.2l-.684.588c.528.864 1.332 1.488 2.592 1.488zm14.136-.12v-.876h-4.728V1.6h-.948V10h5.676zm4.428.144c1.872 0 3.252-1.488 3.252-3.24V6.88c0-1.752-1.368-3.216-3.228-3.216-1.872 0-3.24 1.488-3.24 3.24v.024c0 1.752 1.356 3.216 3.216 3.216zm.024-.828c-1.308 0-2.292-1.08-2.292-2.412V6.88c0-1.308.924-2.4 2.268-2.4 1.308 0 2.304 1.092 2.304 2.424v.024c0 1.308-.936 2.388-2.28 2.388zm7.644 2.628c.984 0 1.812-.276 2.364-.828.504-.504.792-1.236.792-2.196V3.796h-.924v1.116c-.504-.672-1.26-1.248-2.424-1.248-1.476 0-2.916 1.116-2.916 2.928v.024c0 1.788 1.428 2.904 2.916 2.904 1.14 0 1.896-.588 2.436-1.308v.732c0 1.452-.888 2.208-2.256 2.208-.888 0-1.68-.276-2.388-.792l-.42.72c.828.576 1.788.864 2.82.864zm-.012-3.24c-1.152 0-2.148-.864-2.148-2.112v-.024c0-1.272.972-2.088 2.148-2.088 1.176 0 2.28.828 2.28 2.1v.024c0 1.248-1.104 2.1-2.28 2.1zm6.312-6.264V1.42h-1.056v1.02h1.056zM128.64 10V3.796h-.924V10h.924zm4.2.12c1.236 0 2.208-.684 2.208-1.86v-.024c0-1.116-1.032-1.488-1.992-1.776-.828-.252-1.596-.48-1.596-1.068v-.024c0-.516.468-.9 1.2-.9.6 0 1.26.228 1.836.6l.42-.696c-.636-.42-1.476-.684-2.232-.684-1.224 0-2.112.708-2.112 1.776v.024c0 1.14 1.08 1.476 2.052 1.752.816.228 1.548.468 1.548 1.092v.024c0 .6-.54.984-1.284.984-.732 0-1.476-.288-2.148-.792l-.468.66c.696.564 1.68.912 2.568.912zm6-.012c.444 0 .792-.096 1.116-.264v-.792c-.324.156-.588.216-.9.216-.624 0-1.044-.276-1.044-1.032V4.612h1.968v-.816h-1.968V1.924h-.924v1.872h-.864v.816h.864v3.744c0 1.26.756 1.752 1.752 1.752zm3.852-7.668V1.42h-1.056v1.02h1.056zM142.62 10V3.796h-.924V10h.924zm4.944.144c1.164 0 1.908-.504 2.532-1.2l-.588-.552c-.492.528-1.104.924-1.896.924-1.296 0-2.28-1.068-2.28-2.412V6.88c0-1.332.96-2.4 2.22-2.4.84 0 1.392.42 1.884.936l.612-.648c-.576-.612-1.308-1.104-2.484-1.104-1.812 0-3.18 1.488-3.18 3.24v.024c0 1.74 1.368 3.216 3.18 3.216zm6.108-.024c1.236 0 2.208-.684 2.208-1.86v-.024c0-1.116-1.032-1.488-1.992-1.776-.828-.252-1.596-.48-1.596-1.068v-.024c0-.516.468-.9 1.2-.9.6 0 1.26.228 1.836.6l.42-.696c-.636-.42-1.476-.684-2.232-.684-1.224 0-2.112.708-2.112 1.776v.024c0 1.14 1.08 1.476 2.052 1.752.816.228 1.548.468 1.548 1.092v.024c0 .6-.54.984-1.284.984-.732 0-1.476-.288-2.148-.792l-.468.66c.696.564 1.68.912 2.568.912zm11.52.024c1.524 0 2.484-.588 3.36-1.476l-.624-.612c-.804.768-1.56 1.212-2.712 1.212-1.848 0-3.252-1.524-3.252-3.468v-.024c0-1.932 1.392-3.444 3.252-3.444 1.14 0 1.932.48 2.64 1.152l.648-.696c-.84-.792-1.752-1.332-3.276-1.332-2.472 0-4.248 1.968-4.248 4.344v.024c0 2.412 1.788 4.32 4.212 4.32zm7.692 0c1.872 0 3.252-1.488 3.252-3.24V6.88c0-1.752-1.368-3.216-3.228-3.216-1.872 0-3.24 1.488-3.24 3.24v.024c0 1.752 1.356 3.216 3.216 3.216zm.024-.828c-1.308 0-2.292-1.08-2.292-2.412V6.88c0-1.308.924-2.4 2.268-2.4 1.308 0 2.304 1.092 2.304 2.424v.024c0 1.308-.936 2.388-2.28 2.388zm5.82.684V7.528c0-1.872 1.104-2.844 2.46-2.844h.072v-.996c-1.176-.048-2.076.696-2.532 1.728v-1.62h-.924V10h.924zm4.86 1.92V8.812c.48.696 1.224 1.32 2.376 1.32 1.5 0 2.964-1.2 2.964-3.228V6.88c0-2.04-1.476-3.216-2.964-3.216-1.14 0-1.872.636-2.376 1.38V3.796h-.924v8.124h.924zm2.208-2.616c-1.152 0-2.244-.96-2.244-2.4V6.88c0-1.416 1.092-2.388 2.244-2.388 1.176 0 2.184.936 2.184 2.4v.024c0 1.5-.984 2.388-2.184 2.388zm7.668.84c1.872 0 3.252-1.488 3.252-3.24V6.88c0-1.752-1.368-3.216-3.228-3.216-1.872 0-3.24 1.488-3.24 3.24v.024c0 1.752 1.356 3.216 3.216 3.216zm.024-.828c-1.308 0-2.292-1.08-2.292-2.412V6.88c0-1.308.924-2.4 2.268-2.4 1.308 0 2.304 1.092 2.304 2.424v.024c0 1.308-.936 2.388-2.28 2.388zm5.82.684V7.528c0-1.872 1.104-2.844 2.46-2.844h.072v-.996c-1.176-.048-2.076.696-2.532 1.728v-1.62h-.924V10h.924zm5.784.132c1.092 0 1.812-.504 2.244-1.068V10h.888V6.208c0-.792-.216-1.392-.636-1.812-.456-.456-1.128-.684-2.004-.684-.9 0-1.572.204-2.256.516l.276.756c.576-.264 1.152-.456 1.884-.456 1.164 0 1.848.576 1.848 1.692v.216c-.552-.156-1.116-.264-1.908-.264-1.572 0-2.652.696-2.652 2.004V8.2c0 1.272 1.164 1.932 2.316 1.932zm.18-.732c-.84 0-1.56-.456-1.56-1.236V8.14c0-.78.648-1.284 1.812-1.284.756 0 1.368.132 1.824.264v.6c0 .984-.936 1.68-2.076 1.68zm6.996.708c.444 0 .792-.096 1.116-.264v-.792c-.324.156-.588.216-.9.216-.624 0-1.044-.276-1.044-1.032V4.612h1.968v-.816h-1.968V1.924h-.924v1.872h-.864v.816h.864v3.744c0 1.26.756 1.752 1.752 1.752zm3.852-7.668V1.42h-1.056v1.02h1.056zm-.072 7.56V3.796h-.924V10h.924zm4.98.144c1.872 0 3.252-1.488 3.252-3.24V6.88c0-1.752-1.368-3.216-3.228-3.216-1.872 0-3.24 1.488-3.24 3.24v.024c0 1.752 1.356 3.216 3.216 3.216zm.024-.828c-1.308 0-2.292-1.08-2.292-2.412V6.88c0-1.308.924-2.4 2.268-2.4 1.308 0 2.304 1.092 2.304 2.424v.024c0 1.308-.936 2.388-2.28 2.388zm5.82.684V6.448c0-1.164.792-1.944 1.86-1.944 1.092 0 1.716.72 1.716 1.872V10h.924V6.148c0-1.476-.876-2.484-2.376-2.484-1.068 0-1.716.54-2.124 1.212v-1.08h-.924V10h.924zm7.464 0V8.74h-1.104V10h1.104zm5.952 0l.996-2.22h4.572l.984 2.22h1.02l-3.828-8.46h-.888L239.316 10h.972zm5.196-3.084h-3.828l1.92-4.272 1.908 4.272zM250.368 10V1.24h-.924V10h.924zm3.156 0V1.24h-.924V10h.924zm6.852 0V6.736h2.4L265.212 10h1.164l-2.58-3.432c1.32-.24 2.28-1.056 2.28-2.448v-.024c0-.66-.24-1.248-.648-1.656-.528-.528-1.356-.84-2.388-.84h-3.612V10h.948zm2.58-4.116h-2.58V2.476h2.592c1.356 0 2.148.624 2.148 1.656v.024c0 1.08-.9 1.728-2.16 1.728zm6.072-3.444V1.42h-1.056v1.02h1.056zm-.072 7.56V3.796h-.924V10h.924zm4.896 1.944c.984 0 1.812-.276 2.364-.828.504-.504.792-1.236.792-2.196V3.796h-.924v1.116c-.504-.672-1.26-1.248-2.424-1.248-1.476 0-2.916 1.116-2.916 2.928v.024c0 1.788 1.428 2.904 2.916 2.904 1.14 0 1.896-.588 2.436-1.308v.732c0 1.452-.888 2.208-2.256 2.208-.888 0-1.68-.276-2.388-.792l-.42.72c.828.576 1.788.864 2.82.864zm-.012-3.24c-1.152 0-2.148-.864-2.148-2.112v-.024c0-1.272.972-2.088 2.148-2.088 1.176 0 2.28.828 2.28 2.1v.024c0 1.248-1.104 2.1-2.28 2.1zM279.996 10V6.448c0-1.164.792-1.944 1.86-1.944 1.092 0 1.716.72 1.716 1.872V10h.924V6.148c0-1.476-.876-2.484-2.376-2.484-1.068 0-1.716.54-2.124 1.212V1.24h-.924V10h.924zm8.544.108c.444 0 .792-.096 1.116-.264v-.792c-.324.156-.588.216-.9.216-.624 0-1.044-.276-1.044-1.032V4.612h1.968v-.816h-1.968V1.924h-.924v1.872h-.864v.816h.864v3.744c0 1.26.756 1.752 1.752 1.752zm4.824.012c1.236 0 2.208-.684 2.208-1.86v-.024c0-1.116-1.032-1.488-1.992-1.776-.828-.252-1.596-.48-1.596-1.068v-.024c0-.516.468-.9 1.2-.9.6 0 1.26.228 1.836.6l.42-.696c-.636-.42-1.476-.684-2.232-.684-1.224 0-2.112.708-2.112 1.776v.024c0 1.14 1.08 1.476 2.052 1.752.816.228 1.548.468 1.548 1.092v.024c0 .6-.54.984-1.284.984-.732 0-1.476-.288-2.148-.792l-.468.66c.696.564 1.68.912 2.568.912zm8.628-.12V6.736h2.4L306.828 10h1.164l-2.58-3.432c1.32-.24 2.28-1.056 2.28-2.448v-.024c0-.66-.24-1.248-.648-1.656-.528-.528-1.356-.84-2.388-.84h-3.612V10h.948zm2.58-4.116h-2.58V2.476h2.592c1.356 0 2.148.624 2.148 1.656v.024c0 1.08-.9 1.728-2.16 1.728zm7.704 4.26c1.176 0 1.932-.468 2.556-1.164l-.576-.516c-.504.528-1.104.876-1.956.876-1.104 0-2.052-.756-2.184-2.1h4.92c.012-.108.012-.18.012-.3 0-1.812-1.056-3.276-2.892-3.276-1.716 0-2.976 1.44-2.976 3.228v.024c0 1.92 1.392 3.228 3.096 3.228zm1.836-3.588h-3.996c.12-1.212.936-2.112 2.016-2.112 1.236 0 1.884.984 1.98 2.112zm4.608 3.564c1.236 0 2.208-.684 2.208-1.86v-.024c0-1.116-1.032-1.488-1.992-1.776-.828-.252-1.596-.48-1.596-1.068v-.024c0-.516.468-.9 1.2-.9.6 0 1.26.228 1.836.6l.42-.696c-.636-.42-1.476-.684-2.232-.684-1.224 0-2.112.708-2.112 1.776v.024c0 1.14 1.08 1.476 2.052 1.752.816.228 1.548.468 1.548 1.092v.024c0 .6-.54.984-1.284.984-.732 0-1.476-.288-2.148-.792l-.468.66c.696.564 1.68.912 2.568.912zm6.636.024c1.176 0 1.932-.468 2.556-1.164l-.576-.516c-.504.528-1.104.876-1.956.876-1.104 0-2.052-.756-2.184-2.1h4.92c.012-.108.012-.18.012-.3 0-1.812-1.056-3.276-2.892-3.276-1.716 0-2.976 1.44-2.976 3.228v.024c0 1.92 1.392 3.228 3.096 3.228zm1.836-3.588h-3.996c.12-1.212.936-2.112 2.016-2.112 1.236 0 1.884.984 1.98 2.112zm3.48 3.444V7.528c0-1.872 1.104-2.844 2.46-2.844h.072v-.996c-1.176-.048-2.076.696-2.532 1.728v-1.62h-.924V10h.924zm6.828.048l2.7-6.252h-.996l-2.1 5.148-2.088-5.148h-1.02l2.688 6.252h.816zm6.864.096c1.176 0 1.932-.468 2.556-1.164l-.576-.516c-.504.528-1.104.876-1.956.876-1.104 0-2.052-.756-2.184-2.1h4.92c.012-.108.012-.18.012-.3 0-1.812-1.056-3.276-2.892-3.276-1.716 0-2.976 1.44-2.976 3.228v.024c0 1.92 1.392 3.228 3.096 3.228zm1.836-3.588h-3.996c.12-1.212.936-2.112 2.016-2.112 1.236 0 1.884.984 1.98 2.112zm5.16 3.576c1.14 0 1.872-.636 2.376-1.38V10h.924V1.24h-.924v3.744c-.48-.696-1.224-1.32-2.376-1.32-1.488 0-2.964 1.2-2.964 3.228v.024c0 2.04 1.476 3.216 2.964 3.216zm.168-.828c-1.164 0-2.184-.936-2.184-2.4V6.88c0-1.5.984-2.388 2.184-2.388 1.152 0 2.244.96 2.244 2.388v.024c0 1.428-1.092 2.4-2.244 2.4zm6.192.696V8.74h-1.104V10h1.104z"/>
</svg>
