<svg xmlns="http://www.w3.org/2000/svg" width="257" height="28" viewBox="0 0 257 28">
    <g fill="none" fill-rule="evenodd">
        <path d="M0 0H257V28H0z"/>
        <path fill="#000" fill-rule="nonzero" d="M20.008 26.488c1.512 0 2.268-.828 2.268-2.484V1.243h-1.62c-.756 0-1.323.225-1.701.675-.378.45-.567 1.08-.567 1.89v22.68h1.62zm-8.073-6.831c1.026 0 1.8-.265 2.322-.797.522-.53.783-1.237.783-2.119V1.945h-1.863c-.576 0-1.057.194-1.444.58-.388.388-.581.869-.581 1.445v4.212H4.888V1.945H3.025c-.576 0-1.057.194-1.444.58C1.194 2.913 1 3.394 1 3.97v15.687h10.935zm-.783-2.511H4.888v-6.453h6.264v6.453zM46.9 14.257c.63 0 1.152-.211 1.566-.634.414-.423.621-.95.621-1.58V1.297h-1.701c-.63 0-1.152.212-1.566.635-.414.422-.621.949-.621 1.579v10.746H46.9zm-8.235-.864c.756 0 1.364-.216 1.822-.648.46-.432.689-.963.689-1.593V1.81H29.782c-.828 0-1.462.225-1.904.675-.44.45-.661.99-.661 1.62v9.288h11.448zm-1.35-2.511h-6.237V4.321h6.237v6.561zm10.368 15.714c.396 0 .72-.122.972-.364.252-.244.378-.572.378-.986v-1.107H34.912v-2.16h11.097c.36 0 .697-.063 1.013-.189.315-.126.593-.293.837-.5.242-.206.431-.454.566-.742.136-.288.203-.594.203-.918v-4.455H32.374c-.36 0-.67.117-.932.351-.26.234-.391.549-.391.945v1.161h13.716v1.917H33.319c-.756 0-1.323.216-1.701.648-.378.432-.567 1.053-.567 1.863v4.536h16.632zm25.542-6.885c.756 0 1.323-.225 1.701-.675.378-.45.567-1.08.567-1.89V1.243h-1.647c-.756 0-1.323.225-1.701.675-.378.45-.567 1.08-.567 1.89v3.024h-3.915V1.621H65.8c-.576 0-1.057.194-1.444.58-.387.387-.581.869-.581 1.445v2.646h-6.264V1.621h-1.863c-.576 0-1.058.194-1.445.58-.387.387-.58.869-.58 1.445v11.88h10.935c1.026 0 1.8-.265 2.322-.796.522-.532.783-1.238.783-2.12V9.424h3.915v10.287h1.647zm-9.45-6.696h-6.264V8.803h6.264v4.212zm10.719 13.473c.36 0 .666-.122.918-.364.252-.243.378-.563.378-.959v-1.188H61.885v-6.372h-1.674c-.756 0-1.314.216-1.674.648-.36.432-.54 1.053-.54 1.863v6.372h16.497zm27.837-3.429c.378 0 .697-.113.959-.338.26-.224.391-.544.391-.958v-1.242H93.34v-3.213c.936-.162 1.791-.427 2.565-.796.774-.37 1.44-.815 1.998-1.337s.99-1.103 1.296-1.742c.306-.639.459-1.3.459-1.984 0-1.08-.239-2.066-.716-2.957-.476-.89-1.21-1.552-2.2-1.984h3.267c.36 0 .67-.122.931-.364.261-.244.392-.563.392-.959V3.997h-7.965V1h-1.998c-1.26 0-1.89.711-1.89 2.133v.864H82.81c-.36 0-.67.122-.931.365-.261.242-.392.562-.392.958v1.188h4.671c-.936.414-1.674 1.053-2.214 1.917-.54.864-.801 1.872-.783 3.024 0 .738.148 1.431.445 2.079.297.648.72 1.229 1.27 1.742.548.513 1.21.945 1.984 1.296.774.35 1.638.598 2.592.742v3.213h-8.883c-.378 0-.698.113-.959.337-.26.226-.391.545-.391.959v1.242h23.112zm-10.908-7.911c-.648 0-1.237-.104-1.769-.31-.53-.207-.99-.5-1.376-.878-.388-.378-.689-.833-.905-1.364-.216-.53-.324-1.12-.324-1.768 0-.612.103-1.179.31-1.701.208-.522.505-.972.892-1.35.386-.378.85-.675 1.39-.891.54-.216 1.134-.324 1.782-.324.648 0 1.242.108 1.782.324.54.216.999.513 1.377.891s.67.828.878 1.35c.207.522.31 1.089.31 1.701 0 .648-.108 1.238-.324 1.769-.216.53-.513.985-.891 1.363s-.833.67-1.364.877c-.53.207-1.12.311-1.768.311zm44.928 11.313c.756 0 1.323-.225 1.701-.675.378-.45.567-1.08.567-1.89V1.243h-1.431c-.756 0-1.323.225-1.701.675-.378.45-.567 1.08-.567 1.89v5.886h-2.349V1.243h-1.377c-.756 0-1.323.225-1.701.675-.378.45-.567 1.08-.567 1.89v22.14h1.377c.756 0 1.323-.225 1.701-.675.378-.45.567-1.08.567-1.89V12.205h2.349v14.256h1.431zm-20.358-6.507c.486.018.945-.153 1.377-.513.414-.342.823-.733 1.228-1.174.406-.441.793-.914 1.162-1.418.368-.504.697-1.013.985-1.526.288-.513.522-1.012.702-1.498.504.99 1.089 1.89 1.755 2.7.666.81 1.323 1.503 1.971 2.079.198.162.418.288.662.378.243.09.477.14.702.149.224.009.436-.018.634-.082.198-.063.351-.166.459-.31l.864-.864c-1.692-1.296-2.993-2.813-3.901-4.55-.91-1.736-1.364-3.613-1.364-5.629V4.861h2.916c.36 0 .666-.117.918-.351.252-.234.378-.549.378-.945V2.296l-10.692-.027c-.36 0-.666.117-.918.351-.252.234-.378.549-.378.945v1.296h3.942v2.943c0 4.284-1.764 7.965-5.292 11.043l.756.756c.27.216.648.333 1.134.351zm45.792-5.724c.756 0 1.323-.225 1.701-.675.378-.45.567-1.08.567-1.89V1.243h-1.647c-.756 0-1.323.225-1.701.675-.378.45-.567 1.08-.567 1.89V5.05h-3.888c-.36 0-.666.117-.918.351-.252.234-.378.549-.378.945v1.296h5.184v6.588h1.647zm-18.886.108c.225 0 .454-.027.688-.081.234-.054.441-.135.621-.243.432-.234.895-.522 1.39-.864.495-.342.99-.72 1.485-1.134.495-.414.964-.868 1.405-1.364.44-.494.814-1.003 1.12-1.525.612.828 1.381 1.598 2.309 2.308.927.711 1.831 1.283 2.713 1.715.45.216.905.297 1.364.243.458-.054.805-.243 1.039-.567l.783-.972c-2.088-1.116-3.681-2.3-4.779-3.55-1.098-1.252-1.647-2.732-1.647-4.442V1.486h-1.62c-.72 0-1.278.225-1.674.675-.396.45-.594 1.08-.594 1.89v.432c0 .882-.189 1.719-.567 2.511-.378.792-.877 1.539-1.499 2.241-.62.702-1.332 1.359-2.132 1.971-.802.612-1.625 1.17-2.471 1.674l.891.999c.144.162.32.279.526.351.208.072.423.108.649.108zm20.047 12.258c.396 0 .72-.122.972-.364.252-.244.378-.572.378-.986v-1.107h-14.283v-2.106h11.259c.36 0 .698-.063 1.013-.189.315-.126.594-.293.837-.5.242-.207.431-.454.566-.742.136-.288.203-.594.203-.918v-4.455h-16.416c-.36 0-.67.117-.931.351-.262.234-.392.549-.392.945v1.161h13.878v1.917h-11.61c-.756 0-1.323.216-1.701.648-.378.432-.567 1.053-.567 1.863v4.482h16.794zm25.299-11.475c.756 0 1.323-.225 1.701-.675.378-.45.567-1.08.567-1.89V1.243h-1.647c-.756 0-1.323.225-1.701.675-.378.45-.567 1.08-.567 1.89v2.646h-3.375c-.36 0-.666.117-.918.351-.252.234-.378.549-.378.945v1.296h4.671v6.075h1.647zm-18.765.189c.378.054.756-.018 1.134-.216.414-.216.886-.504 1.417-.864s1.058-.76 1.58-1.202c.522-.44 1.008-.909 1.458-1.404.45-.495.81-.985 1.08-1.471.648.864 1.413 1.656 2.295 2.376.882.72 1.755 1.296 2.619 1.728.27.144.608.203 1.013.175.405-.027.751-.166 1.039-.418l.972-.918c-.846-.45-1.638-.959-2.376-1.526-.738-.566-1.386-1.183-1.944-1.849-.558-.666-.994-1.377-1.31-2.133-.314-.756-.472-1.557-.472-2.403v-.81h4.239c.36 0 .666-.117.918-.351.252-.234.378-.549.378-.945V1.864h-13.554c-.36 0-.666.117-.918.351-.252.234-.378.549-.378.945v1.215h5.427v.837c0 .918-.171 1.787-.513 2.606-.342.819-.81 1.593-1.404 2.322-.594.728-1.292 1.408-2.093 2.038-.8.63-1.651 1.215-2.551 1.755l1.053.972c.216.216.513.351.891.405zm12.798 12.798c1.116 0 2.165-.144 3.145-.432.982-.288 1.841-.711 2.579-1.269.738-.558 1.319-1.229 1.742-2.012.423-.782.634-1.678.634-2.686 0-.99-.211-1.877-.634-2.66-.423-.782-1.004-1.448-1.742-1.997-.738-.55-1.597-.968-2.579-1.256-.98-.288-2.029-.432-3.145-.432s-2.165.144-3.145.432c-.982.288-1.837.707-2.566 1.256-.728.549-1.305 1.215-1.728 1.997-.422.784-.634 1.67-.634 2.66 0 1.008.212 1.904.634 2.686.423.784 1 1.454 1.728 2.012.73.558 1.584.981 2.565 1.269.981.288 2.03.432 3.146.432zm0-2.214c-.648 0-1.228-.112-1.742-.337-.512-.226-.953-.531-1.322-.918-.37-.387-.649-.833-.838-1.337-.189-.504-.283-1.035-.283-1.593 0-.54.095-1.062.284-1.566.188-.504.463-.945.823-1.323.36-.378.801-.68 1.323-.904.522-.226 1.107-.338 1.755-.338.648 0 1.233.113 1.755.338.522.224.968.526 1.337.904.368.378.648.819.837 1.323.189.504.283 1.026.283 1.566 0 .558-.095 1.089-.284 1.593-.188.504-.468.95-.837 1.337-.369.387-.814.692-1.336.918-.522.225-1.107.337-1.755.337zm40.851-6.264c.63 0 1.161-.207 1.593-.621.432-.414.648-.936.648-1.566V9.721h2.295c.378 0 .693-.126.945-.378s.378-.558.378-.918V7.21h-3.618V1.243h-1.62c-.756 0-1.323.225-1.701.675-.378.45-.567 1.08-.567 1.89V19.63h1.647zm-11.934-4.239c1.08 0 2.079-.171 2.997-.513.918-.342 1.706-.819 2.362-1.431.657-.612 1.17-1.345 1.54-2.2.369-.855.553-1.796.553-2.822s-.184-1.967-.553-2.822c-.37-.854-.882-1.588-1.54-2.2-.656-.612-1.444-1.089-2.362-1.431-.918-.342-1.917-.513-2.997-.513-1.134 0-2.173.171-3.118.513-.946.342-1.751.819-2.417 1.431-.666.612-1.184 1.345-1.553 2.2-.369.856-.553 1.796-.553 2.822s.184 1.966.553 2.821c.37.855.887 1.589 1.553 2.201.666.612 1.471 1.089 2.417 1.431.945.342 1.984.513 3.118.513zm-.108-2.295c-.558 0-1.062-.121-1.512-.364-.45-.243-.832-.572-1.147-.986-.315-.414-.559-.909-.73-1.485-.17-.576-.256-1.188-.256-1.836 0-.648.085-1.26.256-1.836.171-.576.415-1.071.73-1.485.315-.414.697-.742 1.147-.986.45-.243.954-.364 1.512-.364s1.062.122 1.512.365c.45.243.837.571 1.161.985.324.414.572.909.743 1.485.17.576.256 1.188.256 1.836 0 .648-.085 1.26-.256 1.836-.171.576-.419 1.071-.743 1.485-.324.414-.711.742-1.161.986-.45.243-.954.364-1.512.364zm13.527 13.392c.36 0 .666-.122.918-.364.252-.243.378-.563.378-.959v-1.188h-14.256v-6.615h-1.674c-.756 0-1.314.216-1.674.648-.36.432-.54 1.053-.54 1.863v6.615h16.848zm26.757.054c.684 0 1.22-.216 1.606-.648.387-.432.581-1.053.581-1.863V1.297h-1.431c-1.512 0-2.268.828-2.268 2.484V9.37h-2.862V1.297h-1.377c-1.512 0-2.268.828-2.268 2.484V16.39c-1.134.144-2.273.252-3.416.324-1.143.072-2.092.108-2.848.108h-2.214V2.026h-1.566c-.756 0-1.323.225-1.701.675-.378.45-.567 1.08-.567 1.89v14.742h5.373c.486 0 1.017-.013 1.593-.04.576-.027 1.166-.063 1.768-.108.603-.045 1.211-.1 1.823-.162.612-.064 1.197-.14 1.755-.23v7.155h1.404c.702 0 1.251-.216 1.647-.648.396-.432.594-1.053.594-1.863V11.881h2.862v14.661h1.512z"/>
    </g>
</svg>
