<svg xmlns="http://www.w3.org/2000/svg" width="180" height="45" viewBox="0 0 180 45">
    <g fill="none" fill-rule="evenodd">
        <path fill="#0080C6" d="M0 0H180V45H0z"/>
        <path fill="#FFF" fill-rule="nonzero" d="M28.144 28.208c1.52 0 2.72-.608 3.664-1.696l-.992-1.168c-.704.768-1.536 1.248-2.608 1.248-2.08 0-3.392-1.712-3.392-4.512 0-2.768 1.408-4.464 3.44-4.464.96 0 1.696.432 2.304 1.056l1.008-1.184c-.72-.784-1.872-1.488-3.344-1.488-2.976 0-5.312 2.304-5.312 6.144 0 3.856 2.272 6.064 5.232 6.064zM35.552 28v-6.24c.784-.784 1.344-1.2 2.16-1.2 1.04 0 1.488.608 1.488 2.128V28h1.84v-5.536c0-2.24-.832-3.488-2.704-3.488-1.2 0-2.08.656-2.848 1.392l.064-1.744v-3.376h-1.824V28h1.824zm10.192.208c1.056 0 2-.528 2.8-1.216h.048l.16 1.008h1.504v-5.296c0-2.336-1.008-3.728-3.2-3.728-1.408 0-2.64.576-3.552 1.152l.688 1.248c.752-.48 1.616-.896 2.544-.896 1.296 0 1.664.896 1.68 1.92-3.664.4-5.264 1.376-5.264 3.264 0 1.552 1.072 2.544 2.592 2.544zm.56-1.456c-.784 0-1.376-.352-1.376-1.216 0-.992.88-1.648 3.488-1.968v2.16c-.72.656-1.344 1.024-2.112 1.024zM54.688 28v-6.24c.784-.784 1.344-1.2 2.16-1.2 1.04 0 1.488.608 1.488 2.128V28h1.84v-5.536c0-2.24-.832-3.488-2.704-3.488-1.2 0-2.096.656-2.912 1.44h-.048l-.144-1.216h-1.504V28h1.824zm11.168 3.952c2.816 0 4.608-1.376 4.608-3.072 0-1.504-1.088-2.144-3.168-2.144H65.68c-1.12 0-1.472-.336-1.472-.864 0-.416.192-.672.48-.928.384.176.832.272 1.232.272 1.84 0 3.296-1.104 3.296-3.024 0-.672-.24-1.264-.576-1.616h1.68V19.2H67.2c-.336-.128-.784-.224-1.28-.224-1.824 0-3.408 1.168-3.408 3.168 0 1.04.56 1.872 1.152 2.336v.064c-.48.352-.976.944-.976 1.632 0 .72.352 1.184.8 1.456v.08c-.816.496-1.28 1.184-1.28 1.92 0 1.536 1.536 2.32 3.648 2.32zm.064-7.92c-.912 0-1.664-.72-1.664-1.888 0-1.2.736-1.872 1.664-1.872.928 0 1.664.688 1.664 1.872 0 1.168-.752 1.888-1.664 1.888zm.208 6.704c-1.456 0-2.352-.512-2.352-1.376 0-.448.224-.896.752-1.28.368.08.768.128 1.184.128h1.328c1.072 0 1.648.224 1.648.96 0 .816-1.024 1.568-2.56 1.568zm9.632-2.528c1.152 0 2.16-.384 2.976-.928l-.64-1.168c-.64.416-1.312.656-2.096.656-1.52 0-2.576-1.008-2.72-2.688h5.712c.048-.208.08-.576.08-.928 0-2.496-1.248-4.176-3.584-4.176-2.064 0-4.016 1.776-4.016 4.64 0 2.896 1.904 4.592 4.288 4.592zm1.728-5.392h-4.224c.176-1.552 1.152-2.4 2.256-2.4 1.28 0 1.968.88 1.968 2.4zm9.072 8.752V28.72l-.048-1.504c.752.64 1.536.992 2.32.992 1.984 0 3.792-1.728 3.792-4.752 0-2.704-1.248-4.48-3.488-4.48-.976 0-1.936.544-2.704 1.184h-.048l-.144-.96h-1.504v12.368h1.824zm1.92-4.88c-.544 0-1.232-.208-1.92-.8v-4.304c.752-.72 1.408-1.072 2.096-1.072 1.472 0 2.064 1.136 2.064 2.976 0 2.064-.96 3.2-2.24 3.2zm8.416 1.52c1.056 0 2-.528 2.8-1.216h.048l.16 1.008h1.504v-5.296c0-2.336-1.008-3.728-3.2-3.728-1.408 0-2.64.576-3.552 1.152l.688 1.248c.752-.48 1.616-.896 2.544-.896 1.296 0 1.664.896 1.68 1.92-3.664.4-5.264 1.376-5.264 3.264 0 1.552 1.072 2.544 2.592 2.544zm.56-1.456c-.784 0-1.376-.352-1.376-1.216 0-.992.88-1.648 3.488-1.968v2.16c-.72.656-1.344 1.024-2.112 1.024zm8.944 1.456c2.176 0 3.344-1.2 3.344-2.672 0-1.664-1.36-2.208-2.592-2.672-.96-.352-1.872-.64-1.872-1.392 0-.608.448-1.088 1.408-1.088.736 0 1.36.32 1.968.768l.864-1.136c-.72-.56-1.68-1.04-2.864-1.04-1.936 0-3.12 1.104-3.12 2.576 0 1.488 1.344 2.112 2.512 2.56.96.368 1.952.72 1.952 1.52 0 .672-.496 1.184-1.552 1.184-.944 0-1.712-.384-2.496-1.008l-.864 1.184c.848.704 2.096 1.216 3.312 1.216zm7.68 0c2.176 0 3.344-1.2 3.344-2.672 0-1.664-1.36-2.208-2.592-2.672-.96-.352-1.872-.64-1.872-1.392 0-.608.448-1.088 1.408-1.088.736 0 1.36.32 1.968.768l.864-1.136c-.72-.56-1.68-1.04-2.864-1.04-1.936 0-3.12 1.104-3.12 2.576 0 1.488 1.344 2.112 2.512 2.56.96.368 1.952.72 1.952 1.52 0 .672-.496 1.184-1.552 1.184-.944 0-1.712-.384-2.496-1.008l-.864 1.184c.848.704 2.096 1.216 3.312 1.216zm8.848-.208L124 23.664c.224-.832.384-1.648.56-2.56h.08c.192.912.352 1.712.56 2.544L126.32 28h2.208l2.272-8.8h-1.728l-1.136 4.768c-.192.848-.336 1.664-.512 2.496h-.064c-.208-.832-.384-1.648-.592-2.496l-1.264-4.768h-1.712l-1.232 4.768c-.208.832-.384 1.664-.576 2.496h-.064c-.16-.832-.304-1.648-.48-2.496l-1.168-4.768h-1.856L120.8 28h2.128zm13.216.208c2.176 0 4.144-1.68 4.144-4.592 0-2.944-1.968-4.64-4.144-4.64S132 20.672 132 23.616c0 2.912 1.968 4.592 4.144 4.592zm0-1.504c-1.376 0-2.24-1.232-2.24-3.088 0-1.872.864-3.12 2.24-3.12 1.392 0 2.256 1.248 2.256 3.12 0 1.856-.864 3.088-2.256 3.088zM144.272 28v-5.488c.56-1.392 1.424-1.888 2.144-1.888.352 0 .576.048.88.144l.336-1.6c-.272-.128-.56-.192-.992-.192-.944 0-1.872.672-2.496 1.808h-.048l-.144-1.584h-1.504V28h1.824zm7.76.208c.992 0 1.904-.528 2.56-1.2h.048l.16.992h1.504V15.248h-1.84v3.264l.08 1.456c-.72-.608-1.36-.992-2.368-.992-1.968 0-3.776 1.776-3.776 4.64 0 2.912 1.424 4.592 3.632 4.592zm.432-1.52c-1.376 0-2.16-1.104-2.16-3.104 0-1.904.992-3.072 2.224-3.072.656 0 1.28.208 1.936.8v4.304c-.64.736-1.264 1.072-2 1.072z"/>
    </g>
</svg>
