<svg xmlns="http://www.w3.org/2000/svg" width="140" height="49" viewBox="0 0 140 49">
    <g fill="none">
        <g fill="#000">
            <path d="M4.053 12.4c-.35 0-.922.05-1.22.565V.34H1.728C.64.339.037.862.034 1.848v12.77h6.992c.99-.005 1.679-.509 1.679-1.457v-.76H4.053z" transform="translate(60.215 20.323)"/>
            <g>
                <path d="M46.663.692H39.44c-.78 0-1.325.463-1.329 1.205v1.22h3.053v8.798h1.068c.85-.007 1.325-.421 1.325-1.2V3.116h1.769c.779 0 1.325-.463 1.336-1.2V.692M33.378.361c-1.727 0-3.564 1.118-3.564 3.192 0 1.757 1.298 2.551 2.567 3.097l1.095.493c1.102.46 1.509.884 1.509 1.566 0 .835-.644 1.467-1.505 1.467h-.155c-.515 0-1.099-.045-1.471-.594l-.034-.045c-.128-.177-.625-.9-1.596-.945l-.745.154.045.414c.245 1.822 1.822 3.094 3.846 3.094 2.247 0 3.884-1.49 3.884-3.545 0-2.225-1.66-3.132-2.901-3.62L33.23 4.61c-1.031-.399-1.148-.79-1.148-1.054 0-.602.655-1.004 1.269-1.004.368 0 .64.056.869.237l.011.007c.076.072.493.324 1.092.324.21 0 .444-.03.696-.113l.711-.399-.233-.414C35.832 1.01 34.725.361 33.378.361M66.978.361c-1.727 0-3.564 1.118-3.564 3.192 0 1.757 1.298 2.551 2.567 3.097l1.095.493c1.102.46 1.509.884 1.509 1.566 0 .835-.644 1.467-1.505 1.467h-.155c-.515 0-1.099-.045-1.471-.594l-.034-.045c-.128-.177-.625-.9-1.596-.945l-.745.154.045.414c.245 1.822 1.822 3.094 3.846 3.094 2.247 0 3.884-1.49 3.884-3.545 0-2.225-1.66-3.132-2.901-3.62L66.83 4.61c-1.031-.399-1.148-.79-1.148-1.054 0-.602.655-1.004 1.269-1.004.368 0 .64.056.869.237l.011.007c.072.072.493.324 1.092.324.21 0 .444-.03.696-.113l.711-.399-.233-.414C69.432 1.01 68.325.361 66.978.361M6.112 9.887c-2.044 0-3.35-1.464-3.35-3.553 0-2.236 1.415-3.617 3.35-3.617 1.93 0 3.327 1.532 3.327 3.617 0 2.24-1.284 3.553-3.327 3.553M6.138.339C2.525.339.275 3.263.275 6.334c0 3.086 2.4 5.939 5.856 5.939 3.458 0 5.795-2.759 5.795-5.94C11.923 3.392 9.747.34 6.138.34M28.331.692h-1.163c-.775 0-1.317.561-1.32 1.303v9.92h1.162c.43 0 .757-.102.979-.301.222-.196.342-.493.342-.88V.691M50.25.692h-1.163c-.776 0-1.318.561-1.321 1.303v9.92h1.162c.43 0 .757-.102.979-.301.222-.196.342-.493.342-.88V.691M18.972 12.235c1.904-.004 3.398-.629 4.58-2.443.688-1.065.801-2.641.801-3.54 0-.347-.015-.592-.026-.67h-3.03c-.417 0-.846.105-1.17.308-.324.203-.542.5-.542.888v.813h2.473v.049c0 .24-.042.832-.452 1.362-.41.53-1.19 1.001-2.646 1.001-.88 0-1.735-.3-2.375-.93-.636-.628-1.053-1.58-1.053-2.878 0-.953.308-1.852.88-2.51.569-.655 1.427-1.08 2.477-1.084.926 0 1.385.203 1.727.41.346.203.565.402 1.028.402.466 0 .839-.188 1.106-.387.252-.188.41-.384.49-.463C22.237 1.129 20.792.38 18.903.373c-3.553.007-5.864 2.46-5.867 5.822.01 3.36 2.39 6.032 5.935 6.04zM57.784.358c-3.346 0-5.785 2.641-5.785 5.983 0 3.342 2.44 5.905 5.785 5.905 1.855 0 3.613-.831 4.768-2.284-.12-.117-.44-.806-1.52-.806-1.013 0-1.242 1.017-3.248 1.017-1.968 0-3.602-1.668-3.602-3.835 0-2.168 1.63-3.914 3.602-3.914 1.791 0 2.22 1.065 3.142 1.065.926 0 1.46-.738 1.589-.855C61.352 1.193 59.639.358 57.784.358" transform="translate(60.215 20.323) translate(8.656)"/>
            </g>
        </g>
        <path fill="#E02636" d="M39.113 37.292c-.828-6.247-3.902-11.343-7.045-11.366-3.142 0-7.737 5.1-10.413 11.377-2.676 6.278.354 11.366 7.083 11.366 6.774-.072 11.203-5.118 10.375-11.377"/>
        <path fill="#000" d="M7.023 20.661c-4.02 0-6.951 3.177-6.951 7.196 0 4.02 2.931 7.102 6.95 7.102 2.236 0 4.347-1.001 5.744-2.748-.15-.143-.539-.963-1.833-.963-1.22 0-1.498 1.223-3.91 1.223-2.364 0-4.328-2.006-4.328-4.61 0-2.608 1.96-4.705 4.328-4.705 2.156 0 2.672 1.284 3.782 1.284 1.11 0 1.757-.888 1.908-1.028-1.393-1.746-3.455-2.75-5.69-2.75M21.2 21.079h-5.65c-.955 0-1.622.572-1.622 1.483v.835h2.518s.094 8.51-.011 9.428v.003c-.034.7-.339 2.383-1.957 3.143-1.329.625-1.344 1.22-1.411 2.141.018.068.045.11.086.11h.008c.007 0 .011 0 .015-.004.049-.012 1.32-.324 1.505-.403l-.004-.004c1.193-.372 3.022-1.189 3.892-2.883 0 0 .816-1.256.801-3.951v-7.583h.12c.957 0 1.72-.572 1.72-1.487v-.828"/>
        <path fill="#EA8B00" d="M50.336 16.604c-5.894-2.318-11.847-2.073-13.368.67-1.483 2.785.715 9.224 4.912 14.606 4.188 5.382 10.108 5.201 13.371-.685 3.23-5.867.964-12.28-4.915-14.59"/>
        <path fill="#007AC3" d="M20.372 18.482c5.23 3.572 11.087 4.652 13.16 2.334 2.093-2.334 1.37-9.157-1.516-15.34-2.887-6.18-8.701-7.324-13.191-2.31-4.434 5.004-3.67 11.756 1.547 15.316"/>
    </g>
</svg>
